<svg width="32" height="50" viewBox="0 0 32 50" fill="none" xmlns="http://www.w3.org/2000/svg">
<path opacity="0.8" fill-rule="evenodd" clip-rule="evenodd" d="M7.53053 0.405678C7.95525 0.0980951 8.46842 -0.041662 8.98046 0.0108024H8.98051C9.40928 0.0478686 9.81723 0.222427 10.1501 0.511247C11.6996 1.88736 12.7105 3.4277 13.1753 5.13228C14.2231 8.96748 14.2231 10.4844 14.0608 12.1655C13.9538 13.2836 13.6549 14.6832 13.1753 16.3721C10.7403 14.5268 8.91039 12.013 7.69288 8.84632C6.89222 6.75079 6.56763 4.53019 6.74468 2.31742L6.8111 1.62937C6.87538 1.13147 7.13711 0.686294 7.53053 0.405678ZM1.38079 10.4186C-0.270586 10.4186 -0.15944 12.0628 0.281202 13.4757C0.725639 14.8802 2.61453 19.0733 5.87511 21.6263C8.05133 23.3241 10.8062 24.7989 14.1395 26.0465C13.3962 21.4817 11.8023 17.8918 9.35789 15.2809C5.69499 11.3605 3.03217 10.4227 1.38079 10.4227V10.4186ZM5.92736 33.1742C1.70114 30.3605 0.235759 26.6524 0.0145778 25.1967L0.0145277 25.2008C-0.206654 23.7493 2.13949 23.5866 4.20524 24.0338C4.32913 24.0607 4.4544 24.0873 4.58144 24.1143L4.58256 24.1146C6.56962 24.5369 8.99131 25.0516 13.3489 28.051C17.9859 31.2428 21.1931 35.7846 22.1411 37.6142C22.9653 39.2053 20.9075 38.7333 18.3646 38.15C17.9833 38.0625 17.591 37.9725 17.196 37.8866C13.1159 37.0247 9.28465 35.4186 5.92736 33.1742ZM6.77829 42.9285C6.32777 41.5883 7.77393 39.7416 10.9047 39.519V39.5146C14.0318 39.2876 17.3215 39.5146 22.0272 41.3176C25.5299 42.6944 28.7922 44.7787 31.6619 47.4731C32.896 48.691 30.5034 49.0229 28.4819 49.0229C28.0919 49.0229 27.5802 49.0381 26.9698 49.0562H26.9697H26.9696H26.9695C24.4102 49.1323 20.1165 49.26 15.7883 48.5339C10.4239 47.6346 7.23257 44.2687 6.77829 42.9285Z" fill="url(#paint0_linear_0_467)"/>
<defs>
<linearGradient id="paint0_linear_0_467" x1="0" y1="0" x2="0" y2="49.1163" gradientUnits="userSpaceOnUse">
<stop stop-color="#7EFAC0"/>
<stop offset="1" stop-color="#32DC8C"/>
</linearGradient>
</defs>
</svg>
