<svg viewBox="0 0 1128 265" fill="none" xmlns="http://www.w3.org/2000/svg">
    <g opacity="0.5">
        <path d="M1366 211.369C1366 211.369 1109.66 265 845.563 265C611.685 265 538.743 222.35 285.761 199.2C32.7789 176.049 -116 211.369 -116 211.369V-7.75879C-116 -7.75879 258.552 -72.9346 723.414 -28.4794C951.648 -6.65323 1366 -7.75879 1366 -7.75879L1366 211.369Z" fill="url(#paint0_linear_7733_40886)" fill-opacity="0.5" />
        <path d="M1243 138.711C1243 138.711 986.662 169.068 722.563 169.068C488.685 169.068 415.743 144.927 162.761 131.823C-90.2211 118.719 -239 138.711 -239 138.711V14.6766C-239 14.6766 135.552 -22.2154 600.414 2.94792C828.648 15.3024 1243 14.6766 1243 14.6766L1243 138.711Z" fill="url(#paint1_linear_7733_40886)" fill-opacity="0.3" />
    </g>
    <defs>
        <linearGradient
                id="paint0_linear_7733_40886"
                x1="625"
                y1="265"
                x2="625"
                y2="-7.75884"
                gradientUnits="userSpaceOnUse"
        >
            <stop stop-color="#D5EEF6" />
            <stop offset="1" stop-color="#0A50A3" />
        </linearGradient>
        <linearGradient
                id="paint1_linear_7733_40886"
                x1="502"
                y1="169.068"
                x2="502"
                y2="14.6766"
                gradientUnits="userSpaceOnUse"
        >
            <stop stop-color="white" />
            <stop offset="1" stop-color="#65A7F6" />
        </linearGradient>
    </defs>
</svg>
