<svg width="64" height="65" viewBox="0 0 64 65" fill="none" xmlns="http://www.w3.org/2000/svg">
    <path d="M0 12.0508C0 5.42336 5.37258 0.0507812 12 0.0507812H52C58.6274 0.0507812 64 5.42336 64 12.0508V52.0508C64 58.6782 58.6274 64.0508 52 64.0508H12C5.37258 64.0508 0 58.6782 0 52.0508V12.0508Z" fill="#46A7E2"/>
    <g filter="url(#filter0_dd_7733_41111)">
        <rect x="4" y="23.0508" width="19" height="19" rx="2.375" fill="white" fill-opacity="0.8"/>
    </g>
    <g filter="url(#filter1_dd_7733_41111)">
        <rect x="41" y="23.0508" width="19" height="19" rx="2.375" fill="white" fill-opacity="0.8"/>
    </g>
    <g filter="url(#filter2_i_7733_41111)">
        <rect x="5.78125" y="24.832" width="15.4375" height="15.4375" rx="1.1875" fill="url(#paint0_linear_7733_41111)"/>
    </g>
    <g filter="url(#filter3_i_7733_41111)">
        <rect x="42.7812" y="24.832" width="15.4375" height="15.4375" rx="1.1875" fill="url(#paint1_linear_7733_41111)"/>
    </g>
    <g filter="url(#filter4_dd_7733_41111)">
        <rect x="16" y="16.0508" width="32" height="32" rx="4" fill="white" fill-opacity="0.8"/>
    </g>
    <g filter="url(#filter5_dd_7733_41111)">
        <rect x="19" y="19.0508" width="26" height="26" rx="2" fill="url(#paint2_linear_7733_41111)"/>
    </g>
    <g filter="url(#filter6_dd_7733_41111)">
        <path fill-rule="evenodd" clip-rule="evenodd" d="M40.0123 25.4095C40.9097 26.0376 41.1279 27.2743 40.4998 28.1716L33.007 38.8756C32.6954 39.3208 32.0852 39.4356 31.6331 39.1342L24.8834 34.6344C23.972 34.0268 23.7257 32.7954 24.3333 31.884C24.9409 30.9726 26.1723 30.7264 27.0837 31.334L30.6071 33.6829C31.0592 33.9844 31.6694 33.8695 31.981 33.4243L37.2502 25.8969C37.8784 24.9996 39.115 24.7813 40.0123 25.4095Z" fill="white" fill-opacity="0.8"/>
    </g>
    <g filter="url(#filter7_dd_7733_41111)">
        <circle cx="32.5" cy="13.5508" r="4.5" fill="url(#paint3_linear_7733_41111)" fill-opacity="0.8"/>
    </g>
    <g filter="url(#filter8_dd_7733_41111)">
        <path d="M29.994 15.8516L31.9884 10.8116H33.0252L35.0052 15.8516H33.7668L32.8164 13.2956C32.778 13.1948 32.7396 13.0868 32.7012 12.9716C32.6628 12.8564 32.6244 12.7388 32.586 12.6188C32.5476 12.494 32.5092 12.374 32.4708 12.2588C32.4372 12.1388 32.4084 12.0284 32.3844 11.9276L32.6004 11.9204C32.5716 12.0404 32.538 12.158 32.4996 12.2732C32.466 12.3884 32.43 12.5036 32.3916 12.6188C32.358 12.7292 32.3196 12.842 32.2764 12.9572C32.2332 13.0676 32.1924 13.1828 32.154 13.3028L31.2036 15.8516H29.994ZM30.9444 14.8868L31.326 13.9652H33.6444L34.0188 14.8868H30.9444Z" fill="white" fill-opacity="0.8"/>
    </g>
    <g filter="url(#filter9_dd_7733_41111)">
        <circle cx="11.5" cy="21.5508" r="2.5" fill="url(#paint4_linear_7733_41111)" fill-opacity="0.8"/>
    </g>
    <g filter="url(#filter10_dd_7733_41111)">
        <path d="M10.4497 23.0508V20.2508H11.6857C11.8777 20.2508 12.0403 20.2788 12.1737 20.3348C12.307 20.3881 12.407 20.4668 12.4737 20.5708C12.543 20.6721 12.5777 20.7948 12.5777 20.9388C12.5777 21.0988 12.5377 21.2334 12.4577 21.3428C12.3803 21.4521 12.267 21.5254 12.1177 21.5628L12.1097 21.4868C12.235 21.5134 12.343 21.5601 12.4337 21.6268C12.527 21.6934 12.599 21.7761 12.6497 21.8748C12.7003 21.9708 12.7257 22.0801 12.7257 22.2028C12.7257 22.3441 12.7017 22.4681 12.6537 22.5748C12.6057 22.6788 12.5363 22.7668 12.4457 22.8388C12.355 22.9108 12.2483 22.9641 12.1257 22.9988C12.0057 23.0334 11.8723 23.0508 11.7257 23.0508H10.4497ZM11.0897 22.4828H11.7017C11.7763 22.4828 11.839 22.4708 11.8897 22.4468C11.943 22.4228 11.9843 22.3881 12.0137 22.3428C12.043 22.2948 12.0577 22.2374 12.0577 22.1708C12.0577 22.1094 12.0417 22.0574 12.0097 22.0148C11.9803 21.9721 11.9377 21.9401 11.8817 21.9188C11.8257 21.8948 11.759 21.8828 11.6817 21.8828H11.0897V22.4828ZM11.0897 21.3748H11.5897C11.659 21.3748 11.7177 21.3641 11.7657 21.3428C11.8163 21.3188 11.8537 21.2868 11.8777 21.2468C11.9043 21.2041 11.9177 21.1534 11.9177 21.0948C11.9177 21.0094 11.8883 20.9428 11.8297 20.8948C11.771 20.8441 11.683 20.8188 11.5657 20.8188H11.0897V21.3748Z" fill="white" fill-opacity="0.8"/>
    </g>
    <g filter="url(#filter11_dd_7733_41111)">
        <circle cx="53.5" cy="21.5508" r="2.5" fill="url(#paint5_linear_7733_41111)" fill-opacity="0.8"/>
    </g>
    <g filter="url(#filter12_dd_7733_41111)">
        <path d="M53.7353 23.0908C53.5247 23.0908 53.33 23.0561 53.1513 22.9868C52.9753 22.9148 52.822 22.8148 52.6913 22.6868C52.5607 22.5561 52.4593 22.4028 52.3873 22.2268C52.318 22.0481 52.2833 21.8521 52.2833 21.6388C52.2833 21.4308 52.3207 21.2388 52.3953 21.0628C52.47 20.8868 52.5727 20.7348 52.7033 20.6068C52.8367 20.4761 52.9927 20.3748 53.1713 20.3028C53.3527 20.2308 53.55 20.1948 53.7633 20.1948C53.8967 20.1948 54.0273 20.2121 54.1553 20.2468C54.2833 20.2814 54.402 20.3334 54.5113 20.4028C54.6233 20.4694 54.7193 20.5494 54.7993 20.6428L54.3833 21.1188C54.3273 21.0601 54.2673 21.0094 54.2033 20.9668C54.142 20.9214 54.074 20.8868 53.9993 20.8628C53.9247 20.8388 53.8447 20.8268 53.7593 20.8268C53.6527 20.8268 53.5513 20.8468 53.4553 20.8868C53.362 20.9241 53.2793 20.9788 53.2073 21.0508C53.138 21.1201 53.0833 21.2054 53.0433 21.3068C53.0033 21.4081 52.9833 21.5214 52.9833 21.6468C52.9833 21.7694 53.0033 21.8814 53.0433 21.9828C53.0833 22.0814 53.1393 22.1668 53.2113 22.2388C53.2833 22.3108 53.37 22.3654 53.4713 22.4028C53.5753 22.4401 53.69 22.4588 53.8153 22.4588C53.9007 22.4588 53.982 22.4468 54.0593 22.4228C54.1367 22.3988 54.2073 22.3668 54.2713 22.3268C54.338 22.2841 54.3967 22.2361 54.4473 22.1828L54.7753 22.7028C54.7087 22.7774 54.6193 22.8441 54.5073 22.9028C54.398 22.9614 54.2753 23.0081 54.1393 23.0428C54.006 23.0748 53.8713 23.0908 53.7353 23.0908Z" fill="white" fill-opacity="0.8"/>
    </g>
    <defs>
        <filter id="filter0_dd_7733_41111" x="2.04413" y="22.5618" width="22.9117" height="22.9117" filterUnits="userSpaceOnUse" color-interpolation-filters="sRGB">
            <feFlood flood-opacity="0" result="BackgroundImageFix"/>
            <feColorMatrix in="SourceAlpha" type="matrix" values="0 0 0 0 0 0 0 0 0 0 0 0 0 0 0 0 0 0 127 0" result="hardAlpha"/>
            <feOffset dy="1.4669"/>
            <feGaussianBlur stdDeviation="0.977936"/>
            <feColorMatrix type="matrix" values="0 0 0 0 0 0 0 0 0 0 0 0 0 0 0 0 0 0 0.2 0"/>
            <feBlend mode="normal" in2="BackgroundImageFix" result="effect1_dropShadow_7733_41111"/>
            <feColorMatrix in="SourceAlpha" type="matrix" values="0 0 0 0 0 0 0 0 0 0 0 0 0 0 0 0 0 0 127 0" result="hardAlpha"/>
            <feOffset dy="0.488968"/>
            <feGaussianBlur stdDeviation="0.488968"/>
            <feColorMatrix type="matrix" values="0 0 0 0 0 0 0 0 0 0 0 0 0 0 0 0 0 0 0.1 0"/>
            <feBlend mode="normal" in2="effect1_dropShadow_7733_41111" result="effect2_dropShadow_7733_41111"/>
            <feBlend mode="normal" in="SourceGraphic" in2="effect2_dropShadow_7733_41111" result="shape"/>
        </filter>
        <filter id="filter1_dd_7733_41111" x="39.0441" y="22.5618" width="22.9117" height="22.9117" filterUnits="userSpaceOnUse" color-interpolation-filters="sRGB">
            <feFlood flood-opacity="0" result="BackgroundImageFix"/>
            <feColorMatrix in="SourceAlpha" type="matrix" values="0 0 0 0 0 0 0 0 0 0 0 0 0 0 0 0 0 0 127 0" result="hardAlpha"/>
            <feOffset dy="1.4669"/>
            <feGaussianBlur stdDeviation="0.977936"/>
            <feColorMatrix type="matrix" values="0 0 0 0 0 0 0 0 0 0 0 0 0 0 0 0 0 0 0.2 0"/>
            <feBlend mode="normal" in2="BackgroundImageFix" result="effect1_dropShadow_7733_41111"/>
            <feColorMatrix in="SourceAlpha" type="matrix" values="0 0 0 0 0 0 0 0 0 0 0 0 0 0 0 0 0 0 127 0" result="hardAlpha"/>
            <feOffset dy="0.488968"/>
            <feGaussianBlur stdDeviation="0.488968"/>
            <feColorMatrix type="matrix" values="0 0 0 0 0 0 0 0 0 0 0 0 0 0 0 0 0 0 0.1 0"/>
            <feBlend mode="normal" in2="effect1_dropShadow_7733_41111" result="effect2_dropShadow_7733_41111"/>
            <feBlend mode="normal" in="SourceGraphic" in2="effect2_dropShadow_7733_41111" result="shape"/>
        </filter>
        <filter id="filter2_i_7733_41111" x="5.78125" y="24.832" width="15.4375" height="15.4375" filterUnits="userSpaceOnUse" color-interpolation-filters="sRGB">
            <feFlood flood-opacity="0" result="BackgroundImageFix"/>
            <feBlend mode="normal" in="SourceGraphic" in2="BackgroundImageFix" result="shape"/>
            <feColorMatrix in="SourceAlpha" type="matrix" values="0 0 0 0 0 0 0 0 0 0 0 0 0 0 0 0 0 0 127 0" result="hardAlpha"/>
            <feOffset/>
            <feGaussianBlur stdDeviation="0.5"/>
            <feComposite in2="hardAlpha" operator="arithmetic" k2="-1" k3="1"/>
            <feColorMatrix type="matrix" values="0 0 0 0 0 0 0 0 0 0 0 0 0 0 0 0 0 0 0.25 0"/>
            <feBlend mode="normal" in2="shape" result="effect1_innerShadow_7733_41111"/>
        </filter>
        <filter id="filter3_i_7733_41111" x="42.7812" y="24.832" width="15.4375" height="15.4375" filterUnits="userSpaceOnUse" color-interpolation-filters="sRGB">
            <feFlood flood-opacity="0" result="BackgroundImageFix"/>
            <feBlend mode="normal" in="SourceGraphic" in2="BackgroundImageFix" result="shape"/>
            <feColorMatrix in="SourceAlpha" type="matrix" values="0 0 0 0 0 0 0 0 0 0 0 0 0 0 0 0 0 0 127 0" result="hardAlpha"/>
            <feOffset/>
            <feGaussianBlur stdDeviation="0.5"/>
            <feComposite in2="hardAlpha" operator="arithmetic" k2="-1" k3="1"/>
            <feColorMatrix type="matrix" values="0 0 0 0 0 0 0 0 0 0 0 0 0 0 0 0 0 0 0.25 0"/>
            <feBlend mode="normal" in2="shape" result="effect1_innerShadow_7733_41111"/>
        </filter>
        <filter id="filter4_dd_7733_41111" x="12.7059" y="15.2273" width="38.5882" height="38.5882" filterUnits="userSpaceOnUse" color-interpolation-filters="sRGB">
            <feFlood flood-opacity="0" result="BackgroundImageFix"/>
            <feColorMatrix in="SourceAlpha" type="matrix" values="0 0 0 0 0 0 0 0 0 0 0 0 0 0 0 0 0 0 127 0" result="hardAlpha"/>
            <feOffset dy="2.47057"/>
            <feGaussianBlur stdDeviation="1.64705"/>
            <feColorMatrix type="matrix" values="0 0 0 0 0 0 0 0 0 0 0 0 0 0 0 0 0 0 0.2 0"/>
            <feBlend mode="normal" in2="BackgroundImageFix" result="effect1_dropShadow_7733_41111"/>
            <feColorMatrix in="SourceAlpha" type="matrix" values="0 0 0 0 0 0 0 0 0 0 0 0 0 0 0 0 0 0 127 0" result="hardAlpha"/>
            <feOffset dy="0.823525"/>
            <feGaussianBlur stdDeviation="0.823525"/>
            <feColorMatrix type="matrix" values="0 0 0 0 0 0 0 0 0 0 0 0 0 0 0 0 0 0 0.1 0"/>
            <feBlend mode="normal" in2="effect1_dropShadow_7733_41111" result="effect2_dropShadow_7733_41111"/>
            <feBlend mode="normal" in="SourceGraphic" in2="effect2_dropShadow_7733_41111" result="shape"/>
        </filter>
        <filter id="filter5_dd_7733_41111" x="15.9412" y="18.2861" width="32.1176" height="32.1176" filterUnits="userSpaceOnUse" color-interpolation-filters="sRGB">
            <feFlood flood-opacity="0" result="BackgroundImageFix"/>
            <feColorMatrix in="SourceAlpha" type="matrix" values="0 0 0 0 0 0 0 0 0 0 0 0 0 0 0 0 0 0 127 0" result="hardAlpha"/>
            <feOffset dy="2.29411"/>
            <feGaussianBlur stdDeviation="1.5294"/>
            <feColorMatrix type="matrix" values="0 0 0 0 0 0 0 0 0 0 0 0 0 0 0 0 0 0 0.2 0"/>
            <feBlend mode="normal" in2="BackgroundImageFix" result="effect1_dropShadow_7733_41111"/>
            <feColorMatrix in="SourceAlpha" type="matrix" values="0 0 0 0 0 0 0 0 0 0 0 0 0 0 0 0 0 0 127 0" result="hardAlpha"/>
            <feOffset dy="0.764702"/>
            <feGaussianBlur stdDeviation="0.764702"/>
            <feColorMatrix type="matrix" values="0 0 0 0 0 0 0 0 0 0 0 0 0 0 0 0 0 0 0.1 0"/>
            <feBlend mode="normal" in2="effect1_dropShadow_7733_41111" result="effect2_dropShadow_7733_41111"/>
            <feBlend mode="normal" in="SourceGraphic" in2="effect2_dropShadow_7733_41111" result="shape"/>
        </filter>
        <filter id="filter6_dd_7733_41111" x="20.7059" y="24.2273" width="23.4476" height="20.8402" filterUnits="userSpaceOnUse" color-interpolation-filters="sRGB">
            <feFlood flood-opacity="0" result="BackgroundImageFix"/>
            <feColorMatrix in="SourceAlpha" type="matrix" values="0 0 0 0 0 0 0 0 0 0 0 0 0 0 0 0 0 0 127 0" result="hardAlpha"/>
            <feOffset dy="2.47057"/>
            <feGaussianBlur stdDeviation="1.64705"/>
            <feColorMatrix type="matrix" values="0 0 0 0 0 0 0 0 0 0 0 0 0 0 0 0 0 0 0.2 0"/>
            <feBlend mode="normal" in2="BackgroundImageFix" result="effect1_dropShadow_7733_41111"/>
            <feColorMatrix in="SourceAlpha" type="matrix" values="0 0 0 0 0 0 0 0 0 0 0 0 0 0 0 0 0 0 127 0" result="hardAlpha"/>
            <feOffset dy="0.823525"/>
            <feGaussianBlur stdDeviation="0.823525"/>
            <feColorMatrix type="matrix" values="0 0 0 0 0 0 0 0 0 0 0 0 0 0 0 0 0 0 0.1 0"/>
            <feBlend mode="normal" in2="effect1_dropShadow_7733_41111" result="effect2_dropShadow_7733_41111"/>
            <feBlend mode="normal" in="SourceGraphic" in2="effect2_dropShadow_7733_41111" result="shape"/>
        </filter>
        <filter id="filter7_dd_7733_41111" x="24.7059" y="8.22726" width="15.5882" height="15.5882" filterUnits="userSpaceOnUse" color-interpolation-filters="sRGB">
            <feFlood flood-opacity="0" result="BackgroundImageFix"/>
            <feColorMatrix in="SourceAlpha" type="matrix" values="0 0 0 0 0 0 0 0 0 0 0 0 0 0 0 0 0 0 127 0" result="hardAlpha"/>
            <feOffset dy="2.47057"/>
            <feGaussianBlur stdDeviation="1.64705"/>
            <feColorMatrix type="matrix" values="0 0 0 0 0 0 0 0 0 0 0 0 0 0 0 0 0 0 0.2 0"/>
            <feBlend mode="normal" in2="BackgroundImageFix" result="effect1_dropShadow_7733_41111"/>
            <feColorMatrix in="SourceAlpha" type="matrix" values="0 0 0 0 0 0 0 0 0 0 0 0 0 0 0 0 0 0 127 0" result="hardAlpha"/>
            <feOffset dy="0.823525"/>
            <feGaussianBlur stdDeviation="0.823525"/>
            <feColorMatrix type="matrix" values="0 0 0 0 0 0 0 0 0 0 0 0 0 0 0 0 0 0 0.1 0"/>
            <feBlend mode="normal" in2="effect1_dropShadow_7733_41111" result="effect2_dropShadow_7733_41111"/>
            <feBlend mode="normal" in="SourceGraphic" in2="effect2_dropShadow_7733_41111" result="shape"/>
        </filter>
        <filter id="filter8_dd_7733_41111" x="26.6981" y="9.98898" width="11.5999" height="11.6273" filterUnits="userSpaceOnUse" color-interpolation-filters="sRGB">
            <feFlood flood-opacity="0" result="BackgroundImageFix"/>
            <feColorMatrix in="SourceAlpha" type="matrix" values="0 0 0 0 0 0 0 0 0 0 0 0 0 0 0 0 0 0 127 0" result="hardAlpha"/>
            <feOffset dy="2.47057"/>
            <feGaussianBlur stdDeviation="1.64705"/>
            <feColorMatrix type="matrix" values="0 0 0 0 0 0 0 0 0 0 0 0 0 0 0 0 0 0 0.2 0"/>
            <feBlend mode="normal" in2="BackgroundImageFix" result="effect1_dropShadow_7733_41111"/>
            <feColorMatrix in="SourceAlpha" type="matrix" values="0 0 0 0 0 0 0 0 0 0 0 0 0 0 0 0 0 0 127 0" result="hardAlpha"/>
            <feOffset dy="0.823525"/>
            <feGaussianBlur stdDeviation="0.823525"/>
            <feColorMatrix type="matrix" values="0 0 0 0 0 0 0 0 0 0 0 0 0 0 0 0 0 0 0.1 0"/>
            <feBlend mode="normal" in2="effect1_dropShadow_7733_41111" result="effect2_dropShadow_7733_41111"/>
            <feBlend mode="normal" in="SourceGraphic" in2="effect2_dropShadow_7733_41111" result="shape"/>
        </filter>
        <filter id="filter9_dd_7733_41111" x="5.7059" y="18.2273" width="11.5882" height="11.5882" filterUnits="userSpaceOnUse" color-interpolation-filters="sRGB">
            <feFlood flood-opacity="0" result="BackgroundImageFix"/>
            <feColorMatrix in="SourceAlpha" type="matrix" values="0 0 0 0 0 0 0 0 0 0 0 0 0 0 0 0 0 0 127 0" result="hardAlpha"/>
            <feOffset dy="2.47057"/>
            <feGaussianBlur stdDeviation="1.64705"/>
            <feColorMatrix type="matrix" values="0 0 0 0 0 0 0 0 0 0 0 0 0 0 0 0 0 0 0.2 0"/>
            <feBlend mode="normal" in2="BackgroundImageFix" result="effect1_dropShadow_7733_41111"/>
            <feColorMatrix in="SourceAlpha" type="matrix" values="0 0 0 0 0 0 0 0 0 0 0 0 0 0 0 0 0 0 127 0" result="hardAlpha"/>
            <feOffset dy="0.823525"/>
            <feGaussianBlur stdDeviation="0.823525"/>
            <feColorMatrix type="matrix" values="0 0 0 0 0 0 0 0 0 0 0 0 0 0 0 0 0 0 0.1 0"/>
            <feBlend mode="normal" in2="effect1_dropShadow_7733_41111" result="effect2_dropShadow_7733_41111"/>
            <feBlend mode="normal" in="SourceGraphic" in2="effect2_dropShadow_7733_41111" result="shape"/>
        </filter>
        <filter id="filter10_dd_7733_41111" x="8.61916" y="19.7925" width="5.93745" height="6.46089" filterUnits="userSpaceOnUse" color-interpolation-filters="sRGB">
            <feFlood flood-opacity="0" result="BackgroundImageFix"/>
            <feColorMatrix in="SourceAlpha" type="matrix" values="0 0 0 0 0 0 0 0 0 0 0 0 0 0 0 0 0 0 127 0" result="hardAlpha"/>
            <feOffset dy="1.37254"/>
            <feGaussianBlur stdDeviation="0.915028"/>
            <feColorMatrix type="matrix" values="0 0 0 0 0 0 0 0 0 0 0 0 0 0 0 0 0 0 0.2 0"/>
            <feBlend mode="normal" in2="BackgroundImageFix" result="effect1_dropShadow_7733_41111"/>
            <feColorMatrix in="SourceAlpha" type="matrix" values="0 0 0 0 0 0 0 0 0 0 0 0 0 0 0 0 0 0 127 0" result="hardAlpha"/>
            <feOffset dy="0.457514"/>
            <feGaussianBlur stdDeviation="0.457514"/>
            <feColorMatrix type="matrix" values="0 0 0 0 0 0 0 0 0 0 0 0 0 0 0 0 0 0 0.1 0"/>
            <feBlend mode="normal" in2="effect1_dropShadow_7733_41111" result="effect2_dropShadow_7733_41111"/>
            <feBlend mode="normal" in="SourceGraphic" in2="effect2_dropShadow_7733_41111" result="shape"/>
        </filter>
        <filter id="filter11_dd_7733_41111" x="47.7059" y="18.2273" width="11.5882" height="11.5882" filterUnits="userSpaceOnUse" color-interpolation-filters="sRGB">
            <feFlood flood-opacity="0" result="BackgroundImageFix"/>
            <feColorMatrix in="SourceAlpha" type="matrix" values="0 0 0 0 0 0 0 0 0 0 0 0 0 0 0 0 0 0 127 0" result="hardAlpha"/>
            <feOffset dy="2.47057"/>
            <feGaussianBlur stdDeviation="1.64705"/>
            <feColorMatrix type="matrix" values="0 0 0 0 0 0 0 0 0 0 0 0 0 0 0 0 0 0 0.2 0"/>
            <feBlend mode="normal" in2="BackgroundImageFix" result="effect1_dropShadow_7733_41111"/>
            <feColorMatrix in="SourceAlpha" type="matrix" values="0 0 0 0 0 0 0 0 0 0 0 0 0 0 0 0 0 0 127 0" result="hardAlpha"/>
            <feOffset dy="0.823525"/>
            <feGaussianBlur stdDeviation="0.823525"/>
            <feColorMatrix type="matrix" values="0 0 0 0 0 0 0 0 0 0 0 0 0 0 0 0 0 0 0.1 0"/>
            <feBlend mode="normal" in2="effect1_dropShadow_7733_41111" result="effect2_dropShadow_7733_41111"/>
            <feBlend mode="normal" in="SourceGraphic" in2="effect2_dropShadow_7733_41111" result="shape"/>
        </filter>
        <filter id="filter12_dd_7733_41111" x="50.4551" y="19.7378" width="6.17574" height="6.55464" filterUnits="userSpaceOnUse" color-interpolation-filters="sRGB">
            <feFlood flood-opacity="0" result="BackgroundImageFix"/>
            <feColorMatrix in="SourceAlpha" type="matrix" values="0 0 0 0 0 0 0 0 0 0 0 0 0 0 0 0 0 0 127 0" result="hardAlpha"/>
            <feOffset dy="1.37254"/>
            <feGaussianBlur stdDeviation="0.915028"/>
            <feColorMatrix type="matrix" values="0 0 0 0 0 0 0 0 0 0 0 0 0 0 0 0 0 0 0.2 0"/>
            <feBlend mode="normal" in2="BackgroundImageFix" result="effect1_dropShadow_7733_41111"/>
            <feColorMatrix in="SourceAlpha" type="matrix" values="0 0 0 0 0 0 0 0 0 0 0 0 0 0 0 0 0 0 127 0" result="hardAlpha"/>
            <feOffset dy="0.457514"/>
            <feGaussianBlur stdDeviation="0.457514"/>
            <feColorMatrix type="matrix" values="0 0 0 0 0 0 0 0 0 0 0 0 0 0 0 0 0 0 0.1 0"/>
            <feBlend mode="normal" in2="effect1_dropShadow_7733_41111" result="effect2_dropShadow_7733_41111"/>
            <feBlend mode="normal" in="SourceGraphic" in2="effect2_dropShadow_7733_41111" result="shape"/>
        </filter>
        <linearGradient id="paint0_linear_7733_41111" x1="13.5" y1="24.832" x2="13.5" y2="43.8532" gradientUnits="userSpaceOnUse">
            <stop stop-color="#46A6E2"/>
            <stop offset="1" stop-color="#E6E6E6"/>
        </linearGradient>
        <linearGradient id="paint1_linear_7733_41111" x1="50.5" y1="24.832" x2="50.5" y2="43.8532" gradientUnits="userSpaceOnUse">
            <stop stop-color="#46A6E2"/>
            <stop offset="1" stop-color="#E6E6E6"/>
        </linearGradient>
        <linearGradient id="paint2_linear_7733_41111" x1="32" y1="19.0508" x2="32" y2="51.0865" gradientUnits="userSpaceOnUse">
            <stop stop-color="#26BC5E"/>
            <stop offset="1" stop-color="#7DECA6"/>
        </linearGradient>
        <linearGradient id="paint3_linear_7733_41111" x1="32.5" y1="9.05078" x2="32.5" y2="18.0508" gradientUnits="userSpaceOnUse">
            <stop stop-color="#FB0808"/>
            <stop offset="1" stop-color="#FB613F"/>
        </linearGradient>
        <linearGradient id="paint4_linear_7733_41111" x1="11.5" y1="19.0508" x2="11.5" y2="24.0508" gradientUnits="userSpaceOnUse">
            <stop stop-color="#FB0808"/>
            <stop offset="1" stop-color="#FB613F"/>
        </linearGradient>
        <linearGradient id="paint5_linear_7733_41111" x1="53.5" y1="19.0508" x2="53.5" y2="24.0508" gradientUnits="userSpaceOnUse">
            <stop stop-color="#FB0808"/>
            <stop offset="1" stop-color="#FB613F"/>
        </linearGradient>
    </defs>
</svg>
