<svg width="64" height="73" viewBox="0 0 64 73" fill="none" xmlns="http://www.w3.org/2000/svg">
    <g clip-path="url(#clip0_7733_42061)">
        <path d="M0 21C0 14.3726 5.37258 9 12 9H52C58.6274 9 64 14.3726 64 21V61C64 67.6274 58.6274 73 52 73H12C5.37258 73 0 67.6274 0 61V21Z" fill="url(#paint0_linear_7733_42061)"/>
        <circle cx="46" cy="46" r="46" transform="matrix(1 0 0 -1 -14 133)" fill="white" fill-opacity="0.2"/>
        <g filter="url(#filter0_dd_7733_42061)">
            <path fill-rule="evenodd" clip-rule="evenodd" d="M26.8676 21C27.5701 21 28.2212 21.3686 28.5826 21.971L35.4582 33.4304C34.3521 33.1493 33.1935 33 32 33C29.2426 33 26.6713 33.7972 24.5042 35.1736L16 21H26.8676Z" fill="#12447F"/>
        </g>
        <g filter="url(#filter1_dd_7733_42061)">
            <path fill-rule="evenodd" clip-rule="evenodd" d="M37.1336 21C36.4311 21 35.78 21.3686 35.4186 21.971L28.543 33.4304C29.649 33.1493 30.8077 33 32.0012 33C34.7586 33 37.3299 33.7972 39.497 35.1736L48.0012 21H37.1336Z" fill="#0A50A3"/>
        </g>
        <g filter="url(#filter2_dd_7733_42061)">
            <path d="M46 47C46 54.732 39.732 61 32 61C24.268 61 18 54.732 18 47C18 39.268 24.268 33 32 33C39.732 33 46 39.268 46 47Z" fill="url(#paint1_linear_7733_42061)"/>
        </g>
        <g filter="url(#filter3_dd_7733_42061)">
            <path fill-rule="evenodd" clip-rule="evenodd" d="M32 61C39.732 61 46 54.732 46 47C46 39.268 39.732 33 32 33C24.268 33 18 39.268 18 47C18 54.732 24.268 61 32 61ZM32 59C38.6274 59 44 53.6274 44 47C44 40.3726 38.6274 35 32 35C25.3726 35 20 40.3726 20 47C20 53.6274 25.3726 59 32 59Z" fill="white"/>
        </g>
        <g filter="url(#filter4_dd_7733_42061)">
            <path d="M41 47C41 51.9706 36.9706 56 32 56C27.0294 56 23 51.9706 23 47C23 42.0294 27.0294 38 32 38C36.9706 38 41 42.0294 41 47Z" fill="white" fill-opacity="0.8"/>
        </g>
        <g filter="url(#filter5_d_7733_42061)">
            <path d="M25.8262 50V43.4278H28.6617C29.0748 43.4278 29.4409 43.5217 29.7602 43.7094C30.0856 43.8972 30.3423 44.1539 30.5301 44.4793C30.7241 44.8048 30.8211 45.171 30.8211 45.5778C30.8211 46.0035 30.7241 46.3853 30.5301 46.7233C30.3423 47.055 30.0856 47.3179 29.7602 47.5119C29.4409 47.706 29.0748 47.803 28.6617 47.803H27.4223V50H25.8262ZM27.3942 46.4041H28.4363C28.574 46.4041 28.6992 46.3696 28.8119 46.3008C28.9246 46.2319 29.0153 46.138 29.0842 46.0191C29.153 45.9002 29.1874 45.7625 29.1874 45.606C29.1874 45.4433 29.153 45.3056 29.0842 45.1929C29.0153 45.0802 28.9246 44.9926 28.8119 44.93C28.6992 44.8674 28.574 44.8361 28.4363 44.8361H27.3942V46.4041ZM33.4698 50V44.8361H31.5169V43.4278H37.0657V44.8361H35.0659V50H33.4698ZM37.6353 50.1033C37.3787 50.1033 37.1784 50.0313 37.0344 49.8873C36.8967 49.7434 36.8279 49.5368 36.8279 49.2677C36.8279 49.0173 36.903 48.8139 37.0532 48.6574C37.2034 48.5009 37.3975 48.4227 37.6353 48.4227C37.8919 48.4227 38.0922 48.4978 38.2362 48.648C38.3802 48.792 38.4522 48.9985 38.4522 49.2677C38.4522 49.5118 38.377 49.7121 38.2268 49.8686C38.0766 50.025 37.8794 50.1033 37.6353 50.1033Z" fill="#0A50A3"/>
        </g>
    </g>
    <g filter="url(#filter6_d_7733_42061)">
        <rect x="9.87891" y="0.949219" width="44" height="21" rx="10.5" fill="url(#paint2_linear_7733_42061)"/>
        <path d="M19.7309 14.9492V6.54922H22.8989C23.7709 6.54922 24.4309 6.75322 24.8789 7.16122C25.3269 7.56922 25.5509 8.08122 25.5509 8.69722C25.5509 9.23322 25.4069 9.66122 25.1189 9.98122C24.8309 10.2932 24.4829 10.5052 24.0749 10.6172C24.3949 10.6812 24.6789 10.8092 24.9269 11.0012C25.1829 11.1932 25.3829 11.4332 25.5269 11.7212C25.6709 12.0092 25.7429 12.3212 25.7429 12.6572C25.7429 13.0892 25.6349 13.4812 25.4189 13.8332C25.2109 14.1772 24.9029 14.4492 24.4949 14.6492C24.0869 14.8492 23.5869 14.9492 22.9949 14.9492H19.7309ZM21.0029 10.1492H22.7429C23.2309 10.1492 23.6029 10.0372 23.8589 9.81322C24.1149 9.58122 24.2429 9.26522 24.2429 8.86522C24.2429 8.47322 24.1149 8.16122 23.8589 7.92922C23.6109 7.69722 23.2309 7.58122 22.7189 7.58122H21.0029V10.1492ZM21.0029 13.9052H22.8269C23.3389 13.9052 23.7349 13.7852 24.0149 13.5452C24.3029 13.3052 24.4469 12.9692 24.4469 12.5372C24.4469 12.1052 24.2989 11.7652 24.0029 11.5172C23.7069 11.2612 23.3069 11.1332 22.8029 11.1332H21.0029V13.9052ZM29.1052 15.0932C28.6012 15.0932 28.1852 15.0092 27.8572 14.8412C27.5292 14.6732 27.2852 14.4532 27.1252 14.1812C26.9652 13.9012 26.8852 13.5972 26.8852 13.2692C26.8852 12.6932 27.1092 12.2372 27.5572 11.9012C28.0052 11.5652 28.6452 11.3972 29.4772 11.3972H31.0372V11.2892C31.0372 10.8252 30.9092 10.4772 30.6532 10.2452C30.4052 10.0132 30.0812 9.89722 29.6812 9.89722C29.3292 9.89722 29.0212 9.98522 28.7572 10.1612C28.5012 10.3292 28.3452 10.5812 28.2892 10.9172H27.0172C27.0572 10.4852 27.2012 10.1172 27.4492 9.81322C27.7052 9.50122 28.0252 9.26522 28.4092 9.10522C28.8012 8.93722 29.2292 8.85322 29.6932 8.85322C30.5252 8.85322 31.1692 9.07322 31.6252 9.51322C32.0812 9.94522 32.3092 10.5372 32.3092 11.2892V14.9492H31.2052L31.0972 13.9292C30.9292 14.2572 30.6852 14.5332 30.3652 14.7572C30.0452 14.9812 29.6252 15.0932 29.1052 15.0932ZM29.3572 14.0612C29.7012 14.0612 29.9892 13.9812 30.2212 13.8212C30.4612 13.6532 30.6452 13.4332 30.7732 13.1612C30.9092 12.8892 30.9932 12.5892 31.0252 12.2612H29.6092C29.1052 12.2612 28.7452 12.3492 28.5292 12.5252C28.3212 12.7012 28.2172 12.9212 28.2172 13.1852C28.2172 13.4572 28.3172 13.6732 28.5172 13.8332C28.7252 13.9852 29.0052 14.0612 29.3572 14.0612ZM33.7923 14.9492V8.99722H34.9323L35.0403 10.1252C35.2483 9.73322 35.5363 9.42522 35.9043 9.20122C36.2803 8.96922 36.7323 8.85322 37.2603 8.85322V10.1852H36.9123C36.5603 10.1852 36.2443 10.2452 35.9643 10.3652C35.6923 10.4772 35.4723 10.6732 35.3043 10.9532C35.1443 11.2252 35.0643 11.6052 35.0643 12.0932V14.9492H33.7923ZM40.5469 15.0932C39.8269 15.0932 39.2589 14.8692 38.8429 14.4212C38.4349 13.9732 38.2309 13.3052 38.2309 12.4172V8.99722H39.5029V12.2852C39.5029 13.4372 39.9749 14.0132 40.9189 14.0132C41.3909 14.0132 41.7789 13.8452 42.0829 13.5092C42.3869 13.1732 42.5389 12.6932 42.5389 12.0692V8.99722H43.8109V14.9492H42.6829L42.5869 13.9052C42.4029 14.2732 42.1309 14.5652 41.7709 14.7812C41.4189 14.9892 41.0109 15.0932 40.5469 15.0932Z" fill="#F4F2F3"/>
    </g>
    <defs>
        <filter id="filter0_dd_7733_42061" x="12" y="20" width="27.457" height="22.1738" filterUnits="userSpaceOnUse" color-interpolation-filters="sRGB">
            <feFlood flood-opacity="0" result="BackgroundImageFix"/>
            <feColorMatrix in="SourceAlpha" type="matrix" values="0 0 0 0 0 0 0 0 0 0 0 0 0 0 0 0 0 0 127 0" result="hardAlpha"/>
            <feOffset dy="3"/>
            <feGaussianBlur stdDeviation="2"/>
            <feColorMatrix type="matrix" values="0 0 0 0 0 0 0 0 0 0 0 0 0 0 0 0 0 0 0.2 0"/>
            <feBlend mode="normal" in2="BackgroundImageFix" result="effect1_dropShadow_7733_42061"/>
            <feColorMatrix in="SourceAlpha" type="matrix" values="0 0 0 0 0 0 0 0 0 0 0 0 0 0 0 0 0 0 127 0" result="hardAlpha"/>
            <feOffset dy="1"/>
            <feGaussianBlur stdDeviation="1"/>
            <feColorMatrix type="matrix" values="0 0 0 0 0 0 0 0 0 0 0 0 0 0 0 0 0 0 0.1 0"/>
            <feBlend mode="normal" in2="effect1_dropShadow_7733_42061" result="effect2_dropShadow_7733_42061"/>
            <feBlend mode="normal" in="SourceGraphic" in2="effect2_dropShadow_7733_42061" result="shape"/>
        </filter>
        <filter id="filter1_dd_7733_42061" x="24.543" y="20" width="27.457" height="22.1738" filterUnits="userSpaceOnUse" color-interpolation-filters="sRGB">
            <feFlood flood-opacity="0" result="BackgroundImageFix"/>
            <feColorMatrix in="SourceAlpha" type="matrix" values="0 0 0 0 0 0 0 0 0 0 0 0 0 0 0 0 0 0 127 0" result="hardAlpha"/>
            <feOffset dy="3"/>
            <feGaussianBlur stdDeviation="2"/>
            <feColorMatrix type="matrix" values="0 0 0 0 0 0 0 0 0 0 0 0 0 0 0 0 0 0 0.2 0"/>
            <feBlend mode="normal" in2="BackgroundImageFix" result="effect1_dropShadow_7733_42061"/>
            <feColorMatrix in="SourceAlpha" type="matrix" values="0 0 0 0 0 0 0 0 0 0 0 0 0 0 0 0 0 0 127 0" result="hardAlpha"/>
            <feOffset dy="1"/>
            <feGaussianBlur stdDeviation="1"/>
            <feColorMatrix type="matrix" values="0 0 0 0 0 0 0 0 0 0 0 0 0 0 0 0 0 0 0.1 0"/>
            <feBlend mode="normal" in2="effect1_dropShadow_7733_42061" result="effect2_dropShadow_7733_42061"/>
            <feBlend mode="normal" in="SourceGraphic" in2="effect2_dropShadow_7733_42061" result="shape"/>
        </filter>
        <filter id="filter2_dd_7733_42061" x="14" y="32" width="36" height="36" filterUnits="userSpaceOnUse" color-interpolation-filters="sRGB">
            <feFlood flood-opacity="0" result="BackgroundImageFix"/>
            <feColorMatrix in="SourceAlpha" type="matrix" values="0 0 0 0 0 0 0 0 0 0 0 0 0 0 0 0 0 0 127 0" result="hardAlpha"/>
            <feOffset dy="3"/>
            <feGaussianBlur stdDeviation="2"/>
            <feColorMatrix type="matrix" values="0 0 0 0 0 0 0 0 0 0 0 0 0 0 0 0 0 0 0.2 0"/>
            <feBlend mode="normal" in2="BackgroundImageFix" result="effect1_dropShadow_7733_42061"/>
            <feColorMatrix in="SourceAlpha" type="matrix" values="0 0 0 0 0 0 0 0 0 0 0 0 0 0 0 0 0 0 127 0" result="hardAlpha"/>
            <feOffset dy="1"/>
            <feGaussianBlur stdDeviation="1"/>
            <feColorMatrix type="matrix" values="0 0 0 0 0 0 0 0 0 0 0 0 0 0 0 0 0 0 0.1 0"/>
            <feBlend mode="normal" in2="effect1_dropShadow_7733_42061" result="effect2_dropShadow_7733_42061"/>
            <feBlend mode="normal" in="SourceGraphic" in2="effect2_dropShadow_7733_42061" result="shape"/>
        </filter>
        <filter id="filter3_dd_7733_42061" x="16" y="32" width="32" height="32" filterUnits="userSpaceOnUse" color-interpolation-filters="sRGB">
            <feFlood flood-opacity="0" result="BackgroundImageFix"/>
            <feColorMatrix in="SourceAlpha" type="matrix" values="0 0 0 0 0 0 0 0 0 0 0 0 0 0 0 0 0 0 127 0" result="hardAlpha"/>
            <feOffset dy="1"/>
            <feGaussianBlur stdDeviation="1"/>
            <feColorMatrix type="matrix" values="0 0 0 0 0 0 0 0 0 0 0 0 0 0 0 0 0 0 0.2 0"/>
            <feBlend mode="normal" in2="BackgroundImageFix" result="effect1_dropShadow_7733_42061"/>
            <feColorMatrix in="SourceAlpha" type="matrix" values="0 0 0 0 0 0 0 0 0 0 0 0 0 0 0 0 0 0 127 0" result="hardAlpha"/>
            <feOffset dy="1"/>
            <feGaussianBlur stdDeviation="0.5"/>
            <feColorMatrix type="matrix" values="0 0 0 0 0 0 0 0 0 0 0 0 0 0 0 0 0 0 0.1 0"/>
            <feBlend mode="normal" in2="effect1_dropShadow_7733_42061" result="effect2_dropShadow_7733_42061"/>
            <feBlend mode="normal" in="SourceGraphic" in2="effect2_dropShadow_7733_42061" result="shape"/>
        </filter>
        <filter id="filter4_dd_7733_42061" x="21" y="37" width="22" height="22" filterUnits="userSpaceOnUse" color-interpolation-filters="sRGB">
            <feFlood flood-opacity="0" result="BackgroundImageFix"/>
            <feColorMatrix in="SourceAlpha" type="matrix" values="0 0 0 0 0 0 0 0 0 0 0 0 0 0 0 0 0 0 127 0" result="hardAlpha"/>
            <feOffset dy="1"/>
            <feGaussianBlur stdDeviation="1"/>
            <feColorMatrix type="matrix" values="0 0 0 0 0 0 0 0 0 0 0 0 0 0 0 0 0 0 0.2 0"/>
            <feBlend mode="normal" in2="BackgroundImageFix" result="effect1_dropShadow_7733_42061"/>
            <feColorMatrix in="SourceAlpha" type="matrix" values="0 0 0 0 0 0 0 0 0 0 0 0 0 0 0 0 0 0 127 0" result="hardAlpha"/>
            <feOffset dy="1"/>
            <feGaussianBlur stdDeviation="0.5"/>
            <feColorMatrix type="matrix" values="0 0 0 0 0 0 0 0 0 0 0 0 0 0 0 0 0 0 0.1 0"/>
            <feBlend mode="normal" in2="effect1_dropShadow_7733_42061" result="effect2_dropShadow_7733_42061"/>
            <feBlend mode="normal" in="SourceGraphic" in2="effect2_dropShadow_7733_42061" result="shape"/>
        </filter>
        <filter id="filter5_d_7733_42061" x="24.8281" y="42.4277" width="14.625" height="8.67578" filterUnits="userSpaceOnUse" color-interpolation-filters="sRGB">
            <feFlood flood-opacity="0" result="BackgroundImageFix"/>
            <feColorMatrix in="SourceAlpha" type="matrix" values="0 0 0 0 0 0 0 0 0 0 0 0 0 0 0 0 0 0 127 0" result="hardAlpha"/>
            <feOffset/>
            <feGaussianBlur stdDeviation="0.5"/>
            <feComposite in2="hardAlpha" operator="out"/>
            <feColorMatrix type="matrix" values="0 0 0 0 0 0 0 0 0 0 0 0 0 0 0 0 0 0 0.25 0"/>
            <feBlend mode="normal" in2="BackgroundImageFix" result="effect1_dropShadow_7733_42061"/>
            <feBlend mode="normal" in="SourceGraphic" in2="effect1_dropShadow_7733_42061" result="shape"/>
        </filter>
        <filter id="filter6_d_7733_42061" x="8.08653" y="0.351761" width="46.3898" height="23.3898" filterUnits="userSpaceOnUse" color-interpolation-filters="sRGB">
            <feFlood flood-opacity="0" result="BackgroundImageFix"/>
            <feColorMatrix in="SourceAlpha" type="matrix" values="0 0 0 0 0 0 0 0 0 0 0 0 0 0 0 0 0 0 127 0" result="hardAlpha"/>
            <feOffset dx="-0.597458" dy="0.597458"/>
            <feGaussianBlur stdDeviation="0.597458"/>
            <feComposite in2="hardAlpha" operator="out"/>
            <feColorMatrix type="matrix" values="0 0 0 0 0 0 0 0 0 0 0 0 0 0 0 0 0 0 0.25 0"/>
            <feBlend mode="normal" in2="BackgroundImageFix" result="effect1_dropShadow_7733_42061"/>
            <feBlend mode="normal" in="SourceGraphic" in2="effect1_dropShadow_7733_42061" result="shape"/>
        </filter>
        <linearGradient id="paint0_linear_7733_42061" x1="32" y1="9" x2="32" y2="73" gradientUnits="userSpaceOnUse">
            <stop stop-color="#D5F2FF"/>
            <stop offset="1" stop-color="#64ABFF"/>
        </linearGradient>
        <linearGradient id="paint1_linear_7733_42061" x1="32" y1="33" x2="32" y2="61" gradientUnits="userSpaceOnUse">
            <stop stop-color="#FCF087"/>
            <stop offset="1" stop-color="#F0A64E"/>
        </linearGradient>
        <linearGradient id="paint2_linear_7733_42061" x1="18.3831" y1="4.62422" x2="58.0939" y2="14.406" gradientUnits="userSpaceOnUse">
            <stop stop-color="#EF5944"/>
            <stop offset="1" stop-color="#FF998B"/>
        </linearGradient>
        <clipPath id="clip0_7733_42061">
            <rect y="9" width="64" height="64" rx="12" fill="white"/>
        </clipPath>
    </defs>
</svg>
