<svg width="64" height="74" viewBox="0 0 64 74" fill="none" xmlns="http://www.w3.org/2000/svg">
    <g clip-path="url(#clip0_3_68)">
        <path d="M0 21.0508C0 14.4234 5.37258 9.05078 12 9.05078H52C58.6274 9.05078 64 14.4234 64 21.0508V61.0508C64 67.6782 58.6274 73.0508 52 73.0508H12C5.37258 73.0508 0 67.6782 0 61.0508V21.0508Z" fill="url(#paint0_linear_3_68)"/>
        <circle cx="46" cy="46" r="46" transform="matrix(1 0 0 -1 -14 133.051)" fill="white" fill-opacity="0.2"/>
    </g>
    <g filter="url(#filter0_dd_3_68)">
        <path d="M28.571 28.5304C31.757 31.7164 31.4805 35.5103 28.97 38.0208C26.4595 40.5313 22.6656 40.8078 19.4796 37.6217C17.2319 35.374 17.1366 30.754 17.2755 28.2276C17.3325 27.1897 18.139 26.3833 19.1768 26.3263C21.7033 26.1874 26.3233 26.2827 28.571 28.5304Z" fill="url(#paint1_linear_3_68)"/>
    </g>
    <g filter="url(#filter1_dd_3_68)">
        <path d="M35.4298 53.5719C32.2437 50.3858 32.5202 46.592 35.0307 44.0815C37.5412 41.5709 41.3351 41.2945 44.5211 44.4805C46.7688 46.7282 46.8641 51.3482 46.7252 53.8747C46.6682 54.9125 45.8617 55.7189 44.8239 55.776C42.2974 55.9149 37.6774 55.8196 35.4298 53.5719Z" fill="url(#paint2_linear_3_68)"/>
    </g>
    <g filter="url(#filter2_dd_3_68)">
        <path d="M19.4796 44.4805C22.6656 41.2945 26.4595 41.5709 28.97 44.0815C31.4805 46.592 31.757 50.3858 28.571 53.5719C26.3233 55.8196 21.7033 55.9149 19.1768 55.776C18.139 55.7189 17.3325 54.9125 17.2755 53.8747C17.1366 51.3482 17.2319 46.7282 19.4796 44.4805Z" fill="url(#paint3_linear_3_68)"/>
    </g>
    <g filter="url(#filter3_dd_3_68)">
        <path d="M44.5211 37.6217C41.3351 40.8078 37.5412 40.5313 35.0307 38.0208C32.5202 35.5103 32.2437 31.7164 35.4298 28.5304C37.6775 26.2827 42.2974 26.1874 44.8239 26.3263C45.8618 26.3833 46.6682 27.1897 46.7252 28.2276C46.8641 30.754 46.7688 35.374 44.5211 37.6217Z" fill="url(#paint4_linear_3_68)"/>
    </g>
    <g filter="url(#filter4_dd_3_68)">
        <path d="M38.4275 29.7721C38.4275 34.2779 35.5493 36.7651 31.9989 36.7651C28.4485 36.7651 25.5703 34.2779 25.5703 29.7721C25.5703 26.5934 28.7698 23.2592 30.6544 21.5709C31.4287 20.8774 32.5691 20.8774 33.3433 21.5709C35.228 23.2592 38.4275 26.5934 38.4275 29.7721Z" fill="white" fill-opacity="0.8"/>
    </g>
    <g filter="url(#filter5_dd_3_68)">
        <path d="M25.5703 52.3289C25.5703 47.8231 28.4485 45.3359 31.9989 45.3359C35.5493 45.3359 38.4275 47.8231 38.4275 52.3289C38.4275 55.5076 35.228 58.8418 33.3433 60.5301C32.5691 61.2236 31.4287 61.2236 30.6544 60.5301C28.7698 58.8418 25.5703 55.5076 25.5703 52.3289Z" fill="white" fill-opacity="0.8"/>
    </g>
    <g filter="url(#filter6_dd_3_68)">
        <path d="M20.7213 34.623C25.2271 34.623 27.7143 37.5012 27.7143 41.0516C27.7143 44.602 25.2271 47.4802 20.7213 47.4802C17.5426 47.4802 14.2084 44.2807 12.5202 42.3961C11.8266 41.6218 11.8266 40.4814 12.5202 39.7072C14.2084 37.8225 17.5426 34.623 20.7213 34.623Z" fill="white" fill-opacity="0.8"/>
    </g>
    <g filter="url(#filter7_dd_3_68)">
        <path d="M43.2781 47.4782C38.7723 47.4782 36.2852 44.6001 36.2852 41.0497C36.2852 37.4993 38.7723 34.6211 43.2781 34.6211C46.4568 34.6211 49.791 37.8206 51.4793 39.7052C52.1728 40.4794 52.1728 41.6199 51.4793 42.3941C49.791 44.2788 46.4568 47.4782 43.2781 47.4782Z" fill="white" fill-opacity="0.8"/>
    </g>
    <g filter="url(#filter8_d_3_68)">
        <rect x="10" y="1" width="44" height="21" rx="10.5" fill="url(#paint5_linear_3_68)"/>
        <path d="M19.852 15V6.6H23.02C23.892 6.6 24.552 6.804 25 7.212C25.448 7.62 25.672 8.132 25.672 8.748C25.672 9.284 25.528 9.712 25.24 10.032C24.952 10.344 24.604 10.556 24.196 10.668C24.516 10.732 24.8 10.86 25.048 11.052C25.304 11.244 25.504 11.484 25.648 11.772C25.792 12.06 25.864 12.372 25.864 12.708C25.864 13.14 25.756 13.532 25.54 13.884C25.332 14.228 25.024 14.5 24.616 14.7C24.208 14.9 23.708 15 23.116 15H19.852ZM21.124 10.2H22.864C23.352 10.2 23.724 10.088 23.98 9.864C24.236 9.632 24.364 9.316 24.364 8.916C24.364 8.524 24.236 8.212 23.98 7.98C23.732 7.748 23.352 7.632 22.84 7.632H21.124V10.2ZM21.124 13.956H22.948C23.46 13.956 23.856 13.836 24.136 13.596C24.424 13.356 24.568 13.02 24.568 12.588C24.568 12.156 24.42 11.816 24.124 11.568C23.828 11.312 23.428 11.184 22.924 11.184H21.124V13.956ZM29.2263 15.144C28.7223 15.144 28.3063 15.06 27.9783 14.892C27.6503 14.724 27.4063 14.504 27.2463 14.232C27.0863 13.952 27.0063 13.648 27.0063 13.32C27.0063 12.744 27.2303 12.288 27.6783 11.952C28.1263 11.616 28.7663 11.448 29.5983 11.448H31.1583V11.34C31.1583 10.876 31.0303 10.528 30.7743 10.296C30.5263 10.064 30.2023 9.948 29.8023 9.948C29.4503 9.948 29.1423 10.036 28.8783 10.212C28.6223 10.38 28.4663 10.632 28.4103 10.968H27.1383C27.1783 10.536 27.3223 10.168 27.5703 9.864C27.8263 9.552 28.1463 9.316 28.5303 9.156C28.9223 8.988 29.3503 8.904 29.8143 8.904C30.6463 8.904 31.2903 9.124 31.7463 9.564C32.2023 9.996 32.4303 10.588 32.4303 11.34V15H31.3263L31.2183 13.98C31.0503 14.308 30.8063 14.584 30.4863 14.808C30.1663 15.032 29.7463 15.144 29.2263 15.144ZM29.4783 14.112C29.8223 14.112 30.1103 14.032 30.3423 13.872C30.5823 13.704 30.7663 13.484 30.8943 13.212C31.0303 12.94 31.1143 12.64 31.1463 12.312H29.7303C29.2263 12.312 28.8663 12.4 28.6503 12.576C28.4423 12.752 28.3383 12.972 28.3383 13.236C28.3383 13.508 28.4383 13.724 28.6383 13.884C28.8463 14.036 29.1263 14.112 29.4783 14.112ZM33.9134 15V9.048H35.0534L35.1614 10.176C35.3694 9.784 35.6574 9.476 36.0254 9.252C36.4014 9.02 36.8534 8.904 37.3814 8.904V10.236H37.0334C36.6814 10.236 36.3654 10.296 36.0854 10.416C35.8134 10.528 35.5934 10.724 35.4254 11.004C35.2654 11.276 35.1854 11.656 35.1854 12.144V15H33.9134ZM40.668 15.144C39.948 15.144 39.38 14.92 38.964 14.472C38.556 14.024 38.352 13.356 38.352 12.468V9.048H39.624V12.336C39.624 13.488 40.096 14.064 41.04 14.064C41.512 14.064 41.9 13.896 42.204 13.56C42.508 13.224 42.66 12.744 42.66 12.12V9.048H43.932V15H42.804L42.708 13.956C42.524 14.324 42.252 14.616 41.892 14.832C41.54 15.04 41.132 15.144 40.668 15.144Z" fill="#F4F2F3"/>
    </g>
    <defs>
        <filter id="filter0_dd_3_68" x="13.2344" y="25.2852" width="21.6726" height="21.6726" filterUnits="userSpaceOnUse" color-interpolation-filters="sRGB">
            <feFlood flood-opacity="0" result="BackgroundImageFix"/>
            <feColorMatrix in="SourceAlpha" type="matrix" values="0 0 0 0 0 0 0 0 0 0 0 0 0 0 0 0 0 0 127 0" result="hardAlpha"/>
            <feOffset dy="3"/>
            <feGaussianBlur stdDeviation="2"/>
            <feColorMatrix type="matrix" values="0 0 0 0 0 0 0 0 0 0 0 0 0 0 0 0 0 0 0.2 0"/>
            <feBlend mode="normal" in2="BackgroundImageFix" result="effect1_dropShadow_3_68"/>
            <feColorMatrix in="SourceAlpha" type="matrix" values="0 0 0 0 0 0 0 0 0 0 0 0 0 0 0 0 0 0 127 0" result="hardAlpha"/>
            <feOffset dy="1"/>
            <feGaussianBlur stdDeviation="1"/>
            <feColorMatrix type="matrix" values="0 0 0 0 0 0 0 0 0 0 0 0 0 0 0 0 0 0 0.1 0"/>
            <feBlend mode="normal" in2="effect1_dropShadow_3_68" result="effect2_dropShadow_3_68"/>
            <feBlend mode="normal" in="SourceGraphic" in2="effect2_dropShadow_3_68" result="shape"/>
        </filter>
        <filter id="filter1_dd_3_68" x="29.0938" y="41.1445" width="21.6726" height="21.6726" filterUnits="userSpaceOnUse" color-interpolation-filters="sRGB">
            <feFlood flood-opacity="0" result="BackgroundImageFix"/>
            <feColorMatrix in="SourceAlpha" type="matrix" values="0 0 0 0 0 0 0 0 0 0 0 0 0 0 0 0 0 0 127 0" result="hardAlpha"/>
            <feOffset dy="3"/>
            <feGaussianBlur stdDeviation="2"/>
            <feColorMatrix type="matrix" values="0 0 0 0 0 0 0 0 0 0 0 0 0 0 0 0 0 0 0.2 0"/>
            <feBlend mode="normal" in2="BackgroundImageFix" result="effect1_dropShadow_3_68"/>
            <feColorMatrix in="SourceAlpha" type="matrix" values="0 0 0 0 0 0 0 0 0 0 0 0 0 0 0 0 0 0 127 0" result="hardAlpha"/>
            <feOffset dy="1"/>
            <feGaussianBlur stdDeviation="1"/>
            <feColorMatrix type="matrix" values="0 0 0 0 0 0 0 0 0 0 0 0 0 0 0 0 0 0 0.1 0"/>
            <feBlend mode="normal" in2="effect1_dropShadow_3_68" result="effect2_dropShadow_3_68"/>
            <feBlend mode="normal" in="SourceGraphic" in2="effect2_dropShadow_3_68" result="shape"/>
        </filter>
        <filter id="filter2_dd_3_68" x="13.2344" y="41.1445" width="21.6726" height="21.6726" filterUnits="userSpaceOnUse" color-interpolation-filters="sRGB">
            <feFlood flood-opacity="0" result="BackgroundImageFix"/>
            <feColorMatrix in="SourceAlpha" type="matrix" values="0 0 0 0 0 0 0 0 0 0 0 0 0 0 0 0 0 0 127 0" result="hardAlpha"/>
            <feOffset dy="3"/>
            <feGaussianBlur stdDeviation="2"/>
            <feColorMatrix type="matrix" values="0 0 0 0 0 0 0 0 0 0 0 0 0 0 0 0 0 0 0.2 0"/>
            <feBlend mode="normal" in2="BackgroundImageFix" result="effect1_dropShadow_3_68"/>
            <feColorMatrix in="SourceAlpha" type="matrix" values="0 0 0 0 0 0 0 0 0 0 0 0 0 0 0 0 0 0 127 0" result="hardAlpha"/>
            <feOffset dy="1"/>
            <feGaussianBlur stdDeviation="1"/>
            <feColorMatrix type="matrix" values="0 0 0 0 0 0 0 0 0 0 0 0 0 0 0 0 0 0 0.1 0"/>
            <feBlend mode="normal" in2="effect1_dropShadow_3_68" result="effect2_dropShadow_3_68"/>
            <feBlend mode="normal" in="SourceGraphic" in2="effect2_dropShadow_3_68" result="shape"/>
        </filter>
        <filter id="filter3_dd_3_68" x="29.0938" y="25.2852" width="21.6726" height="21.6726" filterUnits="userSpaceOnUse" color-interpolation-filters="sRGB">
            <feFlood flood-opacity="0" result="BackgroundImageFix"/>
            <feColorMatrix in="SourceAlpha" type="matrix" values="0 0 0 0 0 0 0 0 0 0 0 0 0 0 0 0 0 0 127 0" result="hardAlpha"/>
            <feOffset dy="3"/>
            <feGaussianBlur stdDeviation="2"/>
            <feColorMatrix type="matrix" values="0 0 0 0 0 0 0 0 0 0 0 0 0 0 0 0 0 0 0.2 0"/>
            <feBlend mode="normal" in2="BackgroundImageFix" result="effect1_dropShadow_3_68"/>
            <feColorMatrix in="SourceAlpha" type="matrix" values="0 0 0 0 0 0 0 0 0 0 0 0 0 0 0 0 0 0 127 0" result="hardAlpha"/>
            <feOffset dy="1"/>
            <feGaussianBlur stdDeviation="1"/>
            <feColorMatrix type="matrix" values="0 0 0 0 0 0 0 0 0 0 0 0 0 0 0 0 0 0 0.1 0"/>
            <feBlend mode="normal" in2="effect1_dropShadow_3_68" result="effect2_dropShadow_3_68"/>
            <feBlend mode="normal" in="SourceGraphic" in2="effect2_dropShadow_3_68" result="shape"/>
        </filter>
        <filter id="filter4_dd_3_68" x="23.5703" y="20.0508" width="16.8571" height="19.7143" filterUnits="userSpaceOnUse" color-interpolation-filters="sRGB">
            <feFlood flood-opacity="0" result="BackgroundImageFix"/>
            <feColorMatrix in="SourceAlpha" type="matrix" values="0 0 0 0 0 0 0 0 0 0 0 0 0 0 0 0 0 0 127 0" result="hardAlpha"/>
            <feOffset dy="1"/>
            <feGaussianBlur stdDeviation="1"/>
            <feColorMatrix type="matrix" values="0 0 0 0 0 0 0 0 0 0 0 0 0 0 0 0 0 0 0.2 0"/>
            <feBlend mode="normal" in2="BackgroundImageFix" result="effect1_dropShadow_3_68"/>
            <feColorMatrix in="SourceAlpha" type="matrix" values="0 0 0 0 0 0 0 0 0 0 0 0 0 0 0 0 0 0 127 0" result="hardAlpha"/>
            <feOffset dy="1"/>
            <feGaussianBlur stdDeviation="0.5"/>
            <feColorMatrix type="matrix" values="0 0 0 0 0 0 0 0 0 0 0 0 0 0 0 0 0 0 0.1 0"/>
            <feBlend mode="normal" in2="effect1_dropShadow_3_68" result="effect2_dropShadow_3_68"/>
            <feBlend mode="normal" in="SourceGraphic" in2="effect2_dropShadow_3_68" result="shape"/>
        </filter>
        <filter id="filter5_dd_3_68" x="23.5703" y="44.3359" width="16.8571" height="19.7143" filterUnits="userSpaceOnUse" color-interpolation-filters="sRGB">
            <feFlood flood-opacity="0" result="BackgroundImageFix"/>
            <feColorMatrix in="SourceAlpha" type="matrix" values="0 0 0 0 0 0 0 0 0 0 0 0 0 0 0 0 0 0 127 0" result="hardAlpha"/>
            <feOffset dy="1"/>
            <feGaussianBlur stdDeviation="1"/>
            <feColorMatrix type="matrix" values="0 0 0 0 0 0 0 0 0 0 0 0 0 0 0 0 0 0 0.2 0"/>
            <feBlend mode="normal" in2="BackgroundImageFix" result="effect1_dropShadow_3_68"/>
            <feColorMatrix in="SourceAlpha" type="matrix" values="0 0 0 0 0 0 0 0 0 0 0 0 0 0 0 0 0 0 127 0" result="hardAlpha"/>
            <feOffset dy="1"/>
            <feGaussianBlur stdDeviation="0.5"/>
            <feColorMatrix type="matrix" values="0 0 0 0 0 0 0 0 0 0 0 0 0 0 0 0 0 0 0.1 0"/>
            <feBlend mode="normal" in2="effect1_dropShadow_3_68" result="effect2_dropShadow_3_68"/>
            <feBlend mode="normal" in="SourceGraphic" in2="effect2_dropShadow_3_68" result="shape"/>
        </filter>
        <filter id="filter6_dd_3_68" x="10" y="33.623" width="19.7143" height="16.8571" filterUnits="userSpaceOnUse" color-interpolation-filters="sRGB">
            <feFlood flood-opacity="0" result="BackgroundImageFix"/>
            <feColorMatrix in="SourceAlpha" type="matrix" values="0 0 0 0 0 0 0 0 0 0 0 0 0 0 0 0 0 0 127 0" result="hardAlpha"/>
            <feOffset dy="1"/>
            <feGaussianBlur stdDeviation="1"/>
            <feColorMatrix type="matrix" values="0 0 0 0 0 0 0 0 0 0 0 0 0 0 0 0 0 0 0.2 0"/>
            <feBlend mode="normal" in2="BackgroundImageFix" result="effect1_dropShadow_3_68"/>
            <feColorMatrix in="SourceAlpha" type="matrix" values="0 0 0 0 0 0 0 0 0 0 0 0 0 0 0 0 0 0 127 0" result="hardAlpha"/>
            <feOffset dy="1"/>
            <feGaussianBlur stdDeviation="0.5"/>
            <feColorMatrix type="matrix" values="0 0 0 0 0 0 0 0 0 0 0 0 0 0 0 0 0 0 0.1 0"/>
            <feBlend mode="normal" in2="effect1_dropShadow_3_68" result="effect2_dropShadow_3_68"/>
            <feBlend mode="normal" in="SourceGraphic" in2="effect2_dropShadow_3_68" result="shape"/>
        </filter>
        <filter id="filter7_dd_3_68" x="34.2852" y="33.6211" width="19.7143" height="16.8571" filterUnits="userSpaceOnUse" color-interpolation-filters="sRGB">
            <feFlood flood-opacity="0" result="BackgroundImageFix"/>
            <feColorMatrix in="SourceAlpha" type="matrix" values="0 0 0 0 0 0 0 0 0 0 0 0 0 0 0 0 0 0 127 0" result="hardAlpha"/>
            <feOffset dy="1"/>
            <feGaussianBlur stdDeviation="1"/>
            <feColorMatrix type="matrix" values="0 0 0 0 0 0 0 0 0 0 0 0 0 0 0 0 0 0 0.2 0"/>
            <feBlend mode="normal" in2="BackgroundImageFix" result="effect1_dropShadow_3_68"/>
            <feColorMatrix in="SourceAlpha" type="matrix" values="0 0 0 0 0 0 0 0 0 0 0 0 0 0 0 0 0 0 127 0" result="hardAlpha"/>
            <feOffset dy="1"/>
            <feGaussianBlur stdDeviation="0.5"/>
            <feColorMatrix type="matrix" values="0 0 0 0 0 0 0 0 0 0 0 0 0 0 0 0 0 0 0.1 0"/>
            <feBlend mode="normal" in2="effect1_dropShadow_3_68" result="effect2_dropShadow_3_68"/>
            <feBlend mode="normal" in="SourceGraphic" in2="effect2_dropShadow_3_68" result="shape"/>
        </filter>
        <filter id="filter8_d_3_68" x="8.20763" y="0.402542" width="46.3898" height="23.3898" filterUnits="userSpaceOnUse" color-interpolation-filters="sRGB">
            <feFlood flood-opacity="0" result="BackgroundImageFix"/>
            <feColorMatrix in="SourceAlpha" type="matrix" values="0 0 0 0 0 0 0 0 0 0 0 0 0 0 0 0 0 0 127 0" result="hardAlpha"/>
            <feOffset dx="-0.597458" dy="0.597458"/>
            <feGaussianBlur stdDeviation="0.597458"/>
            <feComposite in2="hardAlpha" operator="out"/>
            <feColorMatrix type="matrix" values="0 0 0 0 0 0 0 0 0 0 0 0 0 0 0 0 0 0 0.25 0"/>
            <feBlend mode="normal" in2="BackgroundImageFix" result="effect1_dropShadow_3_68"/>
            <feBlend mode="normal" in="SourceGraphic" in2="effect1_dropShadow_3_68" result="shape"/>
        </filter>
        <linearGradient id="paint0_linear_3_68" x1="32" y1="9.05078" x2="32" y2="73.0508" gradientUnits="userSpaceOnUse">
            <stop stop-color="#D5F2FF"/>
            <stop offset="1" stop-color="#64ABFF"/>
        </linearGradient>
        <linearGradient id="paint1_linear_3_68" x1="24.0707" y1="26.2852" x2="24.0707" y2="39.9577" gradientUnits="userSpaceOnUse">
            <stop stop-color="#0A50A3"/>
            <stop offset="1" stop-color="#4E99F0"/>
        </linearGradient>
        <linearGradient id="paint2_linear_3_68" x1="39.93" y1="42.1445" x2="39.93" y2="55.8171" gradientUnits="userSpaceOnUse">
            <stop stop-color="#0A50A3"/>
            <stop offset="1" stop-color="#4E99F0"/>
        </linearGradient>
        <linearGradient id="paint3_linear_3_68" x1="24.0707" y1="42.1445" x2="24.0707" y2="55.8171" gradientUnits="userSpaceOnUse">
            <stop stop-color="#0A50A3"/>
            <stop offset="1" stop-color="#4E99F0"/>
        </linearGradient>
        <linearGradient id="paint4_linear_3_68" x1="39.93" y1="26.2852" x2="39.93" y2="39.9577" gradientUnits="userSpaceOnUse">
            <stop stop-color="#FCF087"/>
            <stop offset="1" stop-color="#F0A64E"/>
        </linearGradient>
        <linearGradient id="paint5_linear_3_68" x1="18.5042" y1="4.675" x2="58.215" y2="14.4568" gradientUnits="userSpaceOnUse">
            <stop stop-color="#EF5944"/>
            <stop offset="1" stop-color="#FF998B"/>
        </linearGradient>
        <clipPath id="clip0_3_68">
            <rect y="9.05078" width="64" height="64" rx="12" fill="white"/>
        </clipPath>
    </defs>
</svg>
