<svg width="49" height="41" viewBox="0 0 49 41" fill="none" xmlns="http://www.w3.org/2000/svg">
<path d="M17.1531 28.2561H0.75L3.77163 33.0639L0.75 37.8717H8.95156H17.1531V28.2561Z" fill="url(#paint0_linear_1641_51488)"/>
<path d="M31.8586 28.2561H48.2617L45.2401 33.0639L48.2617 37.8717H40.0602H31.8586V28.2561Z" fill="url(#paint1_linear_1641_51488)"/>
<path fill-rule="evenodd" clip-rule="evenodd" d="M24.505 40.1263C19.6433 39.8495 11.154 32.6661 8.10352 26.8424V4.21738C10.2464 3.1925 16.4963 1.15471 24.505 1.10729V1.10645C24.5525 1.10645 24.5999 1.10652 24.6472 1.10666C24.6946 1.10652 24.742 1.10645 24.7894 1.10645V1.10729C32.7982 1.15471 39.048 3.1925 41.1909 4.21738V26.8424C38.1404 32.6661 29.6511 39.8495 24.7894 40.1263V40.1345C24.7424 40.1345 24.695 40.1338 24.6472 40.1324C24.5994 40.1338 24.552 40.1345 24.505 40.1345V40.1263Z" fill="#003A6D"/>
<path d="M8.10352 26.8424H7.25508V27.0511L7.35194 27.236L8.10352 26.8424ZM24.505 40.1263H25.3534V39.3248L24.5532 39.2792L24.505 40.1263ZM8.10352 4.21738L7.73745 3.45198L7.25508 3.68268V4.21738H8.10352ZM24.505 1.10729L24.51 1.95571L25.3534 1.95072V1.10729H24.505ZM24.505 1.10645V0.258008H23.6566V1.10645H24.505ZM24.6472 1.10666L24.6447 1.9551L24.6497 1.95509L24.6472 1.10666ZM24.7894 1.10645H25.6379V0.258008H24.7894V1.10645ZM24.7894 1.10729H23.941V1.95072L24.7844 1.95571L24.7894 1.10729ZM41.1909 4.21738H42.0394V3.68268L41.557 3.45198L41.1909 4.21738ZM41.1909 26.8424L41.9425 27.236L42.0394 27.0511V26.8424H41.1909ZM24.7894 40.1263L24.7412 39.2792L23.941 39.3248V40.1263H24.7894ZM24.7894 40.1345V40.983H25.6379V40.1345H24.7894ZM24.6472 40.1324L24.6721 39.2844L24.6472 39.2836L24.6224 39.2844L24.6472 40.1324ZM24.505 40.1345H23.6566V40.983H24.505V40.1345ZM7.35194 27.236C8.94609 30.2794 11.9189 33.6153 15.0862 36.2198C16.6758 37.5269 18.336 38.6678 19.9252 39.5038C21.5015 40.3329 23.0683 40.8943 24.4568 40.9734L24.5532 39.2792C23.5109 39.2199 22.1934 38.7796 20.7152 38.002C19.25 37.2313 17.6857 36.1605 16.1639 34.9091C13.1086 32.3967 10.3115 29.2291 8.85509 26.4487L7.35194 27.236ZM7.25508 4.21738V26.8424H8.95195V4.21738H7.25508ZM24.5 0.258866C16.3692 0.307015 9.99578 2.37191 7.73745 3.45198L8.46958 4.98278C10.4971 4.0131 16.6233 2.00241 24.51 1.95571L24.5 0.258866ZM25.3534 1.10729V1.10645H23.6566V1.10729H25.3534ZM24.505 1.95488C24.5516 1.95488 24.5982 1.95495 24.6447 1.95509L24.6497 0.258223C24.6015 0.25808 24.5533 0.258008 24.505 0.258008V1.95488ZM24.7894 0.258008C24.7411 0.258008 24.6929 0.25808 24.6447 0.258223L24.6497 1.95509C24.6962 1.95495 24.7428 1.95488 24.7894 1.95488V0.258008ZM25.6379 1.10729V1.10645H23.941V1.10729H25.6379ZM24.7844 1.95571C32.6711 2.00241 38.7973 4.0131 40.8249 4.98278L41.557 3.45198C39.2986 2.37191 32.9252 0.307015 24.7945 0.258866L24.7844 1.95571ZM40.3425 4.21738V26.8424H42.0394V4.21738H40.3425ZM40.4393 26.4487C38.983 29.2291 36.1859 32.3967 33.1305 34.9091C31.6087 36.1605 30.0444 37.2313 28.5792 38.002C27.1011 38.7796 25.7835 39.2199 24.7412 39.2792L24.8377 40.9734C26.2262 40.8943 27.7929 40.3329 29.3692 39.5038C30.9584 38.6678 32.6187 37.5269 34.2082 36.2198C37.3755 33.6153 40.3483 30.2794 41.9425 27.236L40.4393 26.4487ZM25.6379 40.1345V40.1263H23.941V40.1345H25.6379ZM24.6224 40.9805C24.6783 40.9821 24.734 40.983 24.7894 40.983V39.2861C24.7508 39.2861 24.7117 39.2855 24.6721 39.2844L24.6224 40.9805ZM24.6224 39.2844C24.5827 39.2855 24.5436 39.2861 24.505 39.2861V40.983C24.5605 40.983 24.6162 40.9821 24.6721 40.9805L24.6224 39.2844ZM25.3534 40.1345V40.1263H23.6566V40.1345H25.3534Z" fill="#52BEE7"/>
<path d="M24.6076 9.00158C25.1945 9.00158 25.6703 8.5258 25.6703 7.9389C25.6703 7.352 25.1945 6.87622 24.6076 6.87622C24.0207 6.87622 23.5449 7.352 23.5449 7.9389C23.5449 8.5258 24.0207 9.00158 24.6076 9.00158Z" fill="#0A50A3"/>
<path d="M24.6076 23.0524C25.1945 23.0524 25.6703 22.5766 25.6703 21.9897C25.6703 21.4028 25.1945 20.927 24.6076 20.927C24.0207 20.927 23.5449 21.4028 23.5449 21.9897C23.5449 22.5766 24.0207 23.0524 24.6076 23.0524Z" fill="#0A50A3"/>
<path d="M28.804 11.636H20.7754V14.1751H28.804V11.636Z" fill="#52BEE7"/>
<path d="M28.804 15.6477H20.7754V18.1868H28.804V15.6477Z" fill="white"/>
<path d="M17.4052 15.6126C17.4151 15.583 17.4249 15.5535 17.4335 15.5239C17.4459 15.4833 17.4557 15.4414 17.4655 15.3996C17.4692 15.3836 17.4729 15.3663 17.4766 15.3503C17.4877 15.2961 17.4951 15.2407 17.5013 15.1853C17.5025 15.173 17.5037 15.1607 17.505 15.1484C17.5099 15.088 17.5136 15.0277 17.5148 14.9661C17.5148 14.9046 17.5111 14.843 17.505 14.7839C17.5037 14.7716 17.5025 14.7593 17.5013 14.7469C17.4951 14.6915 17.4865 14.6361 17.4754 14.5819C17.4717 14.5659 17.468 14.5499 17.4643 14.5327C17.4545 14.4896 17.4434 14.4477 17.4311 14.4058C17.4225 14.3775 17.4138 14.3492 17.404 14.3209C17.3941 14.2926 17.3843 14.2655 17.3732 14.2384C17.0801 13.4909 16.3548 12.9602 15.5052 12.9602C14.3982 12.9602 13.498 13.8603 13.498 14.9674C13.498 16.0744 14.3982 16.9745 15.5052 16.9745C16.3548 16.9745 17.0814 16.4425 17.3744 15.6951C17.3867 15.6655 17.3966 15.6397 17.4052 15.6126Z" fill="#52BEE7"/>
<path d="M20.7629 9.00158H24.606C24.0199 9.00158 23.5433 8.52627 23.5433 7.9389C23.5433 7.35277 24.0186 6.87622 24.606 6.87622H20.7629C18.5168 6.87622 16.6895 8.70359 16.6895 10.9496V12.2574C17.7312 12.7154 18.4602 13.7559 18.4602 14.9639C18.4602 16.1719 17.7312 17.2124 16.6895 17.6705V18.9782C16.6895 21.2243 18.5168 23.0516 20.7629 23.0516H24.606C24.0199 23.0516 23.5433 22.5763 23.5433 21.9889C23.5433 21.4028 24.0186 20.9263 24.606 20.9263H20.7629C19.6879 20.9263 18.8148 20.052 18.8148 18.9782V10.9496C18.8148 9.87463 19.6879 9.00158 20.7629 9.00158Z" fill="#52BEE7"/>
<path d="M34.0677 12.9583C33.218 12.9583 32.4915 13.4902 32.1985 14.2389C32.1874 14.266 32.1775 14.2943 32.1677 14.3226C32.1591 14.3485 32.1504 14.3731 32.1431 14.399C32.1295 14.4445 32.1184 14.4901 32.1073 14.5369C32.1036 14.5504 32.1012 14.5652 32.0987 14.5788C32.0876 14.6354 32.079 14.692 32.0729 14.7499C32.0716 14.7585 32.0716 14.7672 32.0704 14.777C32.0642 14.8398 32.0605 14.9026 32.0605 14.9654C32.0605 15.0294 32.0642 15.0922 32.0704 15.1538C32.0716 15.1624 32.0716 15.1723 32.0729 15.1809C32.079 15.2388 32.0876 15.2954 32.0987 15.3521C32.1012 15.3668 32.1049 15.3804 32.1086 15.3952C32.1184 15.4407 32.1307 15.4863 32.1443 15.5318C32.1517 15.5589 32.1615 15.5848 32.1701 15.6106C32.18 15.6377 32.1898 15.6648 32.1997 15.6919C32.4915 16.4406 33.218 16.9726 34.0689 16.9726C35.1759 16.9726 36.0761 16.0724 36.0761 14.9654C36.0748 13.8584 35.1747 12.9583 34.0677 12.9583Z" fill="white"/>
<path d="M31.112 14.9639C31.112 13.7584 31.8373 12.7216 32.8741 12.261V10.9496C32.8741 8.70359 31.0467 6.87622 28.8007 6.87622H24.6152C25.2014 6.87622 25.6779 7.35153 25.6779 7.9389C25.6779 8.52504 25.2026 9.00158 24.6152 9.00158H28.8007C29.8757 9.00158 30.7487 9.87586 30.7487 10.9496V18.9795C30.7487 20.0544 29.8745 20.9275 28.8007 20.9275H24.6152C25.2014 20.9275 25.6779 21.4028 25.6779 21.9902C25.6779 22.5763 25.2026 23.0528 24.6152 23.0528H28.8007C31.0467 23.0528 32.8741 21.2255 32.8741 18.9795V17.6668C31.8373 17.2063 31.112 16.1694 31.112 14.9639Z" fill="white"/>
<path d="M43.1734 25.7112H6.125V35.6096H24.6492H43.1734V25.7112Z" fill="#4BA589"/>
<path d="M10.9468 33.3535L9.29745 29.2153H10.2374L11.1005 31.4559C11.1478 31.578 11.1872 31.6864 11.2187 31.781C11.2542 31.8717 11.2838 31.9584 11.3074 32.0411C11.335 32.1199 11.3606 32.1988 11.3843 32.2776C11.4079 32.3525 11.4316 32.4352 11.4552 32.5259L11.2838 32.5318C11.3153 32.4096 11.3468 32.2973 11.3784 32.1948C11.4099 32.0884 11.4454 31.9781 11.4848 31.8638C11.5242 31.7495 11.5735 31.6135 11.6326 31.4559L12.4484 29.2153H13.3824L11.7212 33.3535H10.9468ZM13.9848 33.3535V29.2153H16.781V29.9957H14.8479V32.5732H16.8224V33.3535H13.9848ZM14.3986 31.6214V30.8647H16.4972V31.6214H14.3986ZM17.7373 33.3535V29.2153H19.5699C19.8261 29.2153 20.0586 29.2745 20.2675 29.3927C20.4764 29.507 20.6399 29.6627 20.7582 29.8597C20.8804 30.0568 20.9414 30.2814 20.9414 30.5336C20.9414 30.7819 20.8804 31.0085 20.7582 31.2135C20.6399 31.4145 20.4764 31.5741 20.2675 31.6923C20.0586 31.8106 19.8261 31.8697 19.5699 31.8697H18.5945V33.3535H17.7373ZM20.0843 33.3535L19.032 31.4854L19.9424 31.3376L21.1129 33.3594L20.0843 33.3535ZM18.5945 31.1485H19.5286C19.635 31.1485 19.7276 31.1248 19.8064 31.0775C19.8892 31.0263 19.9522 30.9573 19.9956 30.8706C20.0389 30.78 20.0606 30.6795 20.0606 30.5691C20.0606 30.4509 20.035 30.3484 19.9838 30.2617C19.9325 30.175 19.8576 30.108 19.7591 30.0607C19.6606 30.0095 19.5463 29.9839 19.4162 29.9839H18.5945V31.1485ZM21.7702 33.3535V32.5909H22.4619V29.9779H21.7702V29.2153H24.0403V29.9779H23.3487V32.5909H24.0403V33.3535H21.7702ZM25.0115 33.3535V29.2153H25.8982V33.3535H25.0115ZM25.4194 31.7101V30.9475H27.5594V31.7101H25.4194ZM25.4194 30.0134V29.2153H27.8077V30.0134H25.4194ZM28.5306 33.3535V32.5909H29.2222V29.9779H28.5306V29.2153H30.8007V29.9779H30.109V32.5909H30.8007V33.3535H28.5306ZM31.7718 33.3535V29.2153H34.568V29.9957H32.6349V32.5732H34.6094V33.3535H31.7718ZM32.1856 31.6214V30.8647H34.2843V31.6214H32.1856ZM35.5243 33.3535V29.2153H37.221C37.5245 29.2153 37.7984 29.2666 38.0427 29.369C38.291 29.4676 38.5038 29.6094 38.6812 29.7947C38.8625 29.976 39.0004 30.1927 39.095 30.445C39.1896 30.6972 39.2369 30.977 39.2369 31.2844C39.2369 31.5879 39.1896 31.8677 39.095 32.1239C39.0004 32.3761 38.8644 32.5948 38.6871 32.7801C38.5097 32.9614 38.2969 33.1033 38.0486 33.2057C37.8003 33.3043 37.5245 33.3535 37.221 33.3535H35.5243ZM36.4111 32.7091L36.3165 32.5554H37.1914C37.3688 32.5554 37.5284 32.5259 37.6703 32.4668C37.8122 32.4037 37.9324 32.319 38.0309 32.2126C38.1334 32.1022 38.2102 31.9682 38.2614 31.8106C38.3127 31.6529 38.3383 31.4775 38.3383 31.2844C38.3383 31.0913 38.3127 30.9179 38.2614 30.7642C38.2102 30.6066 38.1334 30.4726 38.0309 30.3622C37.9324 30.2518 37.8122 30.1671 37.6703 30.108C37.5284 30.0449 37.3688 30.0134 37.1914 30.0134H36.2988L36.4111 29.8715V32.7091Z" fill="white"/>
<defs>
<linearGradient id="paint0_linear_1641_51488" x1="4.70937" y1="28.2561" x2="16.0219" y2="28.2561" gradientUnits="userSpaceOnUse">
<stop stop-color="#4BA589"/>
<stop offset="1" stop-color="#1D3F34"/>
</linearGradient>
<linearGradient id="paint1_linear_1641_51488" x1="45.4336" y1="37.8717" x2="31.293" y2="37.8717" gradientUnits="userSpaceOnUse">
<stop stop-color="#4BA589"/>
<stop offset="1" stop-color="#1D3F34"/>
</linearGradient>
</defs>
</svg>
