<svg width="80" height="81" viewBox="0 0 80 81" fill="none" xmlns="http://www.w3.org/2000/svg">
    <g id="Chat" filter="url(#filter0_d_7795_44897)">
        <g id="Gradient">
            <path d="M8 16.2257C8 9.55671 13.3726 4.15039 20 4.15039H60C66.6274 4.15039 72 9.55671 72 16.2257V56.4769C72 63.146 66.6274 68.5523 60 68.5523H20C13.3726 68.5523 8 63.146 8 56.4769V16.2257Z" fill="url(#paint0_linear_7795_44897)"/>
            <path d="M8 16.2257C8 9.55671 13.3726 4.15039 20 4.15039H60C66.6274 4.15039 72 9.55671 72 16.2257V56.4769C72 63.146 66.6274 68.5523 60 68.5523H20C13.3726 68.5523 8 63.146 8 56.4769V16.2257Z" stroke="white"/>
        </g>
        <g id="Group 48095814">
            <path id="Rectangle 10888" d="M21.2031 25.385C21.2031 22.9514 23.176 20.9785 25.6096 20.9785H30.7207V34.9761H25.6096C23.176 34.9761 21.2031 33.0033 21.2031 30.5696V25.385Z" fill="url(#paint1_linear_7795_44897)"/>
            <path id="Rectangle 10889" d="M57.5508 25.385C57.5508 22.9514 55.5779 20.9785 53.1443 20.9785H45.8369V34.9761H53.1443C55.5779 34.9761 57.5508 33.0033 57.5508 30.5696V25.385Z" fill="url(#paint2_linear_7795_44897)"/>
            <g id="Group 48095801">
                <g id="Ellipse 1816" filter="url(#filter1_dd_7795_44897)">
                    <ellipse cx="39.3712" cy="26.8722" rx="13.9103" ry="13.2609" fill="#1D2F7D"/>
                </g>
                <g id="Ellipse 1815" filter="url(#filter2_dd_7795_44897)">
                    <ellipse cx="39.4611" cy="28.3842" rx="13.2697" ry="13.353" fill="white"/>
                </g>
                <g id="Rectangle 10868" filter="url(#filter3_dd_7795_44897)">
                    <path d="M20.6484 57.3649C20.6484 56.0595 20.8573 54.7555 21.4924 53.6149C23.3194 50.3339 28.4106 43.6582 39.5938 43.6582C50.7769 43.6582 55.8681 50.3339 57.6951 53.6149C58.3302 54.7555 58.5391 56.0595 58.5391 57.3649C58.5391 58.312 57.7713 59.0798 56.8242 59.0798H22.3633C21.4162 59.0798 20.6484 58.312 20.6484 57.3649Z" fill="white"/>
                </g>
                <path id="Vector 1558 (Stroke)" fill-rule="evenodd" clip-rule="evenodd" d="M24.4009 30.9801C24.9827 30.8022 25.5986 31.1296 25.7765 31.7114C26.0551 32.6227 28.4407 35.7206 36.4369 35.7206C37.0453 35.7206 37.5385 36.2138 37.5385 36.8222C37.5385 37.4306 37.0453 37.9238 36.4369 37.9238C28.0336 37.9238 24.3671 34.6369 23.6695 32.3557C23.4916 31.7739 23.8191 31.158 24.4009 30.9801Z" fill="#19296A"/>
            </g>
            <rect id="Rectangle 10890" x="34.9727" y="34.9766" width="6.58907" height="4.4203" rx="2.21015" fill="#19296A"/>
        </g>
        <g id="Vector" filter="url(#filter4_dd_7795_44897)">
            <path fill-rule="evenodd" clip-rule="evenodd" d="M19.875 36.3164C15.5256 36.3164 12 39.8642 12 44.2409C12 48.6175 15.5256 52.1653 19.875 52.1653C24.2244 52.1653 27.75 48.6175 27.75 44.2409C27.75 39.8642 24.2244 36.3164 19.875 36.3164ZM19.875 41.8635C19.6661 41.8635 19.4658 41.947 19.3182 42.0956C19.1705 42.2442 19.0875 42.4458 19.0875 42.656C19.0875 42.8661 19.0045 43.0677 18.8568 43.2163C18.7092 43.3649 18.5089 43.4484 18.3 43.4484C18.0911 43.4484 17.8908 43.3649 17.7432 43.2163C17.5955 43.0677 17.5125 42.8661 17.5125 42.656C17.5127 42.2364 17.6232 41.8243 17.8328 41.4616C18.0425 41.0989 18.3438 40.7985 18.7061 40.5909C19.0685 40.3834 19.479 40.276 19.8959 40.2797C20.3129 40.2834 20.7214 40.3981 21.08 40.6121C21.4387 40.8261 21.7347 41.1318 21.9379 41.4982C22.1411 41.8646 22.2444 42.2785 22.2371 42.6981C22.2299 43.1176 22.1125 43.5277 21.8968 43.8868C21.6811 44.2458 21.3748 44.5411 21.009 44.7425C20.8962 44.8006 20.7942 44.8778 20.7074 44.9707C20.6887 44.9904 20.6736 45.0132 20.6625 45.0381V45.4295C20.6625 45.6397 20.5795 45.8413 20.4318 45.9899C20.2842 46.1385 20.0839 46.222 19.875 46.222C19.6661 46.222 19.4658 46.1385 19.3182 45.9899C19.1705 45.8413 19.0875 45.6397 19.0875 45.4295V45.0333C19.0875 44.5737 19.2867 44.2036 19.512 43.9397C19.7332 43.6782 20.0081 43.4864 20.2522 43.3517C20.4059 43.2674 20.5273 43.134 20.5972 42.9725C20.6671 42.8111 20.6816 42.6308 20.6383 42.4601C20.5951 42.2895 20.4966 42.1382 20.3583 42.0301C20.2201 41.9221 20.05 41.8635 19.875 41.8635ZM20.6617 45.042V45.0388V45.0428V45.042ZM19.875 46.6182C19.6661 46.6182 19.4658 46.7017 19.3182 46.8503C19.1705 46.9989 19.0875 47.2005 19.0875 47.4106C19.0875 47.6208 19.1705 47.8224 19.3182 47.971C19.4658 48.1196 19.6661 48.2031 19.875 48.2031H19.8829C20.0917 48.2031 20.292 48.1196 20.4397 47.971C20.5874 47.8224 20.6704 47.6208 20.6704 47.4106C20.6704 47.2005 20.5874 46.9989 20.4397 46.8503C20.292 46.7017 20.0917 46.6182 19.8829 46.6182H19.875Z" fill="white" fill-opacity="0.95"/>
        </g>
        <g id="Group 48095815">
            <g id="Subtract" filter="url(#filter5_dd_7795_44897)">
                <path fill-rule="evenodd" clip-rule="evenodd" d="M59.5525 23.0391C64.4617 23.0391 68.4414 19.415 68.4414 14.9444C68.4414 10.4738 64.4617 6.84961 59.5525 6.84961C54.6433 6.84961 50.6636 10.4738 50.6636 14.9444C50.6636 16.7018 51.2786 18.3284 52.3233 19.6554L50.6636 24.051L57.5772 22.8385C58.2125 22.9698 58.8736 23.0391 59.5525 23.0391Z" fill="white"/>
            </g>
            <g id="Group 1278">
                <g id="Rectangle 2687" filter="url(#filter6_dd_7795_44897)">
                    <path d="M56.1291 18.5508C55.7514 18.5508 55.4453 18.2427 55.4453 17.8627C55.4453 17.4827 55.7514 17.1747 56.1291 17.1747L58.8641 17.1747C59.2417 17.1747 59.5479 17.4827 59.5479 17.8627C59.5479 18.2427 59.2417 18.5508 58.8641 18.5508L56.1291 18.5508Z" fill="#46A7E2"/>
                </g>
                <g id="Rectangle 2687_2" filter="url(#filter7_dd_7795_44897)">
                    <path d="M56.1291 15.8027C55.7514 15.8027 55.4453 15.4947 55.4453 15.1147C55.4453 14.7347 55.7514 14.4266 56.1291 14.4266L61.5992 14.4266C61.9768 14.4266 62.2829 14.7347 62.2829 15.1147C62.2829 15.4947 61.9768 15.8027 61.5992 15.8027L56.1291 15.8027Z" fill="#46A7E2"/>
                </g>
                <g id="Rectangle 2687_3" filter="url(#filter8_dd_7795_44897)">
                    <path d="M56.1291 13.0488C55.7514 13.0488 55.4453 12.7408 55.4453 12.3608C55.4453 11.9808 55.7514 11.6727 56.1291 11.6727L62.9667 11.6727C63.3443 11.6727 63.6504 11.9808 63.6504 12.3608C63.6504 12.7408 63.3443 13.0488 62.9667 13.0488L56.1291 13.0488Z" fill="#46A7E2"/>
                </g>
            </g>
        </g>
    </g>
    <defs>
        <filter id="filter0_d_7795_44897" x="0" y="0.160977" width="80" height="80.4043" filterUnits="userSpaceOnUse" color-interpolation-filters="sRGB">
            <feFlood flood-opacity="0" result="BackgroundImageFix"/>
            <feColorMatrix in="SourceAlpha" type="matrix" values="0 0 0 0 0 0 0 0 0 0 0 0 0 0 0 0 0 0 127 0" result="hardAlpha"/>
            <feOffset dy="4.01254"/>
            <feGaussianBlur stdDeviation="4"/>
            <feComposite in2="hardAlpha" operator="out"/>
            <feColorMatrix type="matrix" values="0 0 0 0 0 0 0 0 0 0 0 0 0 0 0 0 0 0 0.35 0"/>
            <feBlend mode="normal" in2="BackgroundImageFix" result="effect1_dropShadow_7795_44897"/>
            <feBlend mode="normal" in="SourceGraphic" in2="effect1_dropShadow_7795_44897" result="shape"/>
        </filter>
        <filter id="filter1_dd_7795_44897" x="18.8053" y="11.9474" width="41.1316" height="39.8327" filterUnits="userSpaceOnUse" color-interpolation-filters="sRGB">
            <feFlood flood-opacity="0" result="BackgroundImageFix"/>
            <feColorMatrix in="SourceAlpha" type="matrix" values="0 0 0 0 0 0 0 0 0 0 0 0 0 0 0 0 0 0 127 0" result="hardAlpha"/>
            <feOffset dy="4.99172"/>
            <feGaussianBlur stdDeviation="3.32781"/>
            <feColorMatrix type="matrix" values="0 0 0 0 0 0 0 0 0 0 0 0 0 0 0 0 0 0 0.2 0"/>
            <feBlend mode="normal" in2="BackgroundImageFix" result="effect1_dropShadow_7795_44897"/>
            <feColorMatrix in="SourceAlpha" type="matrix" values="0 0 0 0 0 0 0 0 0 0 0 0 0 0 0 0 0 0 127 0" result="hardAlpha"/>
            <feOffset dy="1.66391"/>
            <feGaussianBlur stdDeviation="1.66391"/>
            <feColorMatrix type="matrix" values="0 0 0 0 0 0 0 0 0 0 0 0 0 0 0 0 0 0 0.1 0"/>
            <feBlend mode="normal" in2="effect1_dropShadow_7795_44897" result="effect2_dropShadow_7795_44897"/>
            <feBlend mode="normal" in="SourceGraphic" in2="effect2_dropShadow_7795_44897" result="shape"/>
        </filter>
        <filter id="filter2_dd_7795_44897" x="19.5358" y="13.3673" width="39.8503" height="40.0163" filterUnits="userSpaceOnUse" color-interpolation-filters="sRGB">
            <feFlood flood-opacity="0" result="BackgroundImageFix"/>
            <feColorMatrix in="SourceAlpha" type="matrix" values="0 0 0 0 0 0 0 0 0 0 0 0 0 0 0 0 0 0 127 0" result="hardAlpha"/>
            <feOffset dy="4.99172"/>
            <feGaussianBlur stdDeviation="3.32781"/>
            <feColorMatrix type="matrix" values="0 0 0 0 0 0 0 0 0 0 0 0 0 0 0 0 0 0 0.2 0"/>
            <feBlend mode="normal" in2="BackgroundImageFix" result="effect1_dropShadow_7795_44897"/>
            <feColorMatrix in="SourceAlpha" type="matrix" values="0 0 0 0 0 0 0 0 0 0 0 0 0 0 0 0 0 0 127 0" result="hardAlpha"/>
            <feOffset dy="1.66391"/>
            <feGaussianBlur stdDeviation="1.66391"/>
            <feColorMatrix type="matrix" values="0 0 0 0 0 0 0 0 0 0 0 0 0 0 0 0 0 0 0.1 0"/>
            <feBlend mode="normal" in2="effect1_dropShadow_7795_44897" result="effect2_dropShadow_7795_44897"/>
            <feBlend mode="normal" in="SourceGraphic" in2="effect2_dropShadow_7795_44897" result="shape"/>
        </filter>
        <filter id="filter3_dd_7795_44897" x="15.4058" y="42.3475" width="48.376" height="25.9072" filterUnits="userSpaceOnUse" color-interpolation-filters="sRGB">
            <feFlood flood-opacity="0" result="BackgroundImageFix"/>
            <feColorMatrix in="SourceAlpha" type="matrix" values="0 0 0 0 0 0 0 0 0 0 0 0 0 0 0 0 0 0 127 0" result="hardAlpha"/>
            <feOffset dy="3.93201"/>
            <feGaussianBlur stdDeviation="2.62134"/>
            <feColorMatrix type="matrix" values="0 0 0 0 0 0 0 0 0 0 0 0 0 0 0 0 0 0 0.2 0"/>
            <feBlend mode="normal" in2="BackgroundImageFix" result="effect1_dropShadow_7795_44897"/>
            <feColorMatrix in="SourceAlpha" type="matrix" values="0 0 0 0 0 0 0 0 0 0 0 0 0 0 0 0 0 0 127 0" result="hardAlpha"/>
            <feOffset dy="1.31067"/>
            <feGaussianBlur stdDeviation="1.31067"/>
            <feColorMatrix type="matrix" values="0 0 0 0 0 0 0 0 0 0 0 0 0 0 0 0 0 0 0.1 0"/>
            <feBlend mode="normal" in2="effect1_dropShadow_7795_44897" result="effect2_dropShadow_7795_44897"/>
            <feBlend mode="normal" in="SourceGraphic" in2="effect2_dropShadow_7795_44897" result="shape"/>
        </filter>
        <filter id="filter4_dd_7795_44897" x="9.99373" y="35.3133" width="19.7625" height="19.8621" filterUnits="userSpaceOnUse" color-interpolation-filters="sRGB">
            <feFlood flood-opacity="0" result="BackgroundImageFix"/>
            <feColorMatrix in="SourceAlpha" type="matrix" values="0 0 0 0 0 0 0 0 0 0 0 0 0 0 0 0 0 0 127 0" result="hardAlpha"/>
            <feOffset dy="1.00313"/>
            <feGaussianBlur stdDeviation="1.00313"/>
            <feColorMatrix type="matrix" values="0 0 0 0 0 0 0 0 0 0 0 0 0 0 0 0 0 0 0.2 0"/>
            <feBlend mode="normal" in2="BackgroundImageFix" result="effect1_dropShadow_7795_44897"/>
            <feColorMatrix in="SourceAlpha" type="matrix" values="0 0 0 0 0 0 0 0 0 0 0 0 0 0 0 0 0 0 127 0" result="hardAlpha"/>
            <feOffset dy="1.00313"/>
            <feGaussianBlur stdDeviation="0.501567"/>
            <feColorMatrix type="matrix" values="0 0 0 0 0 0 0 0 0 0 0 0 0 0 0 0 0 0 0.1 0"/>
            <feBlend mode="normal" in2="effect1_dropShadow_7795_44897" result="effect2_dropShadow_7795_44897"/>
            <feBlend mode="normal" in="SourceGraphic" in2="effect2_dropShadow_7795_44897" result="shape"/>
        </filter>
        <filter id="filter5_dd_7795_44897" x="47.9204" y="6.16371" width="23.2646" height="22.6884" filterUnits="userSpaceOnUse" color-interpolation-filters="sRGB">
            <feFlood flood-opacity="0" result="BackgroundImageFix"/>
            <feColorMatrix in="SourceAlpha" type="matrix" values="0 0 0 0 0 0 0 0 0 0 0 0 0 0 0 0 0 0 127 0" result="hardAlpha"/>
            <feOffset dy="2.05771"/>
            <feGaussianBlur stdDeviation="1.37181"/>
            <feColorMatrix type="matrix" values="0 0 0 0 0 0 0 0 0 0 0 0 0 0 0 0 0 0 0.2 0"/>
            <feBlend mode="normal" in2="BackgroundImageFix" result="effect1_dropShadow_7795_44897"/>
            <feColorMatrix in="SourceAlpha" type="matrix" values="0 0 0 0 0 0 0 0 0 0 0 0 0 0 0 0 0 0 127 0" result="hardAlpha"/>
            <feOffset dy="0.685904"/>
            <feGaussianBlur stdDeviation="0.685904"/>
            <feColorMatrix type="matrix" values="0 0 0 0 0 0 0 0 0 0 0 0 0 0 0 0 0 0 0.1 0"/>
            <feBlend mode="normal" in2="effect1_dropShadow_7795_44897" result="effect2_dropShadow_7795_44897"/>
            <feBlend mode="normal" in="SourceGraphic" in2="effect2_dropShadow_7795_44897" result="shape"/>
        </filter>
        <filter id="filter6_dd_7795_44897" x="54.0735" y="16.4879" width="6.84518" height="4.12057" filterUnits="userSpaceOnUse" color-interpolation-filters="sRGB">
            <feFlood flood-opacity="0" result="BackgroundImageFix"/>
            <feColorMatrix in="SourceAlpha" type="matrix" values="0 0 0 0 0 0 0 0 0 0 0 0 0 0 0 0 0 0 127 0" result="hardAlpha"/>
            <feOffset dy="0.685904"/>
            <feGaussianBlur stdDeviation="0.685904"/>
            <feColorMatrix type="matrix" values="0 0 0 0 0 0 0 0 0 0 0 0 0 0 0 0 0 0 0.2 0"/>
            <feBlend mode="normal" in2="BackgroundImageFix" result="effect1_dropShadow_7795_44897"/>
            <feColorMatrix in="SourceAlpha" type="matrix" values="0 0 0 0 0 0 0 0 0 0 0 0 0 0 0 0 0 0 127 0" result="hardAlpha"/>
            <feOffset dy="0.685904"/>
            <feGaussianBlur stdDeviation="0.342952"/>
            <feColorMatrix type="matrix" values="0 0 0 0 0 0 0 0 0 0 0 0 0 0 0 0 0 0 0.1 0"/>
            <feBlend mode="normal" in2="effect1_dropShadow_7795_44897" result="effect2_dropShadow_7795_44897"/>
            <feBlend mode="normal" in="SourceGraphic" in2="effect2_dropShadow_7795_44897" result="shape"/>
        </filter>
        <filter id="filter7_dd_7795_44897" x="54.0735" y="13.7399" width="9.57955" height="4.12057" filterUnits="userSpaceOnUse" color-interpolation-filters="sRGB">
            <feFlood flood-opacity="0" result="BackgroundImageFix"/>
            <feColorMatrix in="SourceAlpha" type="matrix" values="0 0 0 0 0 0 0 0 0 0 0 0 0 0 0 0 0 0 127 0" result="hardAlpha"/>
            <feOffset dy="0.685904"/>
            <feGaussianBlur stdDeviation="0.685904"/>
            <feColorMatrix type="matrix" values="0 0 0 0 0 0 0 0 0 0 0 0 0 0 0 0 0 0 0.2 0"/>
            <feBlend mode="normal" in2="BackgroundImageFix" result="effect1_dropShadow_7795_44897"/>
            <feColorMatrix in="SourceAlpha" type="matrix" values="0 0 0 0 0 0 0 0 0 0 0 0 0 0 0 0 0 0 127 0" result="hardAlpha"/>
            <feOffset dy="0.685904"/>
            <feGaussianBlur stdDeviation="0.342952"/>
            <feColorMatrix type="matrix" values="0 0 0 0 0 0 0 0 0 0 0 0 0 0 0 0 0 0 0.1 0"/>
            <feBlend mode="normal" in2="effect1_dropShadow_7795_44897" result="effect2_dropShadow_7795_44897"/>
            <feBlend mode="normal" in="SourceGraphic" in2="effect2_dropShadow_7795_44897" result="shape"/>
        </filter>
        <filter id="filter8_dd_7795_44897" x="54.0735" y="10.986" width="10.9506" height="4.12057" filterUnits="userSpaceOnUse" color-interpolation-filters="sRGB">
            <feFlood flood-opacity="0" result="BackgroundImageFix"/>
            <feColorMatrix in="SourceAlpha" type="matrix" values="0 0 0 0 0 0 0 0 0 0 0 0 0 0 0 0 0 0 127 0" result="hardAlpha"/>
            <feOffset dy="0.685904"/>
            <feGaussianBlur stdDeviation="0.685904"/>
            <feColorMatrix type="matrix" values="0 0 0 0 0 0 0 0 0 0 0 0 0 0 0 0 0 0 0.2 0"/>
            <feBlend mode="normal" in2="BackgroundImageFix" result="effect1_dropShadow_7795_44897"/>
            <feColorMatrix in="SourceAlpha" type="matrix" values="0 0 0 0 0 0 0 0 0 0 0 0 0 0 0 0 0 0 127 0" result="hardAlpha"/>
            <feOffset dy="0.685904"/>
            <feGaussianBlur stdDeviation="0.342952"/>
            <feColorMatrix type="matrix" values="0 0 0 0 0 0 0 0 0 0 0 0 0 0 0 0 0 0 0.1 0"/>
            <feBlend mode="normal" in2="effect1_dropShadow_7795_44897" result="effect2_dropShadow_7795_44897"/>
            <feBlend mode="normal" in="SourceGraphic" in2="effect2_dropShadow_7795_44897" result="shape"/>
        </filter>
        <linearGradient id="paint0_linear_7795_44897" x1="40" y1="86.7771" x2="40" y2="25.0586" gradientUnits="userSpaceOnUse">
            <stop stop-color="#1C2E7F"/>
            <stop offset="1" stop-color="#96DFFB"/>
        </linearGradient>
        <linearGradient id="paint1_linear_7795_44897" x1="25.9619" y1="20.9785" x2="25.9619" y2="34.9761" gradientUnits="userSpaceOnUse">
            <stop stop-color="#8292D8"/>
            <stop offset="0.505208" stop-color="#1C2E7F"/>
        </linearGradient>
        <linearGradient id="paint2_linear_7795_44897" x1="51.6938" y1="20.9785" x2="51.6938" y2="34.9761" gradientUnits="userSpaceOnUse">
            <stop stop-color="#8292D8"/>
            <stop offset="0.505208" stop-color="#1C2E7F"/>
        </linearGradient>
    </defs>
</svg>
