<svg width="25" height="25" viewBox="0 0 25 25" fill="none" xmlns="http://www.w3.org/2000/svg">
    <path d="M0.121094 4.55078C0.121094 2.0655 2.13581 0.0507812 4.62109 0.0507812H19.6211C22.1064 0.0507812 24.1211 2.0655 24.1211 4.55078V19.5508C24.1211 22.0361 22.1064 24.0508 19.6211 24.0508H4.62109C2.13581 24.0508 0.121094 22.0361 0.121094 19.5508V4.55078Z" fill="#7CCCEC"/>
    <g filter="url(#filter0_dd_8222_34811)">
        <path fill-rule="evenodd" clip-rule="evenodd" d="M19.1818 7.61512C19.7675 8.20091 19.7675 9.15066 19.1818 9.73644L12.4318 16.4864C11.846 17.0722 10.8962 17.0722 10.3104 16.4864C9.72465 15.9007 9.72465 14.9509 10.3104 14.3651L17.0604 7.61512C17.6462 7.02933 18.596 7.02933 19.1818 7.61512Z" fill="white" fill-opacity="0.8"/>
    </g>
    <g filter="url(#filter1_dd_8222_34811)">
        <path fill-rule="evenodd" clip-rule="evenodd" d="M5.81043 9.86512C6.39622 9.27933 7.34597 9.27933 7.93175 9.86512L12.4318 14.3651C13.0175 14.9509 13.0175 15.9007 12.4318 16.4864C11.846 17.0722 10.8962 17.0722 10.3104 16.4864L5.81043 11.9864C5.22465 11.4007 5.22465 10.4509 5.81043 9.86512Z" fill="white" fill-opacity="0.8"/>
    </g>
    <g filter="url(#filter2_dd_8222_34811)">
        <path fill-rule="evenodd" clip-rule="evenodd" d="M19.1818 7.61512C19.7675 8.20091 19.7675 9.15066 19.1818 9.73644L12.4318 16.4864C11.846 17.0722 10.8962 17.0722 10.3104 16.4864C9.72465 15.9007 9.72465 14.9509 10.3104 14.3651L17.0604 7.61512C17.6462 7.02933 18.596 7.02933 19.1818 7.61512Z" fill="white" fill-opacity="0.8"/>
    </g>
    <defs>
        <filter id="filter0_dd_8222_34811" x="5.87109" y="6.17578" width="17.75" height="17.75" filterUnits="userSpaceOnUse" color-interpolation-filters="sRGB">
            <feFlood flood-opacity="0" result="BackgroundImageFix"/>
            <feColorMatrix in="SourceAlpha" type="matrix" values="0 0 0 0 0 0 0 0 0 0 0 0 0 0 0 0 0 0 127 0" result="hardAlpha"/>
            <feOffset dy="3"/>
            <feGaussianBlur stdDeviation="2"/>
            <feColorMatrix type="matrix" values="0 0 0 0 0 0 0 0 0 0 0 0 0 0 0 0 0 0 0.2 0"/>
            <feBlend mode="normal" in2="BackgroundImageFix" result="effect1_dropShadow_8222_34811"/>
            <feColorMatrix in="SourceAlpha" type="matrix" values="0 0 0 0 0 0 0 0 0 0 0 0 0 0 0 0 0 0 127 0" result="hardAlpha"/>
            <feOffset dy="1"/>
            <feGaussianBlur stdDeviation="1"/>
            <feColorMatrix type="matrix" values="0 0 0 0 0 0 0 0 0 0 0 0 0 0 0 0 0 0 0.1 0"/>
            <feBlend mode="normal" in2="effect1_dropShadow_8222_34811" result="effect2_dropShadow_8222_34811"/>
            <feBlend mode="normal" in="SourceGraphic" in2="effect2_dropShadow_8222_34811" result="shape"/>
        </filter>
        <filter id="filter1_dd_8222_34811" x="1.37109" y="8.42578" width="15.5" height="15.5" filterUnits="userSpaceOnUse" color-interpolation-filters="sRGB">
            <feFlood flood-opacity="0" result="BackgroundImageFix"/>
            <feColorMatrix in="SourceAlpha" type="matrix" values="0 0 0 0 0 0 0 0 0 0 0 0 0 0 0 0 0 0 127 0" result="hardAlpha"/>
            <feOffset dy="3"/>
            <feGaussianBlur stdDeviation="2"/>
            <feColorMatrix type="matrix" values="0 0 0 0 0 0 0 0 0 0 0 0 0 0 0 0 0 0 0.2 0"/>
            <feBlend mode="normal" in2="BackgroundImageFix" result="effect1_dropShadow_8222_34811"/>
            <feColorMatrix in="SourceAlpha" type="matrix" values="0 0 0 0 0 0 0 0 0 0 0 0 0 0 0 0 0 0 127 0" result="hardAlpha"/>
            <feOffset dy="1"/>
            <feGaussianBlur stdDeviation="1"/>
            <feColorMatrix type="matrix" values="0 0 0 0 0 0 0 0 0 0 0 0 0 0 0 0 0 0 0.1 0"/>
            <feBlend mode="normal" in2="effect1_dropShadow_8222_34811" result="effect2_dropShadow_8222_34811"/>
            <feBlend mode="normal" in="SourceGraphic" in2="effect2_dropShadow_8222_34811" result="shape"/>
        </filter>
        <filter id="filter2_dd_8222_34811" x="7.87109" y="6.17578" width="13.75" height="13.75" filterUnits="userSpaceOnUse" color-interpolation-filters="sRGB">
            <feFlood flood-opacity="0" result="BackgroundImageFix"/>
            <feColorMatrix in="SourceAlpha" type="matrix" values="0 0 0 0 0 0 0 0 0 0 0 0 0 0 0 0 0 0 127 0" result="hardAlpha"/>
            <feOffset dy="1"/>
            <feGaussianBlur stdDeviation="1"/>
            <feColorMatrix type="matrix" values="0 0 0 0 0 0 0 0 0 0 0 0 0 0 0 0 0 0 0.2 0"/>
            <feBlend mode="normal" in2="BackgroundImageFix" result="effect1_dropShadow_8222_34811"/>
            <feColorMatrix in="SourceAlpha" type="matrix" values="0 0 0 0 0 0 0 0 0 0 0 0 0 0 0 0 0 0 127 0" result="hardAlpha"/>
            <feOffset dy="1"/>
            <feGaussianBlur stdDeviation="0.5"/>
            <feColorMatrix type="matrix" values="0 0 0 0 0 0 0 0 0 0 0 0 0 0 0 0 0 0 0.1 0"/>
            <feBlend mode="normal" in2="effect1_dropShadow_8222_34811" result="effect2_dropShadow_8222_34811"/>
            <feBlend mode="normal" in="SourceGraphic" in2="effect2_dropShadow_8222_34811" result="shape"/>
        </filter>
    </defs>
</svg>
