<svg width="98" height="50" viewBox="0 0 98 50" fill="none" xmlns="http://www.w3.org/2000/svg">
    <g opacity="0.6" clip-path="url(#clip0_7733_41020)">
        <path d="M96.0852 49.2113C97.034 49.2113 97.8031 48.4422 97.8031 47.4934C97.8031 46.5446 97.034 45.7754 96.0852 45.7754C95.1364 45.7754 94.3672 46.5446 94.3672 47.4934C94.3672 48.4422 95.1364 49.2113 96.0852 49.2113Z" fill="#2AD168"/>
        <path d="M80.507 49.2113C81.4559 49.2113 82.225 48.4422 82.225 47.4934C82.225 46.5446 81.4559 45.7754 80.507 45.7754C79.5582 45.7754 78.7891 46.5446 78.7891 47.4934C78.7891 48.4422 79.5582 49.2113 80.507 49.2113Z" fill="#2AD168"/>
        <path d="M64.9328 49.2107C65.2742 49.212 65.6082 49.112 65.8927 48.9232C66.1771 48.7345 66.3992 48.4656 66.5307 48.1506C66.6622 47.8357 66.6973 47.4887 66.6315 47.1538C66.5657 46.8188 66.402 46.511 66.1611 46.2691C65.9202 46.0273 65.6129 45.8624 65.2782 45.7953C64.9435 45.7283 64.5965 45.762 64.281 45.8924C63.9655 46.0227 63.6958 46.2437 63.506 46.5275C63.3162 46.8112 63.2148 47.1448 63.2148 47.4862C63.2148 47.9424 63.3957 48.3801 63.7177 48.7033C64.0397 49.0265 64.4766 49.209 64.9328 49.2107Z" fill="#2AD168"/>
        <path d="M49.3612 49.2107C49.7023 49.2107 50.0357 49.1096 50.3193 48.9201C50.6029 48.7306 50.8239 48.4613 50.9544 48.1462C51.0849 47.831 51.1191 47.4843 51.0525 47.1498C50.986 46.8153 50.8218 46.508 50.5806 46.2668C50.3394 46.0257 50.0322 45.8614 49.6976 45.7949C49.3631 45.7283 49.0164 45.7625 48.7013 45.893C48.3861 46.0235 48.1169 46.2445 47.9274 46.5281C47.7379 46.8117 47.6367 47.1451 47.6367 47.4862C47.6367 47.7126 47.6813 47.9369 47.7679 48.1462C47.8546 48.3554 47.9816 48.5455 48.1418 48.7056C48.3019 48.8657 48.492 48.9928 48.7013 49.0795C48.9105 49.1661 49.1348 49.2107 49.3612 49.2107Z" fill="#2AD168"/>
        <path d="M33.7844 49.2113C34.7332 49.2113 35.5024 48.4422 35.5024 47.4934C35.5024 46.5446 34.7332 45.7754 33.7844 45.7754C32.8356 45.7754 32.0664 46.5446 32.0664 47.4934C32.0664 48.4422 32.8356 49.2113 33.7844 49.2113Z" fill="#2AD168"/>
        <path d="M18.8681 49.007C19.7457 48.6462 20.1646 47.6423 19.8038 46.7647C19.443 45.8872 18.4391 45.4683 17.5616 45.8291C16.684 46.1899 16.2651 47.1938 16.6259 48.0713C16.9867 48.9488 17.9906 49.3678 18.8681 49.007Z" fill="#2AD168"/>
        <path d="M2.6372 45.7949C2.29558 45.7936 1.96131 45.8939 1.67672 46.0829C1.39214 46.2718 1.17009 46.5411 1.03876 46.8565C0.907436 47.1719 0.872739 47.5191 0.939071 47.8543C1.0054 48.1894 1.16976 48.4972 1.41132 48.7388C1.65289 48.9804 1.96073 49.1447 2.29586 49.211C2.63098 49.2774 2.97829 49.2427 3.29367 49.1114C3.60904 48.98 3.87831 48.758 4.0673 48.4734C4.2563 48.1888 4.35647 47.8545 4.35518 47.5129C4.35347 47.0578 4.17194 46.6218 3.85012 46.3C3.52831 45.9782 3.09231 45.7966 2.6372 45.7949Z" fill="#2AD168"/>
        <path d="M96.0852 35.2778C97.034 35.2778 97.8031 34.5086 97.8031 33.5598C97.8031 32.611 97.034 31.8418 96.0852 31.8418C95.1364 31.8418 94.3672 32.611 94.3672 33.5598C94.3672 34.5086 95.1364 35.2778 96.0852 35.2778Z" fill="#2AD168"/>
        <path d="M80.507 35.2778C81.4559 35.2778 82.225 34.5086 82.225 33.5598C82.225 32.611 81.4559 31.8418 80.507 31.8418C79.5582 31.8418 78.7891 32.611 78.7891 33.5598C78.7891 34.5086 79.5582 35.2778 80.507 35.2778Z" fill="#2AD168"/>
        <path d="M64.9328 35.2771C65.2745 35.2784 65.6088 35.1782 65.8934 34.9892C66.178 34.8002 66.4 34.5309 66.5314 34.2155C66.6627 33.9002 66.6974 33.5529 66.631 33.2178C66.5647 32.8826 66.4004 32.5748 66.1588 32.3332C65.9172 32.0916 65.6093 31.9273 65.2742 31.8609C64.9391 31.7946 64.5918 31.8293 64.2765 31.9606C63.9611 32.092 63.6918 32.314 63.5028 32.5986C63.3138 32.8832 63.2136 33.2175 63.2149 33.5591C63.2166 34.0142 63.3982 34.4502 63.72 34.772C64.0418 35.0938 64.4777 35.2754 64.9328 35.2771Z" fill="#2AD168"/>
        <path d="M49.3612 35.2771C49.7026 35.2771 50.0362 35.1758 50.32 34.986C50.6037 34.7962 50.8247 34.5265 50.9551 34.211C51.0854 33.8955 51.1191 33.5485 51.0521 33.2138C50.985 32.8791 50.8201 32.5718 50.5783 32.3309C50.3365 32.09 50.0285 31.9263 49.6936 31.8605C49.3587 31.7947 49.0117 31.8298 48.6967 31.9613C48.3817 32.0928 48.1129 32.3148 47.9242 32.5993C47.7355 32.8837 47.6354 33.2178 47.6367 33.5591C47.6367 33.7853 47.6814 34.0092 47.7681 34.218C47.8549 34.4269 47.982 34.6166 48.1422 34.7762C48.3024 34.9358 48.4926 35.0622 48.7017 35.1482C48.9109 35.2341 49.1351 35.278 49.3612 35.2771Z" fill="#2AD168"/>
        <path d="M33.7844 35.2778C34.7332 35.2778 35.5024 34.5086 35.5024 33.5598C35.5024 32.611 34.7332 31.8418 33.7844 31.8418C32.8356 31.8418 32.0664 32.611 32.0664 33.5598C32.0664 34.5086 32.8356 35.2778 33.7844 35.2778Z" fill="#2AD168"/>
        <path d="M18.8721 35.0793C19.7496 34.7185 20.1685 33.7146 19.8077 32.837C19.4469 31.9595 18.443 31.5406 17.5655 31.9014C16.688 32.2622 16.2691 33.2661 16.6298 34.1436C16.9906 35.0212 17.9945 35.4401 18.8721 35.0793Z" fill="#2AD168"/>
        <path d="M2.63858 35.2771C2.97992 35.2771 3.31357 35.1758 3.5973 34.986C3.88103 34.7962 4.10207 34.5265 4.2324 34.211C4.36273 33.8955 4.39654 33.5485 4.32947 33.2138C4.2624 32.8791 4.09746 32.5718 3.85563 32.3309C3.61381 32.09 3.30596 31.9263 2.97102 31.8605C2.63607 31.7947 2.28916 31.8298 1.97416 31.9613C1.65917 32.0928 1.39026 32.3148 1.20156 32.5993C1.01285 32.8837 0.912787 33.2178 0.914075 33.5591C0.914073 33.7853 0.958721 34.0092 1.04546 34.218C1.13221 34.4269 1.25939 34.6166 1.41961 34.7762C1.57983 34.9358 1.76998 35.0622 1.97917 35.1482C2.18835 35.2341 2.41242 35.278 2.63858 35.2771Z" fill="#2AD168"/>
        <path d="M96.0852 21.3461C97.034 21.3461 97.8031 20.5769 97.8031 19.6281C97.8031 18.6793 97.034 17.9102 96.0852 17.9102C95.1364 17.9102 94.3672 18.6793 94.3672 19.6281C94.3672 20.5769 95.1364 21.3461 96.0852 21.3461Z" fill="#2AD168"/>
        <path d="M80.507 21.3461C81.4559 21.3461 82.225 20.5769 82.225 19.6281C82.225 18.6793 81.4559 17.9102 80.507 17.9102C79.5582 17.9102 78.7891 18.6793 78.7891 19.6281C78.7891 20.5769 79.5582 21.3461 80.507 21.3461Z" fill="#2AD168"/>
        <path d="M64.9328 21.3533C65.2742 21.3546 65.6082 21.2545 65.8927 21.0658C66.1771 20.8771 66.3992 20.6082 66.5307 20.2932C66.6622 19.9782 66.6973 19.6313 66.6315 19.2964C66.5657 18.9614 66.402 18.6535 66.1611 18.4117C65.9202 18.1699 65.6129 18.005 65.2782 17.9379C64.9435 17.8708 64.5965 17.9046 64.281 18.0349C63.9655 18.1653 63.6958 18.3863 63.506 18.67C63.3162 18.9538 63.2148 19.2874 63.2148 19.6288C63.2148 20.085 63.3957 20.5226 63.7177 20.8459C64.0397 21.1691 64.4766 21.3515 64.9328 21.3533Z" fill="#2AD168"/>
        <path d="M49.3612 21.3533C49.7023 21.3533 50.0357 21.2521 50.3193 21.0626C50.6029 20.8732 50.8239 20.6038 50.9544 20.2887C51.0849 19.9736 51.1191 19.6269 51.0525 19.2923C50.986 18.9578 50.8218 18.6505 50.5806 18.4094C50.3394 18.1682 50.0322 18.004 49.6976 17.9374C49.3631 17.8709 49.0164 17.9051 48.7013 18.0356C48.3861 18.1661 48.1169 18.3871 47.9274 18.6707C47.7379 18.9543 47.6367 19.2877 47.6367 19.6288C47.6367 19.8552 47.6813 20.0795 47.7679 20.2887C47.8546 20.498 47.9816 20.688 48.1418 20.8482C48.3019 21.0083 48.492 21.1353 48.7013 21.222C48.9105 21.3087 49.1348 21.3533 49.3612 21.3533Z" fill="#2AD168"/>
        <path d="M33.7844 21.3461C34.7332 21.3461 35.5024 20.5769 35.5024 19.6281C35.5024 18.6793 34.7332 17.9102 33.7844 17.9102C32.8356 17.9102 32.0664 18.6793 32.0664 19.6281C32.0664 20.5769 32.8356 21.3461 33.7844 21.3461Z" fill="#2AD168"/>
        <path d="M18.8681 21.1515C19.7457 20.7907 20.1646 19.7868 19.8038 18.9093C19.443 18.0317 18.4391 17.6129 17.5616 17.9737C16.684 18.3345 16.2651 19.3383 16.6259 20.2158C16.9867 21.0934 17.9906 21.5123 18.8681 21.1515Z" fill="#2AD168"/>
        <path d="M2.63856 21.3533C2.97963 21.3533 3.31306 21.2521 3.59665 21.0626C3.88024 20.8732 4.10123 20.6038 4.23175 20.2887C4.36228 19.9736 4.39648 19.6269 4.32994 19.2923C4.2634 18.9578 4.09918 18.6505 3.858 18.4094C3.61683 18.1682 3.3095 18.004 2.97498 17.9374C2.64046 17.8709 2.29379 17.9051 1.97868 18.0356C1.66357 18.1661 1.39421 18.3871 1.20472 18.6707C1.01523 18.9543 0.914062 19.2877 0.914062 19.6288C0.914062 20.0861 1.0958 20.5248 1.4192 20.8482C1.74261 21.1716 2.1812 21.3533 2.63856 21.3533Z" fill="#2AD168"/>
        <path d="M96.0852 7.42033C97.034 7.42033 97.8031 6.65116 97.8031 5.70235C97.8031 4.75354 97.034 3.98438 96.0852 3.98438C95.1364 3.98438 94.3672 4.75354 94.3672 5.70235C94.3672 6.65116 95.1364 7.42033 96.0852 7.42033Z" fill="#2AD168"/>
        <path d="M80.507 7.42033C81.4559 7.42033 82.225 6.65116 82.225 5.70235C82.225 4.75354 81.4559 3.98438 80.507 3.98438C79.5582 3.98438 78.7891 4.75354 78.7891 5.70235C78.7891 6.65116 79.5582 7.42033 80.507 7.42033Z" fill="#2AD168"/>
        <path d="M64.9328 7.40015C65.2745 7.40143 65.6088 7.30122 65.8934 7.11223C66.178 6.92323 66.4 6.65396 66.5314 6.33859C66.6627 6.02322 66.6974 5.67594 66.631 5.34082C66.5647 5.0057 66.4004 4.69785 66.1588 4.45629C65.9172 4.21472 65.6093 4.05032 65.2742 3.98399C64.9391 3.91766 64.5918 3.95236 64.2765 4.08369C63.9611 4.21501 63.6918 4.43706 63.5028 4.72165C63.3138 5.00623 63.2136 5.34054 63.2149 5.68216C63.2166 6.13727 63.3982 6.57327 63.72 6.89508C64.0418 7.2169 64.4777 7.39843 64.9328 7.40015Z" fill="#2AD168"/>
        <path d="M49.3612 7.40015C49.7026 7.40014 50.0362 7.29883 50.32 7.10905C50.6037 6.91927 50.8247 6.64959 50.9551 6.3341C51.0854 6.01861 51.1191 5.67154 51.0521 5.33685C50.985 5.00215 50.8201 4.6949 50.5783 4.45398C50.3365 4.21307 50.0285 4.04932 49.6936 3.98352C49.3587 3.91771 49.0117 3.9528 48.6967 4.08432C48.3817 4.21584 48.1129 4.43788 47.9242 4.72232C47.7355 5.00677 47.6354 5.34082 47.6367 5.68216C47.6367 5.90832 47.6814 6.13227 47.7681 6.34113C47.8549 6.54999 47.982 6.73964 48.1422 6.89926C48.3024 7.05887 48.4926 7.18531 48.7017 7.27126C48.9109 7.35721 49.1351 7.401 49.3612 7.40015Z" fill="#2AD168"/>
        <path d="M33.7844 7.42033C34.7332 7.42033 35.5024 6.65116 35.5024 5.70235C35.5024 4.75354 34.7332 3.98438 33.7844 3.98438C32.8356 3.98438 32.0664 4.75354 32.0664 5.70235C32.0664 6.65116 32.8356 7.42033 33.7844 7.42033Z" fill="#2AD168"/>
        <path d="M18.8721 7.22379C19.7496 6.86299 20.1685 5.85911 19.8077 4.98157C19.4469 4.10404 18.443 3.68513 17.5655 4.04593C16.688 4.40673 16.2691 5.41061 16.6298 6.28815C16.9906 7.16568 17.9945 7.58459 18.8721 7.22379Z" fill="#2AD168"/>
        <path d="M2.63858 7.40015C2.97992 7.40014 3.31357 7.29883 3.5973 7.10905C3.88103 6.91927 4.10207 6.64959 4.2324 6.3341C4.36273 6.01861 4.39654 5.67154 4.32947 5.33685C4.2624 5.00215 4.09746 4.6949 3.85563 4.45398C3.61381 4.21307 3.30596 4.04932 2.97102 3.98352C2.63607 3.91771 2.28916 3.9528 1.97416 4.08432C1.65917 4.21584 1.39026 4.43788 1.20156 4.72232C1.01285 5.00677 0.912787 5.34082 0.914075 5.68216C0.914073 5.90832 0.958721 6.13227 1.04546 6.34113C1.13221 6.54999 1.25939 6.73964 1.41961 6.89926C1.57983 7.05887 1.76998 7.18531 1.97917 7.27126C2.18835 7.35721 2.41242 7.401 2.63858 7.40015Z" fill="#2AD168"/>
    </g>
    <defs>
        <clipPath id="clip0_7733_41020">
            <rect width="96.89" height="59.1596" fill="white" transform="translate(0.914062 -9.94922)"/>
        </clipPath>
    </defs>
</svg>
