<svg width="73" height="67" viewBox="0 0 73 67" fill="none" xmlns="http://www.w3.org/2000/svg">
    <g opacity="0.5">
        <mask id="mask0_7733_40999" style="mask-type:alpha" maskUnits="userSpaceOnUse" x="-25" y="-31" width="98" height="98">
            <circle cx="24.4141" cy="17.5508" r="47.831" fill="#C4C4C4" stroke="#F8BB54" stroke-width="1.33793"/>
        </mask>
        <g mask="url(#mask0_7733_40999)">
            <path d="M-52.2695 3.48391C-52.2695 3.48391 -19.4585 -2.00938 -11.0113 -22.6728C-2.95515 -42.437 30.3644 -47.2461 30.3644 -47.2461" stroke="#F59E0B" stroke-width="1.50388" stroke-miterlimit="10"/>
            <path d="M-52.2695 10.5216C-52.2695 10.5216 -14.3354 4.38322 -4.5781 -19.3104C4.70991 -41.9092 43.2111 -47.2461 43.2111 -47.2461" stroke="#F59E0B" stroke-width="1.50388" stroke-miterlimit="10"/>
            <path d="M-52.2695 17.5593C-52.2695 17.5593 -9.21232 10.7758 1.85507 -15.9284C12.3749 -41.3813 56.0384 -47.2461 56.0384 -47.2461" stroke="#F59E0B" stroke-width="1.50388" stroke-miterlimit="10"/>
            <path d="M-52.2695 24.6165C-52.2695 24.6165 -4.10882 17.1879 8.26868 -12.5465C20.0595 -40.8731 68.8851 -47.2461 68.8851 -47.2461" stroke="#F59E0B" stroke-width="1.50388" stroke-miterlimit="10"/>
            <path d="M-52.2695 31.6542C-52.2695 31.6542 1.01425 23.5608 14.7018 -9.16436C27.7246 -40.3453 81.7318 -47.2461 81.7318 -47.2461" stroke="#F59E0B" stroke-width="1.50388" stroke-miterlimit="10"/>
            <path d="M-52.2695 38.6919C-52.2695 38.6919 6.13737 29.9534 21.1154 -5.80188C35.3896 -39.8175 94.5787 -47.2461 94.5787 -47.2461" stroke="#F59E0B" stroke-width="1.50388" stroke-miterlimit="10"/>
            <path d="M-52.2695 45.7493C-52.2695 45.7493 11.2408 36.3657 27.5486 -2.40044C43.0547 -39.3092 107.406 -47.2461 107.406 -47.2461" stroke="#F59E0B" stroke-width="1.50388" stroke-miterlimit="10"/>
            <path d="M-52.2695 52.7864C-52.2695 52.7864 16.3639 42.7583 33.9623 0.98166C50.7197 -38.7814 120.253 -47.2461 120.253 -47.2461" stroke="#F59E0B" stroke-width="1.50388" stroke-miterlimit="10"/>
            <path d="M-52.2695 59.8437C-52.2695 59.8437 21.487 49.1507 40.3954 4.3636C58.3848 -38.2536 133.099 -47.2461 133.099 -47.2461" stroke="#F59E0B" stroke-width="1.50388" stroke-miterlimit="10"/>
            <path d="M-52.2695 66.882C-52.2695 66.882 26.5905 55.5434 46.809 7.74569C66.0498 -37.7452 145.946 -47.2461 145.946 -47.2461" stroke="#F59E0B" stroke-width="1.50388" stroke-miterlimit="10"/>
            <path d="M-52.2695 73.9188C-52.2695 73.9188 31.7135 61.936 53.2422 11.108C73.7149 -37.2174 158.793 -47.2461 158.793 -47.2461" stroke="#F59E0B" stroke-width="1.50388" stroke-miterlimit="10"/>
            <path d="M-52.2695 80.9762C-52.2695 80.9762 36.8367 68.3286 59.6753 14.5096C81.3799 -36.6895 171.62 -47.2461 171.62 -47.2461" stroke="#F59E0B" stroke-width="1.50388" stroke-miterlimit="10"/>
            <path d="M-52.2695 88.0144C-52.2695 88.0144 41.9401 74.7212 66.0889 17.8721C89.0451 -36.1813 184.467 -47.2461 184.467 -47.2461" stroke="#F59E0B" stroke-width="1.50388" stroke-miterlimit="10"/>
            <path d="M-52.2695 95.0527C-52.2695 95.0527 47.0633 81.1138 72.5221 21.254C96.71 -35.6535 197.314 -47.2461 197.314 -47.2461" stroke="#F59E0B" stroke-width="1.50388" stroke-miterlimit="10"/>
            <path d="M-52.2695 102.11C-52.2695 102.11 52.1863 87.5254 78.9356 24.6361C104.375 -35.1256 210.16 -47.2461 210.16 -47.2461" stroke="#F59E0B" stroke-width="1.50388" stroke-miterlimit="10"/>
            <path d="M-52.2695 109.147C-52.2695 109.147 57.2898 93.8989 85.3688 28.0181C112.04 -34.6174 222.988 -47.2461 222.988 -47.2461" stroke="#F59E0B" stroke-width="1.50388" stroke-miterlimit="10"/>
        </g>
    </g>
</svg>
