<svg width="32" height="32" viewBox="0 0 32 32" fill="none" xmlns="http://www.w3.org/2000/svg">
<g clip-path="url(#clip0_3900_31188)">
<rect width="32" height="32" fill="white"/>
<path d="M16 32C24.8366 32 32 24.8366 32 16C32 7.16344 24.8366 0 16 0C7.16344 0 0 7.16344 0 16C0 24.8366 7.16344 32 16 32Z" fill="url(#paint0_linear_3900_31188)"/>
<g filter="url(#filter0_dii_3900_31188)">
<path d="M12.9408 20.8377L14.6917 20.455C15.1685 20.3508 15.6624 20.347 16.1451 20.4438C16.6279 20.5407 17.09 20.7362 17.5051 21.0194C17.9203 21.3025 18.2803 21.6677 18.5647 22.094C18.8491 22.5204 19.0522 22.9996 19.1625 23.5042L13.5136 24.7389L13.7003 25.5928L20.1552 24.182L19.9686 23.328C19.7668 22.4203 19.3248 21.5858 18.6946 20.9222L21.0232 20.4133C21.7859 20.2464 22.5831 20.3118 23.3223 20.6019C24.0615 20.892 24.7123 21.3949 25.1993 22.0523C23.8734 25.1337 21.1626 27.5417 17.6754 28.3039C15.4476 28.7908 13.4502 28.6995 11.724 28.1507L9.98737 20.2055C11.0014 20.1397 12.0203 20.3578 12.9408 20.8377ZM10.8469 28.006C10.8964 28.2325 10.8589 28.4683 10.7426 28.6615C10.6262 28.8547 10.4407 28.9895 10.2267 29.0363L8.61295 29.389C8.39895 29.4358 8.17406 29.3907 7.98774 29.2636C7.80141 29.1365 7.66893 28.9379 7.61943 28.7114L5.93958 21.0258C5.89008 20.7993 5.92761 20.5636 6.04392 20.3703C6.16024 20.1771 6.3458 20.0423 6.5598 19.9955L8.17354 19.6428C8.38754 19.596 8.61243 19.6411 8.79875 19.7682C8.98507 19.8953 9.11756 20.0939 9.16706 20.3204L10.8469 28.006Z" fill="url(#paint1_linear_3900_31188)"/>
</g>
<g filter="url(#filter1_dii_3900_31188)">
<path fill-rule="evenodd" clip-rule="evenodd" d="M24.9201 8.09222H17.1192C16.9355 7.73147 16.5607 7.48438 16.1281 7.48438C15.6956 7.48438 15.3207 7.73147 15.137 8.09222H7.13581V8.9006H9.04828L5.99711 15.6953H5.97181C5.97181 15.7137 5.97198 15.7321 5.97232 15.7505L5.9541 15.7911H5.97333C5.98563 16.1779 6.07234 16.5596 6.22953 16.9176C6.39967 17.3051 6.64906 17.6572 6.96345 17.9538C7.27784 18.2504 7.65107 18.4857 8.06184 18.6462C8.47261 18.8067 8.91286 18.8893 9.35748 18.8893C9.80209 18.8893 10.2423 18.8067 10.6531 18.6462C11.0639 18.4857 11.4371 18.2504 11.7515 17.9538C12.0659 17.6572 12.3153 17.3051 12.4854 16.9176C12.6426 16.5596 12.7293 16.1779 12.7416 15.7911H12.7576L12.7425 15.7574C12.7429 15.7367 12.7431 15.716 12.7431 15.6953H12.7146L9.66345 8.9006H15.0589C15.164 9.27 15.4553 9.56098 15.8249 9.66555L15.8249 17.3935C15.5211 17.4168 15.2225 17.4841 14.94 17.5935C14.5834 17.7315 14.2595 17.9338 13.9866 18.1889C13.7138 18.444 13.4973 18.7468 13.3497 19.0801C13.202 19.4133 13.126 19.7705 13.126 20.1312H13.4465C13.7653 19.6765 14.5726 19.2752 16.1593 19.4729C17.1131 19.5917 17.5062 19.8291 17.7946 20.1312H19.003C19.003 19.7705 18.927 19.4133 18.7793 19.0801C18.6316 18.7468 18.4152 18.444 18.1423 18.1889C17.8694 17.9338 17.5455 17.7315 17.189 17.5935C16.946 17.4994 16.6911 17.4364 16.4312 17.4058V9.6656C16.8009 9.56107 17.0923 9.27006 17.1974 8.9006H22.4618L19.4107 15.6953H19.3833C19.3833 15.7152 19.3835 15.7351 19.3839 15.755L19.3676 15.7911H19.3848C19.3971 16.1779 19.4838 16.5596 19.641 16.9176C19.8111 17.3051 20.0605 17.6572 20.3749 17.9538C20.6893 18.2504 21.0625 18.4857 21.4733 18.6462C21.8841 18.8067 22.3243 18.8893 22.7689 18.8893C23.2135 18.8893 23.6538 18.8067 24.0646 18.6462C24.4753 18.4857 24.8486 18.2504 25.163 17.9538C25.4774 17.6572 25.7267 17.3051 25.8969 16.9176C26.0541 16.5596 26.1408 16.1779 26.1531 15.7911H26.1712L26.1541 15.753C26.1544 15.7338 26.1546 15.7145 26.1546 15.6953H26.1282L23.077 8.9006H24.9201V8.09222ZM9.35586 10.3988L11.3757 14.8968H7.33606L9.35586 10.3988ZM24.7892 14.8968L22.7694 10.3988L20.7496 14.8968H24.7892Z" fill="url(#paint2_linear_3900_31188)"/>
</g>
<path d="M3.90251 8.1875L4.70148 9.39169L6.09363 9.77944L5.19527 10.9114L5.2567 12.3553L3.90251 11.8507L2.54833 12.3553L2.60975 10.9114L1.71139 9.77944L3.10354 9.39169L3.90251 8.1875Z" fill="url(#paint3_linear_3900_31188)"/>
<path d="M16.1601 1.60156L17.1588 3.1068L18.899 3.59149L17.7761 5.00647L17.8529 6.81126L16.1601 6.18052L14.4674 6.81126L14.5442 5.00647L13.4212 3.59149L15.1614 3.1068L16.1601 1.60156Z" fill="url(#paint4_linear_3900_31188)"/>
<path d="M28.4162 8.1875L29.2152 9.39169L30.6073 9.77944L29.7089 10.9114L29.7704 12.3553L28.4162 11.8507L27.062 12.3553L27.1234 10.9114L26.2251 9.77944L27.6172 9.39169L28.4162 8.1875Z" fill="url(#paint5_linear_3900_31188)"/>
</g>
<defs>
<filter id="filter0_dii_3900_31188" x="4.31797" y="19.0917" width="22.4813" height="12.9822" filterUnits="userSpaceOnUse" color-interpolation-filters="sRGB">
<feFlood flood-opacity="0" result="BackgroundImageFix"/>
<feColorMatrix in="SourceAlpha" type="matrix" values="0 0 0 0 0 0 0 0 0 0 0 0 0 0 0 0 0 0 127 0" result="hardAlpha"/>
<feOffset dy="1.06667"/>
<feGaussianBlur stdDeviation="0.8"/>
<feComposite in2="hardAlpha" operator="out"/>
<feColorMatrix type="matrix" values="0 0 0 0 0 0 0 0 0 0 0 0 0 0 0 0 0 0 0.3 0"/>
<feBlend mode="normal" in2="BackgroundImageFix" result="effect1_dropShadow_3900_31188"/>
<feBlend mode="normal" in="SourceGraphic" in2="effect1_dropShadow_3900_31188" result="shape"/>
<feColorMatrix in="SourceAlpha" type="matrix" values="0 0 0 0 0 0 0 0 0 0 0 0 0 0 0 0 0 0 127 0" result="hardAlpha"/>
<feOffset dy="0.8"/>
<feGaussianBlur stdDeviation="0.4"/>
<feComposite in2="hardAlpha" operator="arithmetic" k2="-1" k3="1"/>
<feColorMatrix type="matrix" values="0 0 0 0 1 0 0 0 0 1 0 0 0 0 1 0 0 0 0.35 0"/>
<feBlend mode="normal" in2="shape" result="effect2_innerShadow_3900_31188"/>
<feColorMatrix in="SourceAlpha" type="matrix" values="0 0 0 0 0 0 0 0 0 0 0 0 0 0 0 0 0 0 127 0" result="hardAlpha"/>
<feOffset dy="-0.533333"/>
<feGaussianBlur stdDeviation="0.8"/>
<feComposite in2="hardAlpha" operator="arithmetic" k2="-1" k3="1"/>
<feColorMatrix type="matrix" values="0 0 0 0 0 0 0 0 0 0 0 0 0 0 0 0 0 0 0.25 0"/>
<feBlend mode="normal" in2="effect2_innerShadow_3900_31188" result="effect3_innerShadow_3900_31188"/>
</filter>
<filter id="filter1_dii_3900_31188" x="4.3541" y="6.41771" width="23.4173" height="15.847" filterUnits="userSpaceOnUse" color-interpolation-filters="sRGB">
<feFlood flood-opacity="0" result="BackgroundImageFix"/>
<feColorMatrix in="SourceAlpha" type="matrix" values="0 0 0 0 0 0 0 0 0 0 0 0 0 0 0 0 0 0 127 0" result="hardAlpha"/>
<feOffset dy="0.533333"/>
<feGaussianBlur stdDeviation="0.8"/>
<feComposite in2="hardAlpha" operator="out"/>
<feColorMatrix type="matrix" values="0 0 0 0 0 0 0 0 0 0 0 0 0 0 0 0 0 0 0.3 0"/>
<feBlend mode="normal" in2="BackgroundImageFix" result="effect1_dropShadow_3900_31188"/>
<feBlend mode="normal" in="SourceGraphic" in2="effect1_dropShadow_3900_31188" result="shape"/>
<feColorMatrix in="SourceAlpha" type="matrix" values="0 0 0 0 0 0 0 0 0 0 0 0 0 0 0 0 0 0 127 0" result="hardAlpha"/>
<feOffset dy="0.8"/>
<feGaussianBlur stdDeviation="0.4"/>
<feComposite in2="hardAlpha" operator="arithmetic" k2="-1" k3="1"/>
<feColorMatrix type="matrix" values="0 0 0 0 1 0 0 0 0 1 0 0 0 0 1 0 0 0 0.35 0"/>
<feBlend mode="normal" in2="shape" result="effect2_innerShadow_3900_31188"/>
<feColorMatrix in="SourceAlpha" type="matrix" values="0 0 0 0 0 0 0 0 0 0 0 0 0 0 0 0 0 0 127 0" result="hardAlpha"/>
<feOffset dy="-0.533333"/>
<feGaussianBlur stdDeviation="0.8"/>
<feComposite in2="hardAlpha" operator="arithmetic" k2="-1" k3="1"/>
<feColorMatrix type="matrix" values="0 0 0 0 0 0 0 0 0 0 0 0 0 0 0 0 0 0 0.25 0"/>
<feBlend mode="normal" in2="effect2_innerShadow_3900_31188" result="effect3_innerShadow_3900_31188"/>
</filter>
<linearGradient id="paint0_linear_3900_31188" x1="16" y1="17.8667" x2="16" y2="38.6" gradientUnits="userSpaceOnUse">
<stop stop-color="#F5FBFF"/>
<stop offset="1" stop-color="#B3DAFE"/>
</linearGradient>
<linearGradient id="paint1_linear_3900_31188" x1="14.6665" y1="21.6" x2="24.2665" y2="35.7333" gradientUnits="userSpaceOnUse">
<stop stop-color="#0089EA"/>
<stop offset="1" stop-color="#00365D"/>
</linearGradient>
<linearGradient id="paint2_linear_3900_31188" x1="11.4666" y1="1.86667" x2="15.9999" y2="16.5333" gradientUnits="userSpaceOnUse">
<stop stop-color="#93D6FF"/>
<stop offset="1" stop-color="#33B1FF"/>
</linearGradient>
<linearGradient id="paint3_linear_3900_31188" x1="3.90251" y1="8.91608" x2="3.90251" y2="13.9606" gradientUnits="userSpaceOnUse">
<stop stop-color="#FEE45A"/>
<stop offset="1" stop-color="#FE9738"/>
</linearGradient>
<linearGradient id="paint4_linear_3900_31188" x1="16.1601" y1="2.51229" x2="16.1601" y2="8.81793" gradientUnits="userSpaceOnUse">
<stop stop-color="#FEE45A"/>
<stop offset="1" stop-color="#FE9738"/>
</linearGradient>
<linearGradient id="paint5_linear_3900_31188" x1="28.4162" y1="8.91608" x2="28.4162" y2="13.9606" gradientUnits="userSpaceOnUse">
<stop stop-color="#FEE45A"/>
<stop offset="1" stop-color="#FE9738"/>
</linearGradient>
<clipPath id="clip0_3900_31188">
<rect width="32" height="32" fill="white"/>
</clipPath>
</defs>
</svg>
