<svg width="26" height="26" viewBox="0 0 26 26" fill="none" xmlns="http://www.w3.org/2000/svg">
<g filter="url(#filter0_d_4074_84239)">
<g clip-path="url(#clip0_4074_84239)">
<circle cx="13" cy="12" r="9.375" fill="#A53838" stroke="#A2191F" stroke-width="1.25"/>
<circle cx="13" cy="12" r="7" fill="white"/>
</g>
</g>
<path d="M13 3C8.041 3 4 7.041 4 12C4 16.959 8.041 21 13 21C17.959 21 22 16.959 22 12C22 7.041 17.959 3 13 3ZM16.024 14.07C16.285 14.331 16.285 14.763 16.024 15.024C15.889 15.159 15.718 15.222 15.547 15.222C15.376 15.222 15.205 15.159 15.07 15.024L13 12.954L10.93 15.024C10.795 15.159 10.624 15.222 10.453 15.222C10.282 15.222 10.111 15.159 9.976 15.024C9.715 14.763 9.715 14.331 9.976 14.07L12.046 12L9.976 9.93C9.715 9.669 9.715 9.237 9.976 8.976C10.237 8.715 10.669 8.715 10.93 8.976L13 11.046L15.07 8.976C15.331 8.715 15.763 8.715 16.024 8.976C16.285 9.237 16.285 9.669 16.024 9.93L13.954 12L16.024 14.07Z" fill="#FD635E"/>
<defs>
<filter id="filter0_d_4074_84239" x="0.5" y="0.75" width="25" height="25" filterUnits="userSpaceOnUse" color-interpolation-filters="sRGB">
<feFlood flood-opacity="0" result="BackgroundImageFix"/>
<feColorMatrix in="SourceAlpha" type="matrix" values="0 0 0 0 0 0 0 0 0 0 0 0 0 0 0 0 0 0 127 0" result="hardAlpha"/>
<feOffset dy="1.25"/>
<feGaussianBlur stdDeviation="1.25"/>
<feColorMatrix type="matrix" values="0 0 0 0 0 0 0 0 0 0 0 0 0 0 0 0 0 0 0.05 0"/>
<feBlend mode="normal" in2="BackgroundImageFix" result="effect1_dropShadow_4074_84239"/>
<feBlend mode="normal" in="SourceGraphic" in2="effect1_dropShadow_4074_84239" result="shape"/>
</filter>
<clipPath id="clip0_4074_84239">
<rect x="3" y="2" width="20" height="20" rx="10" fill="white"/>
</clipPath>
</defs>
</svg>
