<svg width="48" height="48" viewBox="0 0 48 48" fill="none" xmlns="http://www.w3.org/2000/svg">
<g clip-path="url(#clip0_3900_30567)">
<path d="M24 48C37.2548 48 48 37.2548 48 24C48 10.7452 37.2548 0 24 0C10.7452 0 0 10.7452 0 24C0 37.2548 10.7452 48 24 48Z" fill="url(#paint0_linear_3900_30567)"/>
<g filter="url(#filter0_d_3900_30567)">
<path d="M19.4117 31.2566L22.038 30.6825C22.7533 30.5262 23.4941 30.5205 24.2182 30.6657C24.9423 30.811 25.6355 31.1043 26.2582 31.5291C26.8809 31.9538 27.421 32.5015 27.8476 33.141C28.2741 33.7806 28.5788 34.4993 28.7443 35.2563L20.2709 37.1083L20.5509 38.3893L30.2334 36.273L29.9534 34.992C29.6506 33.6305 28.9877 32.3788 28.0423 31.3833L31.5353 30.6199C32.6794 30.3696 33.8752 30.4677 34.9839 30.9029C36.0927 31.338 37.069 32.0924 37.7995 33.0785C35.8107 37.7006 31.7445 41.3125 26.5135 42.4559C23.1719 43.1862 20.1758 43.0492 17.5864 42.2261L14.9815 30.3083C16.5026 30.2095 18.0309 30.5367 19.4117 31.2566ZM16.2709 42.009C16.3451 42.3487 16.2888 42.7024 16.1143 42.9922C15.9399 43.2821 15.6615 43.4843 15.3405 43.5545L12.9199 44.0836C12.5989 44.1537 12.2616 44.086 11.9821 43.8954C11.7026 43.7048 11.5039 43.4069 11.4296 43.0672L8.90986 31.5387C8.8356 31.199 8.8919 30.8453 9.06638 30.5555C9.24085 30.2657 9.5192 30.0634 9.84019 29.9933L12.2608 29.4642C12.5818 29.394 12.9191 29.4617 13.1986 29.6523C13.4781 29.8429 13.6768 30.1409 13.7511 30.4806L16.2709 42.009Z" fill="#0072C3"/>
</g>
<g filter="url(#filter1_d_3900_30567)">
<path fill-rule="evenodd" clip-rule="evenodd" d="M37.3786 12.745C37.3786 13.0798 37.1072 13.3512 36.7724 13.3512H11.3084C10.9736 13.3512 10.7021 13.0798 10.7021 12.745C10.7021 12.4101 10.9736 12.1387 11.3084 12.1387H36.7724C37.1072 12.1387 37.3786 12.4101 37.3786 12.745Z" fill="#33B1FF"/>
<path fill-rule="evenodd" clip-rule="evenodd" d="M24.1918 28.5028C23.9406 28.5028 23.7371 28.2992 23.7371 28.0481L23.7371 13.8004C23.7371 13.5493 23.9406 13.3457 24.1918 13.3457C24.4429 13.3457 24.6465 13.5493 24.6465 13.8004L24.6465 28.0481C24.6465 28.2992 24.4429 28.5028 24.1918 28.5028Z" fill="#33B1FF"/>
<path d="M25.859 12.8938C25.859 13.8147 25.1125 14.5611 24.1917 14.5611C23.2709 14.5611 22.5244 13.8147 22.5244 12.8938C22.5244 11.973 23.2709 11.2266 24.1917 11.2266C25.1125 11.2266 25.859 11.973 25.859 12.8938Z" fill="#33B1FF"/>
<path fill-rule="evenodd" clip-rule="evenodd" d="M14.0333 12.3237L19.136 23.6869H8.93066L14.0333 12.3237ZM11.0036 22.3454H17.063L14.0333 15.5985L11.0036 22.3454Z" fill="#33B1FF"/>
<path fill-rule="evenodd" clip-rule="evenodd" d="M34.1534 12.3237L39.2561 23.6869H29.0508L34.1534 12.3237ZM31.1237 22.3454H37.1831L34.1534 15.5985L31.1237 22.3454Z" fill="#33B1FF"/>
<path d="M19.114 23.543C19.114 24.1721 18.9827 24.7951 18.7275 25.3764C18.4722 25.9577 18.0982 26.4859 17.6266 26.9307C17.155 27.3756 16.5951 27.7285 15.979 27.9693C15.3628 28.2101 14.7024 28.334 14.0355 28.334C13.3686 28.334 12.7082 28.2101 12.0921 27.9693C11.4759 27.7285 10.9161 27.3756 10.4445 26.9307C9.97291 26.4859 9.59883 25.9577 9.34361 25.3764C9.08839 24.7951 8.95703 24.1721 8.95703 23.543L14.0355 23.543H19.114Z" fill="#33B1FF"/>
<path d="M39.2312 23.543C39.2312 24.1721 39.0999 24.7951 38.8446 25.3764C38.5894 25.9577 38.2153 26.4859 37.7438 26.9307C37.2722 27.3756 36.7123 27.7285 36.0962 27.9693C35.48 28.2101 34.8196 28.334 34.1527 28.334C33.4858 28.334 32.8254 28.2101 32.2093 27.9693C31.5931 27.7285 31.0333 27.3756 30.5617 26.9307C30.0901 26.4859 29.716 25.9577 29.4608 25.3764C29.2056 24.7951 29.0742 24.1721 29.0742 23.543L34.1527 23.543H39.2312Z" fill="#33B1FF"/>
<path fill-rule="evenodd" clip-rule="evenodd" d="M28.168 28.6197C28.3895 29.1196 28.5035 29.6554 28.5035 30.1965H26.6912C26.2586 29.7435 25.6689 29.3877 24.2386 29.2095C21.8593 28.913 20.6482 29.5146 20.1698 30.1965H19.688C19.688 29.6554 19.802 29.1196 20.0235 28.6197C20.245 28.1198 20.5697 27.6656 20.979 27.283C21.3883 26.9004 21.8742 26.5969 22.409 26.3898C22.9437 26.1827 23.5169 26.0762 24.0957 26.0762C24.6746 26.0762 25.2477 26.1827 25.7825 26.3898C26.3173 26.5969 26.8032 26.9004 27.2125 27.283C27.6218 27.6656 27.9465 28.1198 28.168 28.6197Z" fill="#33B1FF"/>
</g>
<path d="M5.85474 12.2812L7.0532 14.0875L9.14142 14.6692L7.79389 16.3671L7.88602 18.5329L5.85474 17.776L3.82347 18.5329L3.9156 16.3671L2.56807 14.6692L4.65629 14.0875L5.85474 12.2812Z" fill="#33B1FF"/>
<path d="M24.2407 2.40234L25.7387 4.6602L28.349 5.38723L26.6646 7.5097L26.7798 10.2169L24.2407 9.27078L21.7016 10.2169L21.8167 7.5097L20.1323 5.38723L22.7426 4.6602L24.2407 2.40234Z" fill="#33B1FF"/>
<path d="M42.6248 12.2812L43.8232 14.0875L45.9114 14.6692L44.5639 16.3671L44.656 18.5329L42.6248 17.776L40.5935 18.5329L40.6856 16.3671L39.3381 14.6692L41.4263 14.0875L42.6248 12.2812Z" fill="#33B1FF"/>
</g>
<defs>
<filter id="filter0_d_3900_30567" x="5.93793" y="27.097" width="34.8014" height="20.5533" filterUnits="userSpaceOnUse" color-interpolation-filters="sRGB">
<feFlood flood-opacity="0" result="BackgroundImageFix"/>
<feColorMatrix in="SourceAlpha" type="matrix" values="0 0 0 0 0 0 0 0 0 0 0 0 0 0 0 0 0 0 127 0" result="hardAlpha"/>
<feOffset dy="0.6"/>
<feGaussianBlur stdDeviation="1.47"/>
<feComposite in2="hardAlpha" operator="out"/>
<feColorMatrix type="matrix" values="0 0 0 0 0 0 0 0 0 0 0 0 0 0 0 0 0 0 0.1 0"/>
<feBlend mode="normal" in2="BackgroundImageFix" result="effect1_dropShadow_3900_30567"/>
<feBlend mode="normal" in="SourceGraphic" in2="effect1_dropShadow_3900_30567" result="shape"/>
</filter>
<filter id="filter1_d_3900_30567" x="5.99066" y="8.88656" width="36.2052" height="24.8497" filterUnits="userSpaceOnUse" color-interpolation-filters="sRGB">
<feFlood flood-opacity="0" result="BackgroundImageFix"/>
<feColorMatrix in="SourceAlpha" type="matrix" values="0 0 0 0 0 0 0 0 0 0 0 0 0 0 0 0 0 0 127 0" result="hardAlpha"/>
<feOffset dy="0.6"/>
<feGaussianBlur stdDeviation="1.47"/>
<feComposite in2="hardAlpha" operator="out"/>
<feColorMatrix type="matrix" values="0 0 0 0 0 0 0 0 0 0 0 0 0 0 0 0 0 0 0.1 0"/>
<feBlend mode="normal" in2="BackgroundImageFix" result="effect1_dropShadow_3900_30567"/>
<feBlend mode="normal" in="SourceGraphic" in2="effect1_dropShadow_3900_30567" result="shape"/>
</filter>
<linearGradient id="paint0_linear_3900_30567" x1="24" y1="26.8" x2="24" y2="57.9" gradientUnits="userSpaceOnUse">
<stop stop-color="#F5FBFF"/>
<stop offset="1" stop-color="#B3DAFE"/>
</linearGradient>
<clipPath id="clip0_3900_30567">
<rect width="48" height="48" fill="white"/>
</clipPath>
</defs>
</svg>
