<svg width="11" height="11" viewBox="0 0 11 11" fill="none" xmlns="http://www.w3.org/2000/svg">
<path d="M3.89746 8.32271V3.88926C3.89746 3.71471 3.94982 3.54453 4.04582 3.40053L5.2371 1.62889C5.42473 1.34526 5.89164 1.14453 6.28873 1.29289C6.71637 1.43689 7.00001 1.91689 6.90837 2.34453L6.68146 3.77144C6.66401 3.90235 6.69892 4.02017 6.7731 4.1118C6.84728 4.19471 6.95637 4.24708 7.07419 4.24708H8.86764C9.21237 4.24708 9.5091 4.38671 9.68364 4.63108C9.84946 4.86671 9.88001 5.17217 9.77092 5.48198L8.69746 8.75035C8.56219 9.29144 7.9731 9.73217 7.38837 9.73217H5.68655C5.39419 9.73217 4.98401 9.6318 4.79637 9.44417L4.23782 9.01217C4.02401 8.85071 3.89746 8.59326 3.89746 8.32271Z" fill="#F6F9FA"/>
<path d="M2.5101 3.03857H2.06065C1.38428 3.03857 1.10938 3.30039 1.10938 3.94621V8.33603C1.10938 8.98185 1.38428 9.24367 2.06065 9.24367H2.5101C3.18647 9.24367 3.46137 8.98185 3.46137 8.33603V3.94621C3.46137 3.30039 3.18647 3.03857 2.5101 3.03857Z" fill="#F6F9FA"/>
</svg>
