<?xml version="1.0" encoding="UTF-8"?>
<svg width="42px" height="42px" viewBox="0 0 42 42" version="1.1" xmlns="http://www.w3.org/2000/svg" xmlns:xlink="http://www.w3.org/1999/xlink">
    <title>ins</title>
    <g id="页面-1" stroke="none" stroke-width="1" fill="none" fill-rule="evenodd">
        <g id="首页" transform="translate(-532, -5827)">
            <g id="编组-94" transform="translate(365, 5828)">
                <g id="ins" transform="translate(168, 0)">
                    <rect id="矩形备份-29" stroke="#FFFFFF" x="0" y="0" width="40" height="40" rx="10"></rect>
                    <g id="instagram" transform="translate(8.7805, 8.7805)" fill="#FFFFFF" fill-rule="nonzero">
                        <path d="M11.2164966,7.4780819 C9.15636254,7.4780819 7.47513596,9.15933978 7.47513596,11.2195122 C7.47513596,13.2796846 9.15636254,14.9609425 11.2164966,14.9609425 C13.2766307,14.9609425 14.9578572,13.2796846 14.9578572,11.2195122 C14.9578572,9.15933978 13.2766307,7.4780819 11.2164966,7.4780819 Z M22.4377718,11.2195122 C22.4377718,9.67017272 22.4518054,8.13486711 22.364797,6.5883344 C22.2777886,4.79199878 21.8680072,3.1977509 20.5544612,1.88418048 C19.2381085,0.567803279 17.6466971,0.160820978 15.8503949,0.0738109992 C14.3010843,-0.0131990042 12.7658072,0.00083485386 11.2193033,0.00083485386 C9.6699927,0.00083485386 8.13471567,-0.0131990287 6.58821175,0.0738109992 C4.79190957,0.160821003 3.19769138,0.57061006 1.88414541,1.88418048 C0.567792718,3.20055768 0.160817995,4.79199878 0.0738096111,6.5883344 C-0.0131987724,8.13767387 0.000834824388,9.67297948 0.000834848947,11.2195122 C0.000834873505,12.7660449 -0.0131987724,14.3041573 0.0738096111,15.85069 C0.160817995,17.6470256 0.570599423,19.2412735 1.88414541,20.5548439 C3.20049811,21.8712211 4.79190957,22.2782034 6.58821175,22.3652134 C8.13752238,22.4522234 9.67279941,22.4381895 11.2193033,22.4381895 C12.768614,22.4381895 14.303891,22.4522234 15.8503949,22.3652134 C17.6466971,22.2782034 19.2409153,21.8684143 20.5544612,20.5548439 C21.8708139,19.2384667 22.2777886,17.6470256 22.364797,15.85069 C22.4546121,14.3041573 22.4377718,12.7688517 22.4377718,11.2195122 Z M11.2164966,16.9762065 C8.03086694,16.9762065 5.45990945,14.4052012 5.45990945,11.2195122 C5.45990945,8.03382323 8.03086694,5.46281787 11.2164966,5.46281787 C14.4021263,5.46281787 16.9730838,8.03382323 16.9730838,11.2195122 C16.9730838,14.4052012 14.4021263,16.9762065 11.2164966,16.9762065 Z M17.2088484,6.57149482 C16.465067,6.57149482 15.8644285,5.97084403 15.8644285,5.22704882 C15.8644285,4.4832536 16.465067,3.88260387 17.2088484,3.88260387 C17.9526298,3.88260387 18.5532694,4.4832536 18.5532694,5.22704882 C18.553716,5.58375483 18.4122159,5.92597982 18.1599911,6.17820926 C17.9077664,6.4304387 17.5655478,6.57194141 17.2088484,6.57149482 L17.2088484,6.57149482 Z" id="形状"></path>
                    </g>
                </g>
            </g>
        </g>
    </g>
</svg>