<svg width="127" height="43" viewBox="0 0 127 43" fill="none" xmlns="http://www.w3.org/2000/svg">
<path d="M126.494 38.6563C126.494 40.9785 124.87 42.8596 122.862 42.8596H4.01908C2.01198 42.8596 0.382812 40.9785 0.382812 38.6563V5.1365C0.382812 2.81537 2.01198 0.927734 4.01908 0.927734H122.862C124.87 0.927734 126.493 2.81537 126.493 5.1365L126.494 38.6563Z" fill="white"/>
<path d="M28.4459 21.4511C28.4165 18.0766 31.1182 16.4349 31.2417 16.3584C29.7117 14.0518 27.3401 13.7367 26.5066 13.7115C24.5148 13.4949 22.5827 14.9439 21.568 14.9439C20.5331 14.9439 18.9706 13.7326 17.2865 13.7681C15.1195 13.8027 13.0922 15.0999 11.9803 17.1144C9.68566 21.2218 11.3971 27.2578 13.5955 30.5779C14.6952 32.204 15.9803 34.0195 17.6622 33.9556C19.3078 33.8855 19.9225 32.8709 21.9082 32.8709C23.8758 32.8709 24.453 33.9556 26.1684 33.9148C27.9345 33.8855 29.0464 32.2815 30.1076 30.6408C31.3785 28.7771 31.8888 26.9417 31.9091 26.8474C31.8676 26.8328 28.4792 25.4957 28.4459 21.4511Z" fill="black"/>
<path d="M24.3791 11.7298C25.235 10.584 25.8206 9.02523 25.6581 7.44336C24.4192 7.50206 22.8701 8.36062 21.9779 9.48123C21.1886 10.4687 20.4836 12.0872 20.6657 13.6094C22.0572 13.7205 23.486 12.8577 24.3791 11.7298Z" fill="black"/>
<path d="M52.0211 31.0036H49.9008L48.7392 27.3469H44.702L43.5956 31.0036H41.5312L45.5311 18.5547H48.0016L52.0211 31.0036ZM48.3891 25.8128L47.3388 22.5622C47.2277 22.23 47.0194 21.448 46.7122 20.217H46.6749C46.5525 20.7464 46.3556 21.5285 46.0848 22.5622L45.0531 25.8128H48.3891Z" fill="black"/>
<path d="M62.3078 26.4059C62.3078 27.9325 61.8961 29.1392 61.0726 30.0251C60.335 30.8137 59.419 31.2075 58.3257 31.2075C57.1455 31.2075 56.2977 30.7828 55.7813 29.9334H55.744V34.6621H53.7534V24.9831C53.7534 24.0233 53.7282 23.0383 53.6797 22.028H55.4303L55.5414 23.4508H55.5787C56.2426 22.3788 57.25 21.8438 58.602 21.8438C59.6589 21.8438 60.5413 22.2618 61.2471 23.0991C61.9549 23.9373 62.3078 25.0392 62.3078 26.4059ZM60.2799 26.4788C60.2799 25.6051 60.0838 24.8849 59.6898 24.3179C59.2594 23.7267 58.6814 23.4311 57.9569 23.4311C57.4657 23.4311 57.0195 23.5958 56.6207 23.9204C56.2212 24.2478 55.9597 24.6753 55.8374 25.2048C55.7758 25.4517 55.7449 25.6538 55.7449 25.8128V27.3095C55.7449 27.9624 55.9448 28.5134 56.3444 28.9634C56.744 29.4133 57.2631 29.6379 57.9018 29.6379C58.6515 29.6379 59.2351 29.3478 59.6524 28.7697C60.0707 28.1907 60.2799 27.4273 60.2799 26.4788Z" fill="black"/>
<path d="M72.6116 26.4059C72.6116 27.9325 72.1999 29.1392 71.3754 30.0251C70.6387 30.8137 69.7228 31.2075 68.6294 31.2075C67.4492 31.2075 66.6015 30.7828 66.0861 29.9334H66.0487V34.6621H64.0582V24.9831C64.0582 24.0233 64.0329 23.0383 63.9844 22.028H65.735L65.8461 23.4508H65.8835C66.5464 22.3788 67.5538 21.8438 68.9067 21.8438C69.9627 21.8438 70.8451 22.2618 71.5528 23.0991C72.2577 23.9373 72.6116 25.0392 72.6116 26.4059ZM70.5836 26.4788C70.5836 25.6051 70.3866 24.8849 69.9926 24.3179C69.5622 23.7267 68.9861 23.4311 68.2606 23.4311C67.7686 23.4311 67.3232 23.5958 66.9236 23.9204C66.524 24.2478 66.2635 24.6753 66.1412 25.2048C66.0805 25.4517 66.0487 25.6538 66.0487 25.8128V27.3095C66.0487 27.9624 66.2485 28.5134 66.6463 28.9634C67.0459 29.4123 67.565 29.6379 68.2055 29.6379C68.9553 29.6379 69.5388 29.3478 69.9562 28.7697C70.3745 28.1907 70.5836 27.4273 70.5836 26.4788Z" fill="black"/>
<path d="M84.134 27.5133C84.134 28.5722 83.7669 29.4337 83.0306 30.0988C82.2211 30.8256 81.0939 31.1886 79.6458 31.1886C78.309 31.1886 77.2372 30.9304 76.4258 30.4131L76.887 28.7508C77.7609 29.2803 78.7198 29.546 79.7643 29.546C80.5145 29.546 81.0977 29.3757 81.5171 29.0371C81.9341 28.6985 82.1427 28.2439 82.1427 27.677C82.1427 27.1719 81.9711 26.7462 81.6264 26.4011C81.284 26.0559 80.7115 25.735 79.912 25.4385C77.7367 24.6256 76.6498 23.4348 76.6498 21.8688C76.6498 20.8454 77.0308 20.0063 77.7936 19.3534C78.5536 18.6996 79.5673 18.373 80.8354 18.373C81.9664 18.373 82.9052 18.5704 83.6554 18.9643L83.1575 20.59C82.4574 20.2084 81.6656 20.0176 80.7792 20.0176C80.079 20.0176 79.5319 20.1907 79.1403 20.5349C78.8087 20.8427 78.6423 21.2178 78.6423 21.6621C78.6423 22.1541 78.8317 22.5611 79.2126 22.881C79.5443 23.1766 80.1467 23.4965 81.02 23.8417C82.0896 24.2729 82.8744 24.7771 83.3799 25.3552C83.8831 25.9314 84.134 26.6527 84.134 27.5133Z" fill="black"/>
<path d="M90.7139 23.5244H88.5202V27.8826C88.5202 28.9911 88.9065 29.5448 89.6813 29.5448C90.0376 29.5448 90.3323 29.514 90.5662 29.4523L90.6208 30.9667C90.2284 31.1136 89.7121 31.1875 89.0727 31.1875C88.2863 31.1875 87.6723 30.9471 87.2291 30.4672C86.7875 29.9864 86.5651 29.18 86.5651 28.0472V23.5225H85.2578V22.0258H86.5651V20.3822L88.5202 19.791V22.0258H90.7139V23.5244Z" fill="black"/>
<path d="M100.615 26.4434C100.615 27.8232 100.221 28.956 99.435 29.8418C98.6109 30.7539 97.5168 31.2085 96.1526 31.2085C94.8376 31.2085 93.7911 30.7716 93.0102 29.898C92.23 29.0243 91.8398 27.9214 91.8398 26.5921C91.8398 25.2011 92.2415 24.0618 93.0471 23.1759C93.8512 22.2891 94.9361 21.8457 96.2995 21.8457C97.6145 21.8457 98.6725 22.2826 99.4704 23.1572C100.234 24.0056 100.615 25.101 100.615 26.4434ZM98.5501 26.5079C98.5501 25.6801 98.3739 24.97 98.0161 24.3779C97.5983 23.6614 97.002 23.304 96.2287 23.304C95.4285 23.304 94.8207 23.6623 94.4036 24.3779C94.0458 24.971 93.8696 25.6922 93.8696 26.5454C93.8696 27.3732 94.0458 28.0832 94.4036 28.6744C94.8337 29.391 95.4354 29.7483 96.211 29.7483C96.9712 29.7483 97.5676 29.3835 97.9984 28.6557C98.3655 28.0523 98.5501 27.3349 98.5501 26.5079Z" fill="black"/>
<path d="M107.087 23.7819C106.89 23.7454 106.68 23.7267 106.459 23.7267C105.759 23.7267 105.218 23.9915 104.837 24.5219C104.505 24.9896 104.339 25.5808 104.339 26.2946V31.0045H102.349L102.368 24.8549C102.368 23.8203 102.343 22.8783 102.293 22.0289H104.027L104.1 23.7464H104.155C104.365 23.1561 104.697 22.6809 105.15 22.3245C105.594 22.0037 106.072 21.8438 106.589 21.8438C106.773 21.8438 106.939 21.8568 107.087 21.8802V23.7819Z" fill="black"/>
<path d="M115.99 26.0908C115.99 26.4482 115.966 26.7494 115.917 26.9955H109.946C109.969 27.8823 110.257 28.5605 110.812 29.0282C111.315 29.4463 111.966 29.6558 112.765 29.6558C113.65 29.6558 114.456 29.5146 115.182 29.2312L115.493 30.6156C114.645 30.986 113.645 31.1703 112.49 31.1703C111.1 31.1703 110.01 30.7606 109.216 29.9421C108.424 29.1236 108.027 28.0245 108.027 26.6456C108.027 25.292 108.397 24.1648 109.135 23.2658C109.908 22.3061 110.953 21.8262 112.268 21.8262C113.559 21.8262 114.536 22.3061 115.2 23.2658C115.726 24.0283 115.99 24.9711 115.99 26.0908ZM114.092 25.5736C114.105 24.9823 113.975 24.4716 113.705 24.0404C113.361 23.4857 112.832 23.2088 112.119 23.2088C111.468 23.2088 110.939 23.4791 110.535 24.0217C110.203 24.4529 110.006 24.9702 109.946 25.5726H114.092V25.5736Z" fill="black"/>
<path d="M47.7246 10.8963C47.7246 11.9973 47.3951 12.8261 46.7368 13.3827C46.1271 13.8963 45.2607 14.1535 44.1383 14.1535C43.5819 14.1535 43.1058 14.1292 42.707 14.0806V8.06473C43.2271 7.98053 43.7873 7.9375 44.3923 7.9375C45.4614 7.9375 46.2672 8.17043 46.8105 8.63628C47.4193 9.16293 47.7246 9.91597 47.7246 10.8963ZM46.6929 10.9235C46.6929 10.2097 46.5043 9.66249 46.1271 9.28081C45.7499 8.90007 45.199 8.70924 44.4736 8.70924C44.1654 8.70924 43.9031 8.72982 43.6855 8.77285V13.3463C43.806 13.365 44.0263 13.3734 44.3466 13.3734C45.0954 13.3734 45.6734 13.1647 46.0804 12.7476C46.4875 12.3303 46.6929 11.7223 46.6929 10.9235Z" fill="black"/>
<path d="M53.1937 11.8578C53.1937 12.536 53.0004 13.0916 52.6138 13.5276C52.2086 13.9756 51.6717 14.1992 51.0014 14.1992C50.3553 14.1992 49.8408 13.985 49.457 13.5547C49.0742 13.1253 48.8828 12.5837 48.8828 11.9307C48.8828 11.2479 49.0799 10.6876 49.4757 10.2525C49.8716 9.81761 50.4038 9.59961 51.0742 9.59961C51.7203 9.59961 52.2394 9.81383 52.6325 10.2432C53.006 10.6604 53.1937 11.1992 53.1937 11.8578ZM52.1787 11.8896C52.1787 11.4827 52.091 11.1338 51.9164 10.8428C51.711 10.4911 51.4187 10.3152 51.0387 10.3152C50.6457 10.3152 50.3468 10.4911 50.1415 10.8428C49.966 11.1338 49.8791 11.4883 49.8791 11.9073C49.8791 12.3143 49.9669 12.6632 50.1415 12.9542C50.3534 13.3059 50.6484 13.4817 51.0294 13.4817C51.4029 13.4817 51.696 13.3031 51.907 12.9448C52.0882 12.6482 52.1787 12.2965 52.1787 11.8896Z" fill="black"/>
<path d="M60.5294 9.68945L59.1522 14.0992H58.2559L57.6854 12.1843C57.5407 11.7063 57.423 11.2311 57.3315 10.7596H57.3137C57.2288 11.2442 57.1112 11.7184 56.9599 12.1843L56.3539 14.0992H55.4473L54.1523 9.68945H55.1579L55.6555 11.7858C55.776 12.2816 55.875 12.754 55.9544 13.2011H55.9721C56.0449 12.8326 56.1654 12.363 56.3352 11.7952L56.9599 9.69046H57.7573L58.3558 11.7503C58.5005 12.2526 58.6181 12.7362 58.7087 13.202H58.7358C58.8021 12.7484 58.902 12.2648 59.0345 11.7503L59.5686 9.69046H60.5294V9.68945Z" fill="black"/>
<path d="M65.6041 14.1H64.6256V11.5742C64.6256 10.796 64.3305 10.4068 63.7386 10.4068C63.4482 10.4068 63.2139 10.5135 63.0318 10.7277C62.8516 10.9419 62.7601 11.1945 62.7601 11.4835V14.099H61.7816V10.9503C61.7816 10.563 61.7694 10.143 61.7461 9.68838H62.606L62.6518 10.3778H62.6788C62.7928 10.1636 62.9627 9.98684 63.1859 9.84557C63.451 9.68089 63.7479 9.59766 64.0728 9.59766C64.4837 9.59766 64.8254 9.7305 65.0971 9.99711C65.4351 10.3235 65.6041 10.8109 65.6041 11.4582V14.1Z" fill="black"/>
<path d="M68.3018 14.099H67.3242V7.66602H68.3018V14.099Z" fill="black"/>
<path d="M74.0608 11.8578C74.0608 12.536 73.8675 13.0916 73.4809 13.5276C73.0758 13.9756 72.538 14.1992 71.8685 14.1992C71.2215 14.1992 70.707 13.985 70.3242 13.5547C69.9414 13.1253 69.75 12.5837 69.75 11.9307C69.75 11.2479 69.947 10.6876 70.3429 10.2525C70.7387 9.81761 71.271 9.59961 71.9404 9.59961C72.5875 9.59961 73.1056 9.81383 73.4996 10.2432C73.8731 10.6604 74.0608 11.1992 74.0608 11.8578ZM73.0449 11.8896C73.0449 11.4827 72.9572 11.1338 72.7826 10.8428C72.5781 10.4911 72.2849 10.3152 71.9058 10.3152C71.5119 10.3152 71.2131 10.4911 71.0086 10.8428C70.8331 11.1338 70.7462 11.4883 70.7462 11.9073C70.7462 12.3143 70.834 12.6632 71.0086 12.9542C71.2206 13.3059 71.5156 13.4817 71.8965 13.4817C72.27 13.4817 72.5622 13.3031 72.7732 12.9448C72.9553 12.6482 73.0449 12.2965 73.0449 11.8896Z" fill="black"/>
<path d="M78.7968 14.0991H77.9183L77.8456 13.5912H77.8185C77.5178 13.9962 77.0893 14.1992 76.5328 14.1992C76.1173 14.1992 75.7811 14.0654 75.5281 13.7997C75.2985 13.5584 75.1836 13.2582 75.1836 12.9018C75.1836 12.3629 75.4077 11.9523 75.8586 11.6679C76.3087 11.3835 76.9418 11.2441 77.7568 11.2507V11.1684C77.7568 10.5875 77.4524 10.2974 76.8427 10.2974C76.4086 10.2974 76.0258 10.4069 75.6953 10.6239L75.4964 9.98037C75.9053 9.72689 76.4105 9.59961 77.0062 9.59961C78.1565 9.59961 78.7337 10.2076 78.7337 11.4237V13.0477C78.7337 13.4882 78.7553 13.8391 78.7968 14.0991ZM77.7811 12.5837V11.9036C76.7018 11.8849 76.1621 12.1814 76.1621 12.7923C76.1621 13.0224 76.2237 13.1945 76.3498 13.3096C76.4758 13.4246 76.6365 13.4817 76.8278 13.4817C77.0426 13.4817 77.2433 13.4134 77.4263 13.2778C77.6103 13.1413 77.7232 12.9681 77.7652 12.7558C77.7755 12.7081 77.7811 12.6501 77.7811 12.5837Z" fill="black"/>
<path d="M84.3582 14.099H83.4895L83.4441 13.3909H83.4164C83.1394 13.9298 82.6669 14.1992 82.0029 14.1992C81.4728 14.1992 81.0311 13.9905 80.681 13.5734C80.3309 13.1561 80.1562 12.6145 80.1562 11.9494C80.1562 11.2356 80.3455 10.6575 80.7264 10.216C81.0957 9.80443 81.5474 9.59864 82.0852 9.59864C82.6762 9.59864 83.0901 9.79786 83.3248 10.1973H83.344V7.66602H84.3235V12.9111C84.3235 13.3404 84.3343 13.7361 84.3582 14.099ZM83.344 12.2394V11.5041C83.344 11.3769 83.3348 11.274 83.3171 11.1955C83.2617 10.9597 83.1432 10.7614 82.9632 10.6014C82.7808 10.4414 82.5615 10.361 82.3084 10.361C81.9437 10.361 81.6574 10.5061 81.4474 10.7969C81.2396 11.0879 81.1342 11.4592 81.1342 11.9129C81.1342 12.3489 81.2335 12.7024 81.4343 12.9747C81.6467 13.2646 81.9321 13.4096 82.2899 13.4096C82.6108 13.4096 82.8678 13.289 83.0632 13.0467C83.2517 12.8231 83.344 12.5537 83.344 12.2394Z" fill="black"/>
<path d="M92.7245 11.8578C92.7245 12.536 92.5313 13.0916 92.1451 13.5276C91.7396 13.9756 91.2041 14.1992 90.5323 14.1992C89.8875 14.1992 89.3728 13.985 88.9881 13.5547C88.6057 13.1253 88.4141 12.5837 88.4141 11.9307C88.4141 11.2479 88.611 10.6876 89.0065 10.2525C89.4028 9.81761 89.9352 9.59961 90.6062 9.59961C91.2518 9.59961 91.7719 9.81383 92.1636 10.2432C92.5375 10.6604 92.7245 11.1992 92.7245 11.8578ZM91.7111 11.8896C91.7111 11.4827 91.6234 11.1338 91.4487 10.8428C91.2418 10.4911 90.9509 10.3152 90.57 10.3152C90.1776 10.3152 89.8791 10.4911 89.6729 10.8428C89.4974 11.1338 89.4105 11.4883 89.4105 11.9073C89.4105 12.3143 89.4982 12.6632 89.6729 12.9542C89.8845 13.3059 90.1799 13.4817 90.5608 13.4817C90.934 13.4817 91.2279 13.3031 91.4395 12.9448C91.6196 12.6482 91.7111 12.2965 91.7111 11.8896Z" fill="black"/>
<path d="M97.9853 14.1H97.0082V11.5742C97.0082 10.796 96.7135 10.4068 96.1202 10.4068C95.8301 10.4068 95.5955 10.5135 95.4146 10.7277C95.2331 10.9419 95.1423 11.1945 95.1423 11.4835V14.099H94.1635V10.9503C94.1635 10.563 94.152 10.143 94.1289 9.68838H94.9876L95.033 10.3778H95.0607C95.1753 10.1636 95.3454 9.98684 95.5678 9.84557C95.8332 9.68089 96.1295 9.59766 96.4557 9.59766C96.865 9.59766 97.2067 9.7305 97.4791 9.99711C97.8176 10.3235 97.9853 10.8109 97.9853 11.4582V14.1Z" fill="black"/>
<path d="M104.575 10.4243H103.498V12.5665C103.498 13.1109 103.689 13.3831 104.068 13.3831C104.244 13.3831 104.389 13.3681 104.504 13.3373L104.529 14.081C104.336 14.1539 104.082 14.1904 103.77 14.1904C103.383 14.1904 103.083 14.0725 102.865 13.8368C102.646 13.6011 102.538 13.2045 102.538 12.6479V10.4243H101.895V9.69002H102.538V8.88178L103.497 8.5918V9.68909H104.574V10.4243H104.575Z" fill="black"/>
<path d="M109.751 14.099H108.773V11.5921C108.773 10.8016 108.477 10.4059 107.886 10.4059C107.432 10.4059 107.122 10.6351 106.953 11.0935C106.924 11.1898 106.907 11.3077 106.907 11.4462V14.0981H105.93V7.66602H106.907V10.3236H106.925C107.234 9.83998 107.676 9.59864 108.248 9.59864C108.653 9.59864 108.988 9.73148 109.254 9.99809C109.585 10.3302 109.751 10.8241 109.751 11.477V14.099Z" fill="black"/>
<path d="M115.093 11.6863C115.093 11.8621 115.08 12.0099 115.057 12.1306H112.122C112.135 12.5665 112.275 12.8986 112.547 13.1287C112.796 13.3345 113.116 13.4375 113.507 13.4375C113.942 13.4375 114.337 13.3682 114.694 13.2288L114.848 13.9099C114.43 14.0913 113.939 14.182 113.37 14.182C112.689 14.182 112.151 13.9809 111.764 13.5786C111.373 13.1764 111.18 12.6367 111.18 11.9594C111.18 11.2943 111.36 10.7406 111.723 10.2991C112.102 9.82758 112.615 9.5918 113.262 9.5918C113.895 9.5918 114.376 9.82758 114.701 10.2991C114.963 10.6732 115.093 11.1362 115.093 11.6863ZM114.159 11.4327C114.167 11.1419 114.102 10.8912 113.97 10.6797C113.8 10.4076 113.541 10.2709 113.191 10.2709C112.872 10.2709 112.611 10.4038 112.412 10.6704C112.25 10.8828 112.154 11.1362 112.122 11.4327H114.159Z" fill="black"/>
</svg>
