<svg width="136" height="51" viewBox="0 0 136 51" fill="none" xmlns="http://www.w3.org/2000/svg">
<g filter="url(#filter0_d_12975_28699)">
<path fill-rule="evenodd" clip-rule="evenodd" d="M122.665 43.0721H5.89906C3.32385 43.0721 1.22656 40.7042 1.22656 37.8202V6.30858C1.22656 3.41412 3.32385 1.05664 5.89906 1.05664H122.665C125.238 1.05664 127.337 3.41412 127.337 6.30858V37.8202C127.337 40.7042 125.238 43.0721 122.665 43.0721Z" fill="white"/>
<path d="M68.4523 15.5118C67.6002 15.5118 66.8818 15.208 66.3137 14.6102C65.7502 14.029 65.4357 13.2278 65.4497 12.41C65.4497 11.5371 65.7408 10.7981 66.3137 10.2122C66.8795 9.61427 67.5978 9.31055 68.45 9.31055C69.2928 9.31055 70.0112 9.61427 70.5886 10.2122C71.1615 10.8172 71.4526 11.5562 71.4526 12.41C71.4432 13.2853 71.1521 14.0242 70.5886 14.6078C70.0229 15.2105 69.3045 15.5118 68.4523 15.5118ZM43.0956 15.5118C42.2622 15.5118 41.5392 15.2128 40.9475 14.6221C40.3606 14.0338 40.0625 13.29 40.0625 12.4124C40.0625 11.5347 40.3606 10.7909 40.9475 10.2026C41.5274 9.61188 42.2505 9.31294 43.0956 9.31294C43.5088 9.31294 43.9103 9.39664 44.2953 9.56644C44.6732 9.73146 44.9808 9.95626 45.2085 10.2313L45.2648 10.3006L44.6286 10.9368L44.5629 10.8579C44.2037 10.4226 43.7225 10.2098 43.0863 10.2098C42.5181 10.2098 42.0228 10.4154 41.6143 10.822C41.2034 11.2309 40.9945 11.7667 40.9945 12.4147C40.9945 13.0629 41.2034 13.5985 41.6143 14.0075C42.0228 14.4141 42.5181 14.6198 43.0863 14.6198C43.6919 14.6198 44.2014 14.4141 44.5981 14.0075C44.8328 13.7683 44.9784 13.4335 45.0301 13.0102H42.99V12.1158H45.9058L45.9174 12.1971C45.9386 12.3478 45.9597 12.5032 45.9597 12.6467C45.9597 13.4718 45.7156 14.139 45.2319 14.6317C44.6827 15.2152 43.9643 15.5118 43.0956 15.5118ZM76.8099 15.385H75.9107L73.157 10.8961L73.1804 11.7045V15.3826H72.2813V9.43969H73.3072L73.3354 9.48513L75.9248 13.7133L75.9013 12.9074V9.43969H76.8099V15.385ZM61.6959 15.385H60.785V10.3341H59.205V9.43969H63.2735V10.3341H61.6935V15.385H61.6959ZM58.4632 15.385H57.5546V9.43969H58.4632V15.385ZM53.3571 15.385H52.4485V10.3341H50.8686V9.43969H54.937V10.3341H53.3571V15.385ZM50.2934 15.3755H46.8095V9.43969H50.2934V10.3341H47.7204V11.9651H50.0422V12.85H47.7204V14.481H50.2934V15.3755ZM66.9803 13.9955C67.3865 14.4093 67.8795 14.6174 68.4523 14.6174C69.0416 14.6174 69.5228 14.4141 69.9243 13.9955C70.3234 13.5889 70.5253 13.0557 70.5253 12.4124C70.5253 11.7691 70.3234 11.2333 69.9267 10.8292C69.5205 10.4154 69.0251 10.2074 68.4547 10.2074C67.8654 10.2074 67.3842 10.4106 66.9851 10.8292C66.586 11.2357 66.3841 11.7691 66.3841 12.4124C66.3841 13.0557 66.5836 13.5914 66.9803 13.9955Z" fill="black"/>
<path fill-rule="evenodd" clip-rule="evenodd" d="M65.3678 23.6857C63.1493 23.6857 61.351 25.4005 61.351 27.7657C61.351 30.1094 63.1611 31.8457 65.3678 31.8457C67.5863 31.8457 69.3847 30.119 69.3847 27.7657C69.3847 25.4005 67.5863 23.6857 65.3678 23.6857ZM65.3678 30.229C64.1541 30.229 63.1095 29.2054 63.1095 27.7561C63.1095 26.2854 64.1565 25.2833 65.3678 25.2833C66.5816 25.2833 67.6262 26.2854 67.6262 27.7561C67.6286 29.215 66.5816 30.229 65.3678 30.229ZM56.6041 23.6857C54.3856 23.6857 52.5874 25.4005 52.5874 27.7657C52.5874 30.1094 54.3974 31.8457 56.6041 31.8457C58.8226 31.8457 60.621 30.119 60.621 27.7657C60.621 25.4005 58.8203 23.6857 56.6041 23.6857ZM56.6041 30.229C55.3905 30.229 54.3458 29.2054 54.3458 27.7561C54.3458 26.2854 55.3928 25.2833 56.6041 25.2833C57.8179 25.2833 58.8626 26.2854 58.8626 27.7561C58.8626 29.215 57.8179 30.229 56.6041 30.229ZM46.176 24.9317V26.6585H50.2444C50.12 27.627 49.8054 28.3421 49.3242 28.8323C48.7279 29.4398 47.8076 30.0999 46.1854 30.0999C43.6852 30.0999 41.7296 28.0432 41.7296 25.4961C41.7296 22.9492 43.6852 20.8925 46.1854 20.8925C47.5353 20.8925 48.5189 21.4353 49.249 22.1289L50.451 20.9044C49.4368 19.9144 48.087 19.1562 46.1948 19.1562C42.7649 19.1562 39.8867 22.0021 39.8867 25.4866C39.8867 28.9807 42.7625 31.8169 46.1948 31.8169C48.047 31.8169 49.4368 31.1999 50.5355 30.0377C51.6553 28.8969 52.0099 27.2874 52.0099 25.9888C52.0099 25.5846 51.9793 25.2211 51.916 24.9126H46.1736C46.176 24.9103 46.176 24.9317 46.176 24.9317ZM88.8303 26.2758C88.4945 25.3599 87.4803 23.6762 85.4004 23.6762C83.3391 23.6762 81.6253 25.3287 81.6253 27.7561C81.6253 30.0473 83.3204 31.8361 85.5998 31.8361C87.4312 31.8361 88.4969 30.6953 88.9354 30.0257L87.5761 29.0978C87.1258 29.7794 86.4987 30.2266 85.6091 30.2266C84.7102 30.2266 84.0807 29.8105 83.6632 28.9902L89.018 26.7302C89.018 26.7326 88.8303 26.2758 88.8303 26.2758ZM83.3695 27.639C83.3275 26.0629 84.5715 25.2618 85.4611 25.2618C86.163 25.2618 86.748 25.6133 86.9475 26.1251L83.3695 27.639ZM79.0193 31.5922H80.7778V19.6059H79.0193V31.5922ZM76.1317 24.5922H76.0683C75.6716 24.1114 74.918 23.6762 73.9554 23.6762C71.9576 23.6762 70.1171 25.4675 70.1171 27.7681C70.1171 30.0592 71.9483 31.8289 73.9554 31.8289C74.9063 31.8289 75.6716 31.3913 76.0683 30.901H76.1317V31.487C76.1317 33.0438 75.3148 33.8832 73.9977 33.8832C72.9201 33.8832 72.2511 33.0941 71.9788 32.4339L70.4505 33.0845C70.8895 34.1607 72.0609 35.4927 73.9954 35.4927C76.0566 35.4927 77.8032 34.2563 77.8032 31.2406V23.9202H76.1411V24.5922C76.1435 24.5922 76.1317 24.5922 76.1317 24.5922ZM74.1128 30.229C72.899 30.229 71.8849 29.1958 71.8849 27.7681C71.8849 26.3284 72.899 25.2857 74.1128 25.2857C75.3148 25.2857 76.2468 26.3404 76.2468 27.7681C76.2584 29.1958 75.3171 30.229 74.1128 30.229ZM97.0635 19.6059H92.8585V31.5922H94.6167V27.053H97.0658C99.0118 27.053 100.925 25.6158 100.925 23.3342C100.925 21.0527 99.0188 19.6059 97.0635 19.6059ZM97.1149 25.379H94.6143V21.2656H97.1149C98.4322 21.2656 99.1761 22.3728 99.1761 23.3223C99.1761 24.2621 98.4221 25.379 97.1149 25.379ZM107.973 23.6643C106.696 23.6643 105.379 24.2406 104.834 25.4961L106.393 26.1562C106.729 25.4961 107.343 25.2714 107.994 25.2714C108.904 25.2714 109.825 25.8262 109.846 26.8163V26.943C109.531 26.7613 108.841 26.4838 108.015 26.4838C106.331 26.4838 104.625 27.4213 104.625 29.1791C104.625 30.7886 106.006 31.8218 107.543 31.8218C108.724 31.8218 109.374 31.2788 109.781 30.6499H109.844V31.5778H111.539V26.9861C111.539 24.8481 109.98 23.6643 107.973 23.6643ZM107.752 30.229C107.176 30.229 106.372 29.942 106.372 29.2054C106.372 28.2775 107.377 27.9259 108.234 27.9259C109.008 27.9259 109.374 28.0958 109.834 28.3301C109.707 29.4063 108.815 30.2194 107.752 30.229ZM117.722 23.9202L115.703 29.1193H115.64L113.548 23.9202H111.656L114.795 31.188L113.006 35.2273H114.837L119.666 23.9202H117.722ZM101.895 31.5922H103.653V19.6059H101.895V31.5922Z" fill="black"/>
<path fill-rule="evenodd" clip-rule="evenodd" d="M11.0507 10.047C10.7784 10.3459 10.6211 10.8027 10.6211 11.4006V32.6062C10.6211 33.2041 10.7784 33.6609 11.0601 33.9479L11.1329 34.0125L22.7959 22.1314V21.8659L11.1235 9.98242L11.0507 10.047Z" fill="url(#paint0_linear_12975_28699)"/>
<path fill-rule="evenodd" clip-rule="evenodd" d="M26.6752 26.1033L22.7852 22.1406V21.8631L26.6752 17.9004L26.7597 17.953L31.3611 20.6171C32.6781 21.3729 32.6781 22.6212 31.3611 23.3865L26.7597 26.0507L26.6752 26.1033Z" fill="url(#paint1_linear_12975_28699)"/>
<path fill-rule="evenodd" clip-rule="evenodd" d="M26.7611 26.0508L22.7866 22.002L11.0508 33.9572C11.4804 34.4259 12.2011 34.4785 13.0064 34.0218L26.7611 26.0508Z" fill="url(#paint2_linear_12975_28699)"/>
<path fill-rule="evenodd" clip-rule="evenodd" d="M26.7611 17.9537L13.0064 9.99476C12.2011 9.52602 11.4781 9.59059 11.0508 10.0593L22.7866 22.0026L26.7611 17.9537Z" fill="url(#paint3_linear_12975_28699)"/>
<path opacity="0.2" fill-rule="evenodd" clip-rule="evenodd" d="M26.6711 24.1992L13.0103 32.1056C12.2473 32.5528 11.5665 32.5217 11.1274 32.1151L11.0547 32.1893L11.1274 32.2539C11.5665 32.658 12.2473 32.6915 13.0103 32.2443L26.765 24.2853L26.6711 24.1992Z" fill="black"/>
<path opacity="0.12" fill-rule="evenodd" clip-rule="evenodd" d="M31.3578 21.4823L26.6602 24.1991L26.7447 24.2852L31.3461 21.621C32.0057 21.2384 32.3297 20.7362 32.3297 20.2363C32.2898 20.6955 31.9541 21.1308 31.3578 21.4823Z" fill="black"/>
<path opacity="0.25" fill-rule="evenodd" clip-rule="evenodd" d="M13.0063 8.36811L31.3624 18.9913C31.9587 19.3333 32.2944 19.7804 32.3461 20.2373C32.3461 19.7374 32.0221 19.2352 31.3624 18.8525L13.0063 8.2294C11.6893 7.46173 10.6211 8.10266 10.6211 9.63564V9.77429C10.6211 8.23897 11.6893 7.61 13.0063 8.36811Z" fill="white"/>
</g>
<defs>
<filter id="filter0_d_12975_28699" x="0.348567" y="0.178645" width="134.889" height="50.7956" filterUnits="userSpaceOnUse" color-interpolation-filters="sRGB">
<feFlood flood-opacity="0" result="BackgroundImageFix"/>
<feColorMatrix in="SourceAlpha" type="matrix" values="0 0 0 0 0 0 0 0 0 0 0 0 0 0 0 0 0 0 127 0" result="hardAlpha"/>
<feOffset dx="3.51198" dy="3.51198"/>
<feGaussianBlur stdDeviation="2.19499"/>
<feComposite in2="hardAlpha" operator="out"/>
<feColorMatrix type="matrix" values="0 0 0 0 0 0 0 0 0 0 0 0 0 0 0 0 0 0 0.1 0"/>
<feBlend mode="normal" in2="BackgroundImageFix" result="effect1_dropShadow_12975_28699"/>
<feBlend mode="normal" in="SourceGraphic" in2="effect1_dropShadow_12975_28699" result="shape"/>
</filter>
<linearGradient id="paint0_linear_12975_28699" x1="21.7498" y1="11.1718" x2="3.02247" y2="16.0701" gradientUnits="userSpaceOnUse">
<stop stop-color="#00A0FF"/>
<stop offset="0.00657" stop-color="#00A1FF"/>
<stop offset="0.2601" stop-color="#00BEFF"/>
<stop offset="0.5122" stop-color="#00D2FF"/>
<stop offset="0.7604" stop-color="#00DFFF"/>
<stop offset="1" stop-color="#00E3FF"/>
</linearGradient>
<linearGradient id="paint1_linear_12975_28699" x1="33.0786" y1="22.0018" x2="10.2996" y2="22.0018" gradientUnits="userSpaceOnUse">
<stop stop-color="#FFE000"/>
<stop offset="0.4087" stop-color="#FFBD00"/>
<stop offset="0.7754" stop-color="#FFA500"/>
<stop offset="1" stop-color="#FF9C00"/>
</linearGradient>
<linearGradient id="paint2_linear_12975_28699" x1="24.5999" y1="24.2051" x2="9.18762" y2="49.6691" gradientUnits="userSpaceOnUse">
<stop stop-color="#FF3A44"/>
<stop offset="1" stop-color="#C31162"/>
</linearGradient>
<linearGradient id="paint3_linear_12975_28699" x1="8.09557" y1="2.99404" x2="14.9717" y2="14.3668" gradientUnits="userSpaceOnUse">
<stop stop-color="#32A071"/>
<stop offset="0.0685" stop-color="#2DA771"/>
<stop offset="0.4762" stop-color="#15CF74"/>
<stop offset="0.8009" stop-color="#06E775"/>
<stop offset="1" stop-color="#00F076"/>
</linearGradient>
</defs>
</svg>
