<svg width="24" height="24" viewBox="0 0 24 24" fill="none" xmlns="http://www.w3.org/2000/svg">
    <rect width="24" height="24" rx="8" fill="#00D95F"/>
    <path d="M4.29688 18.9921L5.39177 14.9211C4.50876 13.3352 4.22823 11.4846 4.60163 9.70885C4.97503 7.93313 5.97733 6.3514 7.42461 5.25391C8.87188 4.15642 10.667 3.61678 12.4807 3.73403C14.2943 3.85127 16.0048 4.61753 17.2982 5.8922C18.5916 7.16687 19.3812 8.86444 19.5221 10.6734C19.663 12.4824 19.1458 14.2814 18.0653 15.7404C16.9848 17.1993 15.4135 18.2203 13.6398 18.6161C11.8661 19.0118 10.009 18.7557 8.40918 17.8947L4.29688 18.9921ZM8.60747 16.3713L8.8618 16.5219C10.0206 17.2076 11.374 17.4914 12.7112 17.329C14.0484 17.1666 15.2942 16.5671 16.2545 15.6241C17.2148 14.681 17.8356 13.4473 18.0202 12.1151C18.2049 10.783 17.9429 9.42736 17.2752 8.25939C16.6075 7.09142 15.5716 6.17676 14.3288 5.65794C13.0861 5.13913 11.7063 5.0453 10.4046 5.39109C9.10283 5.73688 7.95222 6.50285 7.13206 7.56965C6.31189 8.63645 5.86824 9.94414 5.87024 11.2889C5.86915 12.404 6.17805 13.4975 6.76254 14.4477L6.92203 14.7102L6.30992 16.9824L8.60747 16.3713Z" fill="white"/>
    <path fill-rule="evenodd" clip-rule="evenodd" d="M14.7795 12.3345C14.6304 12.2145 14.4558 12.13 14.2691 12.0875C14.0823 12.045 13.8883 12.0456 13.7018 12.0892C13.4216 12.2054 13.2406 12.6444 13.0595 12.8638C13.0214 12.9165 12.9653 12.9534 12.9018 12.9676C12.8383 12.9819 12.7718 12.9725 12.7147 12.9413C11.6889 12.5402 10.8291 11.8047 10.2749 10.8541C10.2276 10.7948 10.2053 10.7195 10.2125 10.6441C10.2197 10.5686 10.256 10.4989 10.3137 10.4496C10.5156 10.25 10.6639 10.0029 10.7448 9.73094C10.7627 9.43099 10.6939 9.13222 10.5465 8.87024C10.4325 8.50297 10.2156 8.17594 9.92143 7.92779C9.7697 7.85966 9.60146 7.83682 9.43701 7.86201C9.27257 7.88721 9.11894 7.95938 8.99465 8.0698C8.77889 8.25564 8.60764 8.48744 8.4935 8.74811C8.37936 9.00878 8.32524 9.29169 8.33513 9.57601C8.3358 9.73567 8.35607 9.89465 8.39548 10.0494C8.49558 10.4212 8.64951 10.7764 8.8524 11.1037C8.99879 11.3545 9.15851 11.5973 9.33088 11.831C9.89106 12.5987 10.5952 13.2506 11.4043 13.7504C11.8103 14.0043 12.2442 14.2108 12.6975 14.3658C13.1683 14.5788 13.6882 14.6606 14.2019 14.6024C14.4945 14.5582 14.7718 14.4429 15.0094 14.2665C15.2469 14.0902 15.4373 13.8582 15.564 13.5911C15.6384 13.4298 15.661 13.2494 15.6287 13.0747C15.5511 12.7175 15.0726 12.5067 14.7795 12.3345Z" fill="white"/>
</svg>
