<svg width="24" height="24" viewBox="0 0 24 24" fill="none" xmlns="http://www.w3.org/2000/svg">
    <rect width="24" height="24" rx="8" fill="#006699"/>
    <path d="M8.41687 18.1114V9.86689H5.67896V18.1114H8.41716H8.41687ZM7.04849 8.74144C8.00305 8.74144 8.59733 8.10836 8.59733 7.31719C8.57947 6.50799 8.00305 5.89258 7.06664 5.89258C6.12958 5.89258 5.51758 6.50799 5.51758 7.31712C5.51758 8.10829 6.11164 8.74137 7.03055 8.74137H7.04827L7.04849 8.74144ZM9.93234 18.1114H12.67V13.5078C12.67 13.2617 12.6879 13.015 12.7602 12.8392C12.9581 12.3467 13.4085 11.8369 14.1651 11.8369C15.1555 11.8369 15.552 12.5929 15.552 13.7013V18.1114H18.2896V13.3842C18.2896 10.852 16.9391 9.6736 15.1378 9.6736C13.661 9.6736 13.0124 10.4998 12.652 11.0624H12.6702V9.86718H9.93248C9.96822 10.6406 9.93227 18.1117 9.93227 18.1117L9.93234 18.1114Z" fill="white"/>
</svg>
