<svg width="24" height="24" viewBox="0 0 24 24" fill="none" xmlns="http://www.w3.org/2000/svg">
    <rect width="24" height="24" rx="8" fill="#0A50A3"/>
    <path fill-rule="evenodd" clip-rule="evenodd" d="M12.9141 10.0251C13.207 9.73223 13.6819 9.73223 13.9748 10.0251C15.3416 11.392 15.3416 13.608 13.9748 14.9749L11.9748 16.9749C10.608 18.3417 8.39189 18.3417 7.02506 16.9749C5.82818 15.778 5.67989 13.9315 6.57775 12.5727C6.80609 12.2271 7.27136 12.132 7.61695 12.3604C7.96254 12.5887 8.05758 13.054 7.82924 13.3996C7.31645 14.1757 7.40276 15.2313 8.08572 15.9142C8.86677 16.6953 10.1331 16.6953 10.9141 15.9142L12.9141 13.9142C13.6952 13.1332 13.6952 11.8668 12.9141 11.0858C12.6213 10.7929 12.6213 10.318 12.9141 10.0251Z" fill="white"/>
    <path fill-rule="evenodd" clip-rule="evenodd" d="M11.0857 13.9749C10.7928 14.2678 10.318 14.2678 10.0251 13.9749C8.65822 12.608 8.65822 10.392 10.0251 9.02513L12.0251 7.02513C13.3919 5.65829 15.608 5.65829 16.9748 7.02513C18.1717 8.22201 18.32 10.0685 17.4221 11.4273C17.1938 11.7729 16.7285 11.868 16.3829 11.6396C16.0373 11.4113 15.9423 10.946 16.1706 10.6004C16.6834 9.82435 16.5971 8.76874 15.9141 8.08579C15.1331 7.30474 13.8668 7.30474 13.0857 8.08579L11.0857 10.0858C10.3047 10.8668 10.3047 12.1332 11.0857 12.9142C11.3786 13.2071 11.3786 13.682 11.0857 13.9749Z" fill="white"/>
</svg>
