<svg width="48" height="48" viewBox="0 0 48 48" fill="none" xmlns="http://www.w3.org/2000/svg">
    <path d="M48 24C48 10.7452 37.2548 0 24 0C10.7452 0 0 10.7452 0 24C0 37.2548 10.7452 48 24 48C37.2548 48 48 37.2548 48 24Z" fill="url(#paint0_linear_21_154)" fill-opacity="0.5"/>
    <path d="M47.625 24C47.625 10.9523 37.0477 0.375 24 0.375C10.9523 0.375 0.375 10.9523 0.375 24C0.375 37.0477 10.9523 47.625 24 47.625C37.0477 47.625 47.625 37.0477 47.625 24Z" stroke="url(#paint1_linear_21_154)" stroke-width="0.75"/>
    <path d="M24.2962 36.5287C31.4819 36.5287 37.3072 30.7013 37.3072 23.5129C37.3072 16.3244 31.4819 10.4971 24.2962 10.4971C17.1104 10.4971 11.2852 16.3244 11.2852 23.5129C11.2852 30.7013 17.1104 36.5287 24.2962 36.5287Z" fill="url(#paint2_linear_21_154)"/>
    <path d="M37.2082 23.5129C37.2082 30.6467 31.4273 36.4297 24.2962 36.4297C17.1651 36.4297 11.3842 30.6467 11.3842 23.5129C11.3842 16.3792 17.1651 10.5962 24.2962 10.5962C31.4273 10.5962 37.2082 16.3792 37.2082 23.5129Z" stroke="url(#paint3_linear_21_154)" stroke-opacity="0.5" stroke-width="0.197998"/>
    <path fill-rule="evenodd" clip-rule="evenodd" d="M16.8526 34.8731L16.3744 34.5738L13.0051 35.7347L13.6987 32.1594L13.3679 31.7355C11.4918 29.3353 10.5 26.4659 10.5 23.4368C10.5 15.9938 16.5558 9.93799 23.9998 9.93799C31.4442 9.93799 37.5 15.9938 37.5 23.4368C37.5 30.8812 31.4442 36.9375 23.9998 36.9375C21.4784 36.9375 19.0067 36.2237 16.8526 34.8731ZM17.6817 15.6247C16.923 15.7174 15.9929 17.3441 15.9929 17.3441C15.4196 18.1865 15.3579 19.1103 15.8228 21.155C16.2876 23.2003 18.255 25.4461 20.4703 27.6629C22.6856 29.8772 26.8425 31.2979 28.5886 31.2979C30.279 31.2979 31.422 30.1495 31.8534 29.7161C31.8674 29.702 31.8807 29.6886 31.8932 29.6761C32.2906 29.2788 32.4848 28.1036 32.4848 27.623C32.4848 27.1433 32.1668 27.0265 32.1668 27.0265C32.1668 27.0265 29.4482 25.6714 28.8212 25.385C28.1932 25.0981 27.8141 25.5861 27.8141 25.5861C27.8141 25.5861 26.6365 27.0576 26.4196 27.2745C26.2027 27.4918 25.8621 27.4455 25.8621 27.4455C25.8621 27.4455 23.4782 26.5597 22.2375 25.3175C21.2151 24.2959 20.6271 23.4594 20.2353 22.9019C20.1506 22.7815 20.0751 22.6741 20.0064 22.5807C19.619 22.0542 20.0064 21.5583 20.0064 21.5583C20.0064 21.5583 20.7029 20.8613 21.0125 20.3806C21.3221 19.9005 21.1214 19.4051 21.1214 19.4051C21.1214 19.4051 19.9438 16.5229 19.6806 16.027C19.4173 15.5311 18.4403 15.5311 17.6817 15.6247Z" fill="url(#paint4_linear_21_154)"/>
    <defs>
        <linearGradient id="paint0_linear_21_154" x1="0" y1="0" x2="10.9635" y2="54.0489" gradientUnits="userSpaceOnUse">
            <stop stop-color="#EAFFFE"/>
            <stop offset="1" stop-color="#C9D9F1"/>
        </linearGradient>
        <linearGradient id="paint1_linear_21_154" x1="1.28" y1="0.5616" x2="11.7672" y2="54.3974" gradientUnits="userSpaceOnUse">
            <stop stop-color="white"/>
            <stop offset="1" stop-color="white" stop-opacity="0"/>
        </linearGradient>
        <linearGradient id="paint2_linear_21_154" x1="35.4623" y1="15.1979" x2="3.03446" y2="10.7157" gradientUnits="userSpaceOnUse">
            <stop stop-color="white"/>
            <stop offset="1" stop-color="white" stop-opacity="0.61"/>
        </linearGradient>
        <linearGradient id="paint3_linear_21_154" x1="14.0883" y1="19.2295" x2="36.1847" y2="19.3514" gradientUnits="userSpaceOnUse">
            <stop stop-color="white"/>
            <stop offset="1" stop-color="white" stop-opacity="0"/>
        </linearGradient>
        <linearGradient id="paint4_linear_21_154" x1="37.5" y1="9.93799" x2="18.4629" y2="32.2032" gradientUnits="userSpaceOnUse">
            <stop stop-color="#B2F763"/>
            <stop offset="1" stop-color="#26AB3F"/>
        </linearGradient>
    </defs>
</svg>
