<svg width="16" height="16" viewBox="0 0 16 16" fill="none" xmlns="http://www.w3.org/2000/svg">
<path d="M8.00017 7.33203C7.82336 7.33203 7.65379 7.40227 7.52876 7.52729C7.40374 7.65232 7.3335 7.82189 7.3335 7.9987V10.6654C7.3335 10.8422 7.40374 11.0117 7.52876 11.1368C7.65379 11.2618 7.82336 11.332 8.00017 11.332C8.17698 11.332 8.34655 11.2618 8.47157 11.1368C8.59659 11.0117 8.66683 10.8422 8.66683 10.6654V7.9987C8.66683 7.82189 8.59659 7.65232 8.47157 7.52729C8.34655 7.40227 8.17698 7.33203 8.00017 7.33203ZM8.2535 4.7187C8.09119 4.65202 7.90914 4.65202 7.74683 4.7187C7.665 4.75043 7.59024 4.798 7.52683 4.8587C7.46795 4.9235 7.42059 4.99791 7.38683 5.0787C7.34951 5.15782 7.33125 5.24458 7.3335 5.33203C7.33299 5.41977 7.34981 5.50674 7.38299 5.58797C7.41616 5.66919 7.46504 5.74307 7.52683 5.80536C7.59163 5.86425 7.66604 5.9116 7.74683 5.94536C7.84783 5.98686 7.95748 6.00291 8.06613 5.99211C8.17479 5.9813 8.27912 5.94398 8.36997 5.88341C8.46083 5.82284 8.53541 5.74089 8.58717 5.64475C8.63893 5.5486 8.66629 5.44122 8.66683 5.33203C8.66438 5.15552 8.59532 4.98645 8.4735 4.8587C8.4101 4.798 8.33533 4.75043 8.2535 4.7187ZM8.00017 1.33203C6.68162 1.33203 5.39269 1.72302 4.29636 2.45557C3.20004 3.18811 2.34555 4.2293 1.84097 5.44747C1.33638 6.66565 1.20436 8.00609 1.4616 9.2993C1.71883 10.5925 2.35377 11.7804 3.28612 12.7127C4.21847 13.6451 5.40636 14.28 6.69956 14.5373C7.99277 14.7945 9.33322 14.6625 10.5514 14.1579C11.7696 13.6533 12.8108 12.7988 13.5433 11.7025C14.2758 10.6062 14.6668 9.31724 14.6668 7.9987C14.6668 7.12322 14.4944 6.25631 14.1594 5.44747C13.8243 4.63864 13.3333 3.90371 12.7142 3.28465C12.0952 2.6656 11.3602 2.17453 10.5514 1.8395C9.74255 1.50447 8.87565 1.33203 8.00017 1.33203ZM8.00017 13.332C6.94533 13.332 5.91419 13.0192 5.03712 12.4332C4.16006 11.8472 3.47648 11.0142 3.07281 10.0397C2.66914 9.06514 2.56352 7.99278 2.76931 6.95822C2.9751 5.92365 3.48305 4.97334 4.22893 4.22746C4.97481 3.48158 5.92512 2.97363 6.95968 2.76784C7.99425 2.56206 9.06661 2.66767 10.0411 3.07134C11.0157 3.47501 11.8486 4.15859 12.4347 5.03566C13.0207 5.91272 13.3335 6.94386 13.3335 7.9987C13.3335 9.41319 12.7716 10.7697 11.7714 11.7699C10.7712 12.7701 9.41465 13.332 8.00017 13.332Z" fill="#737373"/>
</svg>
