<svg width="202" height="60" viewBox="0 0 202 60" fill="none" xmlns="http://www.w3.org/2000/svg"><path d="M63.2819 20.2913C63.2819 16.142 63.2819 11.9903 63.2819 7.84103C63.2819 6.91317 63.456 6.73406 64.364 6.73157C67.4908 6.73157 70.6177 6.72909 73.7446 6.73157C75.9261 6.73406 77.9858 7.18929 79.7819 8.48779C82.2396 10.2614 83.2669 12.7614 83.2644 15.7142C83.262 18.0873 82.6475 20.2714 81.0033 22.0674C79.5555 23.647 77.7097 24.4977 75.6127 24.7142C74.1625 24.8634 72.6923 24.8162 71.2296 24.846C70.5057 24.8609 69.7794 24.8684 69.0555 24.841C68.6948 24.8286 68.6028 24.9505 68.6052 25.2987C68.6177 27.7863 68.6127 30.2739 68.6127 32.7614C68.6127 33.7042 68.4386 33.8783 67.4933 33.8783C66.4137 33.8783 65.3316 33.8808 64.252 33.8783C63.5082 33.8759 63.2844 33.6545 63.2844 32.9132C63.2794 28.7067 63.2819 24.4977 63.2819 20.2913ZM68.6401 20.0375C69.1426 20.0375 69.6227 20.0425 70.1003 20.0375C71.4908 20.0176 72.8938 20.0923 74.2719 19.9505C76.5331 19.7167 78.0257 17.9157 77.9908 15.6545C77.956 13.438 76.4759 11.7664 74.1948 11.5997C72.3863 11.4679 70.563 11.55 68.7445 11.5375C68.7197 11.5375 68.6948 11.5599 68.6426 11.5873C68.6401 14.3759 68.6401 17.1793 68.6401 20.0375Z" fill="white"/><path d="M132.796 17.8011C132.905 17.3384 133.015 16.8732 133.124 16.4105C133.266 15.8011 133.48 15.6195 134.094 15.617C134.818 15.612 135.545 15.6096 136.268 15.617C136.878 15.6245 137.094 15.8309 137.099 16.4404C137.112 17.4926 137.104 18.5449 137.104 19.5971C137.104 26.1643 137.104 32.7314 137.104 39.2986C137.104 39.4827 137.107 39.6693 137.102 39.8533C137.089 40.5648 136.92 40.7464 136.221 40.7538C135.169 40.7638 134.117 40.7613 133.064 40.7538C132.343 40.7489 132.164 40.5648 132.164 39.8285C132.159 37.5399 132.162 35.2514 132.162 32.9628C132.162 32.7986 132.162 32.6344 132.162 32.4006C132.032 32.4827 131.967 32.5101 131.923 32.5548C129.102 35.2887 124.622 34.8558 121.948 32.8235C120.005 31.3459 118.92 29.3459 118.497 26.9827C118.045 24.4404 118.271 21.9653 119.485 19.6419C121.453 15.8683 126.057 14.1295 129.9 15.6917C130.935 16.1121 131.798 16.7712 132.522 17.612C132.584 17.6867 132.619 17.7837 132.669 17.8707C132.711 17.8459 132.754 17.8235 132.796 17.8011ZM127.836 19.7936C125.751 19.7912 124.181 20.923 123.537 22.9006C123.176 24.0101 123.134 25.1369 123.428 26.2638C123.888 28.02 124.928 29.2688 126.754 29.6643C128.607 30.0648 130.201 29.5499 131.368 28.0101C132.323 26.7489 132.515 25.2887 132.293 23.7538C131.955 21.4255 130.124 19.7961 127.836 19.7936Z" fill="white"/><path d="M191.775 17.7431C191.922 17.2183 192.039 16.7954 192.156 16.3725C192.315 15.7979 192.536 15.6188 193.123 15.6138C193.862 15.6088 194.601 15.6063 195.34 15.6138C195.984 15.6213 196.248 15.8824 196.248 16.5242C196.25 22.0118 196.25 27.4994 196.248 32.9869C196.248 33.6586 196.026 33.875 195.347 33.8775C194.566 33.8824 193.782 33.8824 193.001 33.8775C192.442 33.8725 192.24 33.7133 192.096 33.1685C191.989 32.7581 191.894 32.3451 191.782 31.8874C191.688 31.9571 191.616 31.9944 191.566 32.0516C189.738 34.1013 187.429 34.768 184.78 34.3551C182.073 33.9322 179.994 32.5043 178.748 30.0864C176.889 26.4819 176.874 22.7904 178.869 19.2332C180.847 15.7083 185.347 14.1984 189.001 15.6834C189.924 16.0591 190.715 16.6262 191.397 17.3501C191.504 17.4596 191.608 17.569 191.775 17.7431ZM191.516 24.5218C191.476 24.268 191.434 23.7556 191.317 23.263C190.869 21.3775 189.347 20.0018 187.536 19.8153C185.452 19.5989 183.703 20.5168 182.899 22.3402C182.156 24.0292 182.165 25.7481 182.999 27.4073C184.225 29.8501 187.479 30.5715 189.638 28.8949C190.974 27.8576 191.486 26.4272 191.516 24.5218Z" fill="white"/><path d="M155.035 17.7472C155.175 17.2373 155.292 16.7995 155.416 16.3642C155.58 15.792 155.802 15.6204 156.391 15.6154C157.13 15.6104 157.869 15.6079 158.607 15.6154C159.237 15.6229 159.498 15.8766 159.498 16.4935C159.501 22.006 159.501 27.5209 159.498 33.0333C159.498 33.6602 159.274 33.8741 158.645 33.8766C157.849 33.8816 157.053 33.8816 156.257 33.8766C155.704 33.8716 155.496 33.705 155.354 33.1652C155.249 32.7672 155.155 32.3667 155.055 31.9662C155.05 31.9438 155.023 31.9264 154.993 31.889C154.951 31.9239 154.903 31.9537 154.869 31.996C153.038 34.0905 150.709 34.7746 148.025 34.3517C144.446 33.787 141.717 31.0756 140.973 27.3841C140.438 24.7323 140.598 22.1477 141.846 19.7025C143.797 15.889 148.411 14.1204 152.262 15.6826C153.185 16.0582 153.976 16.6254 154.657 17.3492C154.764 17.4612 154.871 17.5731 155.035 17.7472ZM145.632 25.001C145.68 25.3094 145.712 25.8393 145.849 26.3418C146.324 28.0781 147.379 29.297 149.187 29.6726C151.008 30.0507 152.588 29.5532 153.734 28.0458C154.802 26.6428 155.013 25.0209 154.598 23.3443C153.647 19.5184 149.769 19.088 147.66 20.5333C146.177 21.5532 145.69 23.0681 145.632 25.001Z" fill="white"/><path d="M88.7335 26.3611C88.9947 27.4282 89.4823 28.2889 90.2634 28.9705C91.537 30.0825 93.047 30.3014 94.6614 30.08C95.547 29.9581 96.3604 29.6447 97.1042 29.1397C97.6315 28.7815 97.9101 28.8437 98.2758 29.3785C98.7086 30.0128 99.134 30.6496 99.5544 31.2914C99.8902 31.8039 99.8579 32.0402 99.3554 32.4009C96.1241 34.7218 92.6315 35.187 89.0668 33.4258C85.5096 31.6695 83.9574 28.5427 83.9649 24.6496C83.9698 21.784 84.935 19.2616 87.0992 17.3089C89.2111 15.4059 91.7335 14.8561 94.4848 15.3188C98.4972 15.9954 101.049 18.7268 101.495 22.7815C101.579 23.5551 101.587 24.3412 101.577 25.1198C101.564 26.0651 101.238 26.3586 100.293 26.3586C96.6265 26.3611 92.9599 26.3611 89.2932 26.3611C89.1266 26.3611 88.9599 26.3611 88.7335 26.3611ZM88.8032 22.7641C91.5047 22.7641 94.1788 22.7641 96.8853 22.7641C96.6067 21.3835 96.037 20.2317 94.6738 19.7665C93.9947 19.5352 93.2211 19.4631 92.4997 19.4979C90.6688 19.5899 89.1191 20.9979 88.8032 22.7641Z" fill="white"/><path d="M109.594 17.957C109.701 17.8251 109.766 17.753 109.821 17.6759C111.567 15.2356 113.985 14.549 116.744 15.7231C117.134 15.8898 117.502 16.1087 117.871 16.3251C118.219 16.5291 118.321 16.8575 118.139 17.2057C117.642 18.1634 117.129 19.1137 116.589 20.0465C116.346 20.4669 116.037 20.4769 115.48 20.1833C113.575 19.1809 111.507 19.8873 110.652 21.86C110.468 22.2853 110.341 22.7455 110.264 23.2032C110.177 23.7182 110.144 24.248 110.142 24.7729C110.129 27.4595 110.137 30.146 110.137 32.8326C110.137 33.7107 109.968 33.8774 109.089 33.8799C108.137 33.8799 107.184 33.8799 106.234 33.8799C105.361 33.8799 105.196 33.7157 105.196 32.8251C105.194 31.0764 105.196 29.3276 105.196 27.5813C105.196 23.957 105.196 20.3326 105.196 16.7082C105.196 15.7704 105.353 15.6162 106.283 15.6162C106.98 15.6162 107.677 15.6112 108.373 15.6187C108.963 15.6261 109.154 15.7853 109.279 16.3624C109.383 16.8699 109.48 17.3823 109.594 17.957Z" fill="white"/><path d="M168.733 17.9699C168.855 17.8157 168.92 17.741 168.974 17.6639C170.713 15.2137 173.216 14.5321 175.979 15.7634C176.315 15.9127 176.641 16.0943 176.955 16.2858C177.362 16.537 177.477 16.843 177.261 17.2609C176.778 18.1938 176.273 19.1167 175.748 20.0271C175.504 20.45 175.186 20.4798 174.683 20.2162C173.566 19.6266 172.427 19.547 171.298 20.149C170.273 20.6938 169.748 21.639 169.504 22.7261C169.365 23.343 169.305 23.9898 169.3 24.6266C169.278 27.3704 169.29 30.1117 169.29 32.8555C169.29 33.6863 169.094 33.8803 168.258 33.8828C167.248 33.8828 166.241 33.8853 165.231 33.8828C164.564 33.8803 164.348 33.6739 164.348 33.0246C164.345 27.5097 164.345 21.9948 164.348 16.4798C164.348 15.843 164.562 15.6266 165.183 15.6191C165.964 15.6117 166.748 15.6117 167.529 15.6191C168.106 15.6266 168.318 15.8082 168.432 16.3754C168.529 16.8729 168.619 17.3754 168.733 17.9699Z" fill="white"/><path d="M26.1761 7.38167C27.3617 7.38167 28.3228 6.42053 28.3228 5.2349C28.3228 4.04928 27.3617 3.08813 26.1761 3.08813C24.9904 3.08813 24.0293 4.04928 24.0293 5.2349C24.0293 6.42053 24.9904 7.38167 26.1761 7.38167Z" fill="#0A50A3"/><path d="M26.1761 35.7645C27.3617 35.7645 28.3228 34.8033 28.3228 33.6177C28.3228 32.4321 27.3617 31.4709 26.1761 31.4709C24.9904 31.4709 24.0293 32.4321 24.0293 33.6177C24.0293 34.8033 24.9904 35.7645 26.1761 35.7645Z" fill="#0A50A3"/><path d="M34.6271 12.7034H18.4082V17.8327H34.6271V12.7034Z" fill="#52BEE7"/><path d="M34.6271 20.8049H18.4082V25.9343H34.6271V20.8049Z" fill="white"/><path d="M11.6137 20.7317C11.6336 20.672 11.6535 20.6123 11.671 20.5526C11.6958 20.4706 11.7157 20.386 11.7356 20.3014C11.7431 20.2691 11.7506 20.2342 11.758 20.2019C11.7804 20.0924 11.7953 19.9805 11.8078 19.8686C11.8103 19.8437 11.8127 19.8188 11.8152 19.7939C11.8252 19.672 11.8326 19.5501 11.8351 19.4258C11.8351 19.3014 11.8277 19.177 11.8152 19.0576C11.8127 19.0327 11.8103 19.0079 11.8078 18.983C11.7953 18.8711 11.7779 18.7591 11.7555 18.6497C11.7481 18.6173 11.7406 18.585 11.7331 18.5501C11.7132 18.4631 11.6909 18.3785 11.666 18.2939C11.6486 18.2367 11.6311 18.1795 11.6112 18.1223C11.5913 18.0651 11.5714 18.0104 11.5491 17.9556C10.957 16.4457 9.49184 15.3735 7.77543 15.3735C5.53911 15.3735 3.7207 17.1919 3.7207 19.4283C3.7207 21.6646 5.53911 23.483 7.77543 23.483C9.49184 23.483 10.9595 22.4084 11.5515 20.8984C11.5764 20.8387 11.5963 20.7865 11.6137 20.7317Z" fill="#52BEE7"/><path d="M18.4046 7.37801H26.1683C24.9842 7.37801 24.0215 6.41781 24.0215 5.23124C24.0215 4.04716 24.9817 3.08447 26.1683 3.08447H18.4046C13.8673 3.08447 10.1758 6.77602 10.1758 11.3133V13.9551C12.2803 14.8805 13.7529 16.9825 13.7529 19.4228C13.7529 21.8631 12.2803 23.9651 10.1758 24.8905V27.5322C10.1758 32.0696 13.8673 35.7611 18.4046 35.7611H26.1683C24.9842 35.7611 24.0215 34.8009 24.0215 33.6143C24.0215 32.4303 24.9817 31.4676 26.1683 31.4676H18.4046C16.233 31.4676 14.4693 29.7014 14.4693 27.5322V11.3133C14.4693 9.14169 16.233 7.37801 18.4046 7.37801Z" fill="#52BEE7"/><path d="M45.2657 15.3694C43.5493 15.3694 42.0816 16.444 41.4895 17.9565C41.4672 18.0112 41.4473 18.0684 41.4274 18.1256C41.4099 18.1778 41.3925 18.2276 41.3776 18.2798C41.3503 18.3719 41.3279 18.4639 41.3055 18.5584C41.298 18.5858 41.293 18.6157 41.2881 18.643C41.2657 18.7575 41.2483 18.8719 41.2358 18.9888C41.2333 19.0062 41.2333 19.0236 41.2308 19.0435C41.2184 19.1704 41.2109 19.2972 41.2109 19.4241C41.2109 19.5535 41.2184 19.6803 41.2308 19.8047C41.2333 19.8221 41.2333 19.842 41.2358 19.8594C41.2483 19.9763 41.2657 20.0908 41.2881 20.2052C41.293 20.2351 41.3005 20.2624 41.308 20.2923C41.3279 20.3843 41.3527 20.4764 41.3801 20.5684C41.395 20.6231 41.4149 20.6754 41.4323 20.7276C41.4522 20.7823 41.4721 20.837 41.492 20.8918C42.0816 22.4042 43.5492 23.4788 45.2682 23.4788C47.5045 23.4788 49.3229 21.6604 49.3229 19.4241C49.3204 17.1878 47.502 15.3694 45.2657 15.3694Z" fill="white"/><path d="M39.2963 19.4225C39.2963 16.9872 40.7614 14.8927 42.856 13.9623V11.3131C42.856 6.77578 39.1644 3.08423 34.6271 3.08423H26.1719C27.356 3.08423 28.3186 4.04443 28.3186 5.231C28.3186 6.41508 27.3584 7.37776 26.1719 7.37776H34.6271C36.7987 7.37776 38.5624 9.14393 38.5624 11.3131V27.5345C38.5624 29.7061 36.7963 31.4698 34.6271 31.4698H26.1719C27.356 31.4698 28.3186 32.43 28.3186 33.6166C28.3186 34.8006 27.3584 35.7633 26.1719 35.7633H34.6271C39.1644 35.7633 42.856 32.0718 42.856 27.5345V24.8827C40.7614 23.9524 39.2963 21.8579 39.2963 19.4225Z" fill="white"/><path d="M131.463 56.666L136.079 44.9993H138.479L143.063 56.666H140.196L137.996 50.7493C137.907 50.516 137.818 50.266 137.729 49.9993C137.641 49.7327 137.552 49.4605 137.463 49.1827C137.374 48.8938 137.285 48.616 137.196 48.3493C137.118 48.0716 137.052 47.816 136.996 47.5827L137.496 47.566C137.429 47.8438 137.352 48.116 137.263 48.3827C137.185 48.6493 137.102 48.916 137.013 49.1827C136.935 49.4382 136.846 49.6993 136.746 49.966C136.646 50.2216 136.552 50.4882 136.463 50.766L134.263 56.666H131.463ZM133.663 54.4327L134.546 52.2993H139.913L140.779 54.4327H133.663ZM147.26 56.8493C146.493 56.8493 145.81 56.6549 145.21 56.266C144.621 55.866 144.154 55.3216 143.81 54.6327C143.465 53.9327 143.293 53.1382 143.293 52.2493C143.293 51.3605 143.465 50.5716 143.81 49.8827C144.154 49.1827 144.626 48.6327 145.226 48.2327C145.826 47.8327 146.515 47.6327 147.293 47.6327C147.693 47.6327 148.076 47.6938 148.443 47.816C148.81 47.9382 149.143 48.1049 149.443 48.316C149.743 48.5271 149.987 48.7716 150.176 49.0493C150.365 49.316 150.476 49.5938 150.51 49.8827L149.876 50.0327V44.3327H152.56V56.666H150.076L149.926 54.6493L150.46 54.7327C150.426 55.0105 150.315 55.2771 150.126 55.5327C149.948 55.7882 149.715 56.016 149.426 56.216C149.137 56.4049 148.804 56.5549 148.426 56.666C148.06 56.7882 147.671 56.8493 147.26 56.8493ZM147.943 54.6327C148.354 54.6327 148.71 54.5327 149.01 54.3327C149.31 54.1327 149.537 53.8549 149.693 53.4993C149.86 53.1438 149.943 52.7271 149.943 52.2493C149.943 51.7605 149.86 51.3382 149.693 50.9827C149.537 50.6271 149.31 50.3493 149.01 50.1493C148.71 49.9493 148.354 49.8493 147.943 49.8493C147.532 49.8493 147.176 49.9493 146.876 50.1493C146.587 50.3493 146.36 50.6271 146.193 50.9827C146.026 51.3382 145.943 51.7605 145.943 52.2493C145.943 52.7271 146.026 53.1438 146.193 53.4993C146.36 53.8549 146.587 54.1327 146.876 54.3327C147.176 54.5327 147.532 54.6327 147.943 54.6327ZM157.531 56.666L153.831 47.816H156.781L158.981 54.4327L158.331 54.4993L160.598 47.816H163.515L159.631 56.666H157.531ZM168.828 56.8327C167.906 56.8327 167.084 56.6327 166.362 56.2327C165.65 55.8327 165.084 55.2882 164.662 54.5993C164.25 53.9105 164.045 53.1216 164.045 52.2327C164.045 51.3438 164.25 50.5549 164.662 49.866C165.084 49.1771 165.65 48.6327 166.362 48.2327C167.084 47.8327 167.906 47.6327 168.828 47.6327C169.75 47.6327 170.567 47.8327 171.278 48.2327C172 48.6327 172.567 49.1771 172.978 49.866C173.389 50.5549 173.595 51.3438 173.595 52.2327C173.595 53.1216 173.389 53.9105 172.978 54.5993C172.567 55.2882 172 55.8327 171.278 56.2327C170.567 56.6327 169.75 56.8327 168.828 56.8327ZM168.828 54.5327C169.228 54.5327 169.584 54.4327 169.895 54.2327C170.206 54.0327 170.45 53.7605 170.628 53.416C170.806 53.0716 170.889 52.6771 170.878 52.2327C170.889 51.7882 170.806 51.3938 170.628 51.0493C170.45 50.6938 170.206 50.416 169.895 50.216C169.584 50.016 169.228 49.916 168.828 49.916C168.428 49.916 168.067 50.016 167.745 50.216C167.434 50.416 167.189 50.6938 167.012 51.0493C166.834 51.3938 166.75 51.7882 166.762 52.2327C166.75 52.6771 166.834 53.0716 167.012 53.416C167.189 53.7605 167.434 54.0327 167.745 54.2327C168.067 54.4327 168.428 54.5327 168.828 54.5327ZM177.905 54.066L176.922 52.066L181.055 47.816H184.572L177.905 54.066ZM175.339 56.666V44.3327H178.005V56.666H175.339ZM181.339 56.666L178.222 52.6327L180.105 51.166L184.489 56.666H181.339ZM188.664 56.816C187.919 56.816 187.253 56.6216 186.664 56.2327C186.086 55.8327 185.625 55.2882 185.281 54.5993C184.936 53.8993 184.764 53.1105 184.764 52.2327C184.764 51.3327 184.936 50.5382 185.281 49.8493C185.625 49.1605 186.097 48.6216 186.697 48.2327C187.297 47.8327 187.981 47.6327 188.747 47.6327C189.169 47.6327 189.553 47.6938 189.897 47.816C190.253 47.9382 190.564 48.1105 190.831 48.3327C191.097 48.5438 191.325 48.7938 191.514 49.0827C191.703 49.3605 191.842 49.6605 191.931 49.9827L191.381 49.916V47.816H194.031V56.666H191.331V54.5327L191.931 54.516C191.842 54.8271 191.697 55.1216 191.497 55.3993C191.297 55.6771 191.053 55.9216 190.764 56.1327C190.475 56.3438 190.153 56.5105 189.797 56.6327C189.442 56.7549 189.064 56.816 188.664 56.816ZM189.397 54.566C189.808 54.566 190.164 54.4716 190.464 54.2827C190.764 54.0938 190.997 53.8271 191.164 53.4827C191.331 53.1271 191.414 52.7105 191.414 52.2327C191.414 51.7549 191.331 51.3438 191.164 50.9993C190.997 50.6438 190.764 50.3716 190.464 50.1827C190.164 49.9827 189.808 49.8827 189.397 49.8827C188.997 49.8827 188.647 49.9827 188.347 50.1827C188.058 50.3716 187.831 50.6438 187.664 50.9993C187.497 51.3438 187.414 51.7549 187.414 52.2327C187.414 52.7105 187.497 53.1271 187.664 53.4827C187.831 53.8271 188.058 54.0938 188.347 54.2827C188.647 54.4716 188.997 54.566 189.397 54.566ZM197.117 56.666V45.5827H199.784V56.666H197.117ZM195.55 50.1493V47.816H201.5V50.1493H195.55Z" fill="#F4F2F3"/></svg>