<svg width="36" height="28" viewBox="0 0 36 28" fill="none" xmlns="http://www.w3.org/2000/svg">
    <path fill-rule="evenodd" clip-rule="evenodd" d="M1.95538 25.4605L1.94049 25.4415C0.614196 23.7468 0 21.5569 0 18.9692C0 15.317 1.01788 11.9856 3.0508 9.00219C5.07195 5.97221 8.19807 3.1323 12.3646 0.463139L13.0875 0L16.4533 3.8247L15.6473 4.48074C12.9322 6.69067 10.8492 8.74884 9.37472 10.6533C8.43708 11.8645 7.81221 12.939 7.4526 13.8831C7.90545 13.782 8.39131 13.7452 8.872 13.7452C10.5936 13.7452 12.0486 14.4661 13.1832 15.8222C14.3277 17.1249 14.864 18.7797 14.864 20.6972C14.864 22.7782 14.2092 24.5501 12.8431 25.9163C11.477 27.2824 9.70506 27.9372 7.624 27.9372C5.31835 27.9372 3.39768 27.1305 1.97118 25.4788L1.95538 25.4605ZM12.424 16.4732C11.464 15.3212 10.28 14.7452 8.872 14.7452C8.13069 14.7452 7.55039 14.8418 7.13108 15.035C6.94288 15.1217 6.78711 15.2278 6.66378 15.3535C6.65906 15.3583 6.65438 15.3631 6.64976 15.368C6.57956 15.4418 6.52031 15.5222 6.472 15.6092L6.088 15.3212C6.11294 15.0219 6.1646 14.7142 6.24298 14.3979C6.56692 13.0909 7.34726 11.6386 8.584 10.0412C9.97347 8.24644 11.8605 6.34696 14.245 4.34275C14.4965 4.13139 14.7535 3.91886 15.016 3.70517L12.904 1.30517C8.808 3.92917 5.8 6.68117 3.88 9.56117C1.96 12.3772 1 15.5132 1 18.9692C1 21.4012 1.576 23.3532 2.728 24.8252C3.944 26.2332 5.576 26.9372 7.624 26.9372C9.48 26.9372 10.984 26.3612 12.136 25.2092C13.288 24.0572 13.864 22.5532 13.864 20.6972C13.864 18.9692 13.384 17.5612 12.424 16.4732ZM21.1554 25.4605L21.1405 25.4415C19.8142 23.7468 19.2 21.5569 19.2 18.9692C19.2 15.317 20.2179 11.9857 22.2507 9.0023C24.2719 5.97227 27.398 3.13233 31.5646 0.463139L32.2875 0L35.6533 3.8247L34.8473 4.48074C32.1322 6.69067 30.0492 8.74884 28.5747 10.6533C27.6371 11.8645 27.0122 12.939 26.6526 13.8831C27.1055 13.782 27.5913 13.7452 28.072 13.7452C29.7936 13.7452 31.2486 14.4661 32.3832 15.8222C33.5277 17.1249 34.064 18.7797 34.064 20.6972C34.064 22.7782 33.4092 24.5501 32.0431 25.9163C30.677 27.2824 28.9051 27.9372 26.824 27.9372C24.5184 27.9372 22.5977 27.1305 21.1712 25.4788L21.1554 25.4605ZM31.624 16.4732C30.664 15.3212 29.48 14.7452 28.072 14.7452C27.3307 14.7452 26.7504 14.8418 26.3311 15.035C26.1429 15.1217 25.9871 15.2278 25.8638 15.3535C25.8591 15.3583 25.8544 15.3631 25.8498 15.368C25.7796 15.4418 25.7203 15.5222 25.672 15.6092L25.288 15.3212C25.3129 15.0219 25.3646 14.7142 25.443 14.3979C25.7669 13.0909 26.5473 11.6386 27.784 10.0412C29.1735 8.24644 31.0605 6.34697 33.445 4.34275C33.6965 4.13139 33.9535 3.91887 34.216 3.70517L32.104 1.30517C28.008 3.92917 25 6.68117 23.08 9.56117C21.16 12.3772 20.2 15.5132 20.2 18.9692C20.2 21.4012 20.776 23.3532 21.928 24.8252C23.144 26.2332 24.776 26.9372 26.824 26.9372C28.68 26.9372 30.184 26.3612 31.336 25.2092C32.488 24.0572 33.064 22.5532 33.064 20.6972C33.064 18.9692 32.584 17.5612 31.624 16.4732Z" fill="#B1E0F1"/>
</svg>
