<svg width="102" height="74" viewBox="0 0 102 74" fill="none" xmlns="http://www.w3.org/2000/svg">
<g opacity="0.148531">
<ellipse opacity="0.66" cx="57.2189" cy="60.3238" rx="4.67563" ry="4.97447" fill="#26D79C"/>
<ellipse opacity="0.66" cx="31.128" cy="60.3238" rx="4.67563" ry="4.97447" fill="#26D79C"/>
<ellipse opacity="0.66" cx="83.2892" cy="60.3238" rx="4.67563" ry="4.97447" fill="#26D79C"/>
<ellipse cx="83.2892" cy="75.0255" rx="4.67563" ry="4.97447" fill="#6CFFC3"/>
<ellipse opacity="0.66" cx="70.2541" cy="60.3238" rx="4.67563" ry="4.97447" fill="#26D79C"/>
<ellipse opacity="0.66" cx="44.1632" cy="60.3238" rx="4.67563" ry="4.97447" fill="#26D79C"/>
<ellipse opacity="0.469355" cx="96.3244" cy="60.3238" rx="4.67563" ry="4.97447" fill="#26D79C"/>
<ellipse opacity="0.656808" cx="56.5862" cy="75.05" rx="4.7432" ry="4.95" fill="#26D79C"/>
<ellipse opacity="0.656808" cx="56.7458" cy="18.95" rx="4.7432" ry="4.95" fill="#26D79C"/>
<ellipse opacity="0.656808" cx="69.8098" cy="75.05" rx="4.7432" ry="4.95" fill="#26D79C"/>
<ellipse opacity="0.656808" cx="43.3419" cy="75.05" rx="4.7432" ry="4.95" fill="#26D79C"/>
<ellipse opacity="0.656808" cx="30.6501" cy="74.0024" rx="4.7432" ry="4.95" fill="#26D79C"/>
<ellipse opacity="0.656808" cx="17.9583" cy="74.0024" rx="4.7432" ry="4.95" fill="#26D79C"/>
<ellipse opacity="0.426409" cx="4.7432" cy="74.0024" rx="4.7432" ry="4.95" fill="#26D79C"/>
<ellipse opacity="0.479934" cx="16.9006" cy="60.3834" rx="4.7432" ry="4.95" fill="#26D79C"/>
<ellipse opacity="0.426409" cx="4.7432" cy="60.3834" rx="4.7432" ry="4.95" fill="#26D79C"/>
<ellipse opacity="0.656808" cx="96.2568" cy="75.05" rx="4.7432" ry="4.95" fill="#26D79C"/>
<ellipse cx="56.5224" cy="47" rx="4.75002" ry="5.16867" fill="#6CFFC3"/>
<ellipse opacity="0.656808" cx="30.0164" cy="47" rx="4.75002" ry="5.16867" fill="#26D79C"/>
<ellipse opacity="0.656808" cx="83.0074" cy="47" rx="4.75002" ry="5.16867" fill="#26D79C"/>
<ellipse opacity="0.314546" cx="16.7738" cy="47" rx="4.75002" ry="5.16867" fill="#26D79C"/>
<ellipse cx="69.7649" cy="47" rx="4.75002" ry="5.16867" fill="#6CFFC3"/>
<ellipse cx="43.2589" cy="47" rx="4.75002" ry="5.16867" fill="#6CFFC3"/>
<ellipse opacity="0.456427" cx="96.25" cy="47" rx="4.75002" ry="5.16867" fill="#26D79C"/>
<ellipse opacity="0.692871" cx="57.4852" cy="32.4482" rx="4.7161" ry="4.61205" fill="#26D79C"/>
<ellipse opacity="0.479399" cx="31.1685" cy="32.4482" rx="4.7161" ry="4.61205" fill="#26D79C"/>
<ellipse opacity="0.546503" cx="70.6331" cy="32.4482" rx="4.7161" ry="4.61205" fill="#26D79C"/>
<ellipse opacity="0.546503" cx="84.6331" cy="32.4482" rx="4.7161" ry="4.61205" fill="#26D79C"/>
<ellipse opacity="0.546503" cx="96.6331" cy="19.4482" rx="4.7161" ry="4.61205" fill="#26D79C"/>
<ellipse opacity="0.508487" cx="44.3164" cy="32.4482" rx="4.7161" ry="4.61205" fill="#26D79C"/>
<ellipse opacity="0.438081" cx="70.4732" cy="18.612" rx="4.7161" ry="4.61205" fill="#26D79C"/>
<ellipse opacity="0.438081" cx="70.4732" cy="4.61205" rx="4.7161" ry="4.61205" fill="#26D79C"/>
</g>
</svg>
